<?xml version="1.0" encoding="UTF-8"?>
<!-- Generated by jsxcad -->
<!DOCTYPE svg PUBLIC "-//W3C//DTD SVG 1.1 Tiny//EN" "http://www.w3.org/Graphics/SVG/1.1/DTD/svg11-tiny.dtd">
<svg viewBox="-250 -250 500 500" width="500" height="500" xmlns="http://www.w3.org/2000/svg"><path d="M-83.36412984917807,-79.17253715518187L61.3551396543861,-152.82782959810663L-80.5567735444693,-111.56680565672781z" style="fill:rgb(83,212,212)"/><path d="M-32.60425122828102,-63.96907454377525L-18.030230151037493,-26.100569376206685L-14.322450245265653,-28.428424299686142z" style="fill:rgb(180,60,221)"/><path d="M-83.2605018847443,-80.36830005065332L-77.62338568368381,-68.78591675114419L-77.52778759412556,-69.9834102804643z" style="fill:rgb(247,158,158)"/><path d="M-18.969927282588976,-70.44222109849225L-14.322450245265653,-28.428424299686142L-1.1166709050167511,-34.67386371396124z" style="fill:rgb(160,49,222)"/><path d="M-36.44312560656754,-61.57918337100381L-26.65045854224899,-20.688533232892517L-18.030230151037493,-26.100569376206685z" style="fill:rgb(180,60,221)"/><path d="M-4.848155721402814,-75.25730511701161L-1.1166709050167511,-34.67386371396124L12.59383885375444,-39.245312153969145z" style="fill:rgb(138,40,220)"/><path d="M-26.65045854224899,-20.688533232892517L-56.89860025557574,-46.821179371678596L-37.74655839244984,-11.668085039174095z" style="fill:rgb(199,74,218)"/><path d="M-77.62338568368381,-68.78591675114419L-83.2605018847443,-80.36830005065332L-83.36412984917807,-79.17253715518187z" style="fill:rgb(247,158,158)"/><path d="M2.725305050190035,-76.86008074727148L12.59383885375444,-39.245312153969145L19.962733482625485,-40.71326313193135zM9.213683346917296,-78.23321717829269L19.962733482625485,-40.71326313193135L26.27495500442117,-41.970715708328136zM9.363720116022202,-78.26497062221475L26.27495500442117,-41.970715708328136L26.42090935958008,-41.99979204049929z" style="fill:rgb(116,34,214)"/><path d="M-37.74655839244984,-11.668085039174095L-66.85259815182262,-36.61466634840931L-47.27980196516378,-1.613750812161738z" style="fill:rgb(216,89,211)"/><path d="M68.11234434397994,-109.55650698935052L-77.52778759412556,-69.9834102804643L-77.62338568368381,-68.78591675114419z" style="fill:rgb(83,212,212)"/><path d="M-14.322450245265653,-28.428424299686142L-18.969927282588976,-70.44222109849225L-32.60425122828102,-63.96907454377525z" style="fill:rgb(160,49,222)"/><path d="M-18.030230151037493,-26.100569376206685L-32.60425122828102,-63.96907454377525L-36.44312560656754,-61.57918337100381z" style="fill:rgb(180,60,221)"/><path d="M23.257337889517842,-79.35442481085785L26.42090935958008,-41.99979204049929L39.96521032748238,-42.83399250660696z" style="fill:rgb(94,32,205)"/><path d="M-26.65045854224899,-20.688533232892517L-36.44312560656754,-61.57918337100381L-45.3685514086408,-56.02267301781449z" style="fill:rgb(180,60,221)"/><path d="M-86.52387106091321,-116.96155955012446L-84.01120811636027,-52.62530145330942L62.561305559124605,-160.57664553337673z" style="fill:rgb(83,212,212)"/><path d="M-1.1166709050167511,-34.67386371396124L-4.848155721402814,-75.25730511701161L-18.969927282588976,-70.44222109849225z" style="fill:rgb(138,40,220)"/><path d="M-56.89860025557574,-46.821179371678596L-26.65045854224899,-20.688533232892517L-45.3685514086408,-56.02267301781449z" style="fill:rgb(199,74,218)"/><path d="M61.3551396543861,-152.82782959810663L68.11234434397994,-109.55650698935052L65.75856694894217,-141.7487008395633z" style="fill:rgb(247,158,158)"/><path d="M-47.27980196516378,-1.613750812161738L-74.91653401364944,-25.683886123576738L-54.94784861733386,9.196417324455071z" style="fill:rgb(229,106,201)"/><path d="M12.59383885375444,-39.245312153969145L2.725305050190035,-76.86008074727148L-4.848155721402814,-75.25730511701161z" style="fill:rgb(116,34,214)"/><path d="M-77.62338568368381,-68.78591675114419L63.57260570564244,-120.72375524554525L-83.36412984917807,-79.17253715518187z" style="fill:rgb(127,37,217)"/><path d="M19.962733482625485,-40.71326313193135L9.213683346917296,-78.23321717829269L2.725305050190035,-76.86008074727148z" style="fill:rgb(116,34,214)"/><path d="M-66.85259815182262,-36.61466634840931L-37.74655839244984,-11.668085039174095L-56.89860025557574,-46.821179371678596z" style="fill:rgb(216,89,211)"/><path d="M26.27495500442117,-41.970715708328136L9.363720116022202,-78.26497062221475L9.213683346917296,-78.23321717829269z" style="fill:rgb(116,34,214)"/><path d="M36.41805670020311,-78.45770598365944L39.96521032748238,-42.83399250660696L52.82115603815813,-41.68847907353981z" style="fill:rgb(74,33,194)"/><path d="M61.3551396543861,-152.82782959810663L-83.36412984917807,-79.17253715518187L63.57260570564244,-120.72375524554525z" style="fill:rgb(83,212,212)"/><path d="M26.42090935958008,-41.99979204049929L23.257337889517842,-79.35442481085785L9.363720116022202,-78.26497062221475z" style="fill:rgb(94,32,205)"/><path d="M-77.52778759412556,-69.9834102804643L68.11234434397994,-109.55650698935052L68.02538318015533,-110.74585548381782z" style="fill:rgb(83,212,212)"/><path d="M-54.94784861733386,9.196417324455071L-80.16255841487667,-15.587016200349487L-59.87493202275601,19.216286334917367z" style="fill:rgb(239,123,188)"/><path d="M-83.36412984917807,-79.17253715518187L-81.00662161117393,-47.32346930865078L-45.90576732515474,-89.76512425103486z" style="fill:rgb(83,212,212)"/><path d="M-74.91653401364944,-25.683886123576738L-47.27980196516378,-1.613750812161738L-66.85259815182262,-36.61466634840931z" style="fill:rgb(229,106,201)"/><path d="M-59.87493202275601,19.216286334917367L-80.21587800779697,-15.48438594219545L-59.92499738133859,19.31810844491199z" style="fill:rgb(239,123,188)"/><path d="M64.58346427678957,-38.552824394493136L36.41805670020311,-78.45770598365944L52.82115603815813,-41.68847907353981z" style="fill:rgb(55,36,180)"/><path d="M-59.92499738133859,19.31810844491199L-80.81118659723161,-14.338619028282055L-60.48395683061018,20.454819496550353z" style="fill:rgb(239,123,188)"/><path d="M63.57260570564244,-120.72375524554525L-77.62338568368381,-68.78591675114419L68.11234434397994,-109.55650698935052z" style="fill:rgb(127,37,217)"/><path d="M-84.01120811636027,-52.62530145330942L-86.52387106091321,-116.96155955012446L-87.91007633415398,-44.37006600403223z" style="fill:rgb(83,212,212)"/><path d="M39.96521032748238,-42.83399250660696L36.41805670020311,-78.45770598365944L23.257337889517842,-79.35442481085785z" style="fill:rgb(74,33,194)"/><path d="M68.11234434397994,-109.55650698935052L61.3551396543861,-152.82782959810663L63.57260570564244,-120.72375524554525z" style="fill:rgb(247,158,158)"/><path d="M-80.16255841487667,-15.587016200349487L-54.94784861733386,9.196417324455071L-74.91653401364944,-25.683886123576738z" style="fill:rgb(239,123,188)"/><path d="M-46.89822604074509,-36.479264884696505L-43.17093329719478,-84.44877582027306L-44.535129769572684,-87.1006895016993z" style="fill:rgb(247,158,158)"/><path d="M-60.48395683061018,20.454819496550353L-84.20790248103121,-3.220234478319589L-63.580809753618446,31.523376732086486z" style="fill:rgb(245,141,174)"/><path d="M-81.00662161117393,-47.32346930865078L-83.36412984917807,-79.17253715518187L-84.86670826629691,-39.07362530393226z" style="fill:rgb(83,212,212)"/><path d="M-48.3103091684627,-39.933373554823845L-44.535129769572684,-87.1006895016993L-45.90576732515474,-89.76512425103486z" style="fill:rgb(247,158,158)"/><path d="M74.85608955819765,-33.47143625637221L48.43147024016868,-75.55503446120949L64.58346427678957,-38.552824394493136z" style="fill:rgb(38,43,165)"/><path d="M-63.580809753618446,31.523376732086486L-84.30117690592755,-2.914918054893473L-63.66582245941885,31.827227217913645z" style="fill:rgb(245,141,174)"/><path d="M-45.90576732515474,-89.76512425103486L-81.00662161117393,-47.32346930865078L-70.49628736286405,-50.20943288139824z" style="fill:rgb(83,212,212)"/><path d="M-80.21587800779697,-15.48438594219545L-59.87493202275601,19.216286334917367L-80.16255841487667,-15.587016200349487zM-80.81118659723161,-14.338619028282055L-59.92499738133859,19.31810844491199L-80.21587800779697,-15.48438594219545z" style="fill:rgb(239,123,188)"/><path d="M-18.969927282588976,-70.44222109849225L-19.54804798263443,-33.04454192388748L-4.848155721402814,-75.25730511701161zM-32.60425122828102,-63.96907454377525L-30.33487702536974,-22.42024786488818L-18.969927282588976,-70.44222109849225zM62.561305559124605,-160.57664553337673L-84.01120811636027,-52.62530145330942L-73.45756331839334,-55.539475572381896zM-43.17093329719478,-84.44877582027306L-23.778203274055375,-37.261649503434285L26.49415907954999,-104.04290978677668z" style="fill:rgb(83,212,212)"/><path d="M-5.026422515058493,-39.74263191147415L-1.0091993308961558,2.8108777438902193L13.041451557262612,-3.6366031559558527z" style="fill:rgb(158,48,222)"/><path d="M36.41805670020311,-78.45770598365944L64.58346427678957,-38.552824394493136L48.43147024016868,-75.55503446120949z" style="fill:rgb(55,36,180)"/><path d="M-45.90576732515474,-89.76512425103486L-70.49628736286405,-50.20943288139824L-67.7368787739953,-43.74609981118691z" style="fill:rgb(83,212,212)"/><path d="M-84.20790248103121,-3.220234478319589L-60.48395683061018,20.454819496550353L-80.81118659723161,-14.338619028282055z" style="fill:rgb(245,141,174)"/><path d="M-34.57816752954881,-10.529544855822735L-32.60425122828102,-63.96907454377525L-45.3685514086408,-56.02267301781449zM62.561305559124605,-160.57664553337673L-73.45756331839334,-55.539475572381896L-70.70914650256219,-49.08855933104191zM-4.848155721402814,-75.25730511701161L9.571731889642747,-40.81506450570912L9.363720116022202,-78.26497062221475zM-48.463076749995466,-36.76741668487633L24.046180179371245,-109.54634856712809L-45.90576732515474,-89.76512425103486z" style="fill:rgb(83,212,212)"/><path d="M-1.0091993308961558,2.8108777438902193L-30.33487702536974,-22.42024786488818L-11.34326850977896,13.25505986285789z" style="fill:rgb(212,85,213)"/><path d="M-63.66582245941885,31.827227217913645L-85.20609831355625,8.229540097070341L-64.32626741182852,42.957534564390066z" style="fill:rgb(247,158,158)"/><path d="M9.571731889642747,-40.81506450570912L13.041451557262612,-3.6366031559558527L27.26170578189603,-4.447986701933289z" style="fill:rgb(96,32,206)"/><path d="M-14.872907844376487,-60.82369033548916L-26.207490582872914,-48.895933340005044L-12.206948967193453,-55.48936231794586z" style="fill:rgb(159,49,222)"/><path d="M67.11730148295253,-122.93685204995715L63.49065416328367,-121.91023156316032L63.57260570564244,-120.72375524554525zM-96.71745113029527,32.605680874003816L-83.2605018847443,-80.36830005065332L-86.62695872151998,-79.41533552803675z" style="fill:rgb(83,212,212)"/><path d="M-26.207490582872914,-48.895933340005044L-41.52977636501288,-45.3741028545362L-38.72987493943181,-40.10522698169445z" style="fill:rgb(189,66,220)"/><path d="M83.26384028634752,-26.549388968681555L58.892382559133175,-70.68097894615101L74.85608955819765,-33.47143625637221z" style="fill:rgb(25,53,148)"/><path d="M-26.207490582872914,-48.895933340005044L-14.872907844376487,-60.82369033548916L-28.939809024523278,-54.194868912540564z" style="fill:rgb(159,49,222)"/><path d="M-83.2605018847443,-80.36830005065332L-96.71745113029527,32.605680874003816L-83.36412984917807,-79.17253715518187z" style="fill:rgb(83,212,212)"/><path d="M-41.52977636501288,-45.3741028545362L-26.207490582872914,-48.895933340005044L-28.939809024523278,-54.194868912540564z" style="fill:rgb(189,66,220)"/><path d="M-89.54698134411943,-84.671932704159L-96.71745113029527,32.605680874003816L-86.62695872151998,-79.41533552803675z" style="fill:rgb(247,158,158)"/><path d="M-0.2462732538222102,-64.82302276040868L-12.206948967193453,-55.48936231794586L2.358276364716429,-59.450009559440154z" style="fill:rgb(127,37,217)"/><path d="M-84.30117690592755,-2.914918054893473L-63.580809753618446,31.523376732086486L-84.20790248103121,-3.220234478319589z" style="fill:rgb(245,141,174)"/><path d="M-12.206948967193453,-55.48936231794586L-0.2462732538222102,-64.82302276040868L-14.872907844376487,-60.82369033548916zM-73.45756331839334,-55.539475572381896L-81.00662161117393,-47.32346930865078L-70.49628736286405,-50.20943288139824zM-81.00662161117393,-47.32346930865078L-73.45756331839334,-55.539475572381896L-84.01120811636027,-52.62530145330942z" style="fill:rgb(127,37,217)"/><path d="M-43.17093329719478,-84.44877582027306L-46.89822604074509,-36.479264884696505L-45.45597613904698,-33.81222429203221z" style="fill:rgb(247,158,158)"/><path d="M9.363720116022202,-78.26497062221475L20.494933954497395,-35.88598853807645L23.257337889517842,-79.35442481085785z" style="fill:rgb(83,212,212)"/><path d="M37.99354142352099,0.6825504913258289L9.571731889642747,-40.81506450570912L27.26170578189603,-4.447986701933289z" style="fill:rgb(42,41,169)"/><path d="M-51.80449455672216,-34.92587418621144L-38.72987493943181,-40.10522698169445L-41.52977636501288,-45.3741028545362z" style="fill:rgb(215,88,211)"/><path d="M-87.91007633415398,-44.37006600403223L-81.00662161117393,-47.32346930865078L-84.01120811636027,-52.62530145330942z" style="fill:rgb(241,128,184)"/><path d="M-38.72987493943181,-40.10522698169445L-51.80449455672216,-34.92587418621144L-48.93977131819979,-29.680147086789702z" style="fill:rgb(215,88,211)"/><path d="M48.43147024016868,-75.55503446120949L74.85608955819765,-33.47143625637221L58.892382559133175,-70.68097894615101z" style="fill:rgb(38,43,165)"/><path d="M-85.20609831355625,8.229540097070341L-62.36531304431337,53.47504596107007L-64.32626741182852,42.957534564390066z" style="fill:rgb(245,174,141)"/><path d="M6.810093971948285,-65.35739567394586L2.358276364716429,-59.450009559440154L9.388490881041688,-59.9648171136363z" style="fill:rgb(95,32,206)"/><path d="M-81.00662161117393,-47.32346930865078L-87.91007633415398,-44.37006600403223L-84.86670826629691,-39.07362530393226z" style="fill:rgb(241,128,184)"/><path d="M-4.848155721402814,-75.25730511701161L-19.54804798263443,-33.04454192388748L-5.026422515058493,-39.74263191147415z" style="fill:rgb(83,212,212)"/><path d="M-11.34326850977896,13.25505986285789L-34.57816752954881,-10.529544855822735L-15.265386127117827,25.076872616679086z" style="fill:rgb(243,133,180)"/><path d="M2.358276364716429,-59.450009559440154L6.810093971948285,-65.35739567394586L-0.2462732538222102,-64.82302276040868z" style="fill:rgb(95,32,206)"/><path d="M-1.0091993308961558,2.8108777438902193L-5.026422515058493,-39.74263191147415L-19.54804798263443,-33.04454192388748z" style="fill:rgb(158,48,222)"/><path d="M-18.969927282588976,-70.44222109849225L-30.33487702536974,-22.42024786488818L-19.54804798263443,-33.04454192388748z" style="fill:rgb(83,212,212)"/><path d="M-85.20609831355625,8.229540097070341L-63.66582245941885,31.827227217913645L-84.30117690592755,-2.914918054893473zM-44.535129769572684,-87.1006895016993L-48.3103091684627,-39.933373554823845L-46.86209652823764,-37.25321776853703zM26.703394824916113,-53.91111325463204L26.49415907954999,-104.04290978677668L25.273101760054445,-106.78803527647986z" style="fill:rgb(247,158,158)"/><path d="M-73.45756331839334,-55.539475572381896L-67.7368787739953,-43.74609981118691L-70.49628736286405,-50.20943288139824z" style="fill:rgb(241,184,128)"/><path d="M-23.778203274055375,-37.261649503434285L-43.17093329719478,-84.44877582027306L-45.563962958379236,-31.41923442069409z" style="fill:rgb(83,212,212)"/><path d="M-30.33487702536974,-22.42024786488818L-1.0091993308961558,2.8108777438902193L-19.54804798263443,-33.04454192388748z" style="fill:rgb(212,85,213)"/><path d="M-4.848155721402814,-75.25730511701161L-5.026422515058493,-39.74263191147415L9.571731889642747,-40.81506450570912z" style="fill:rgb(83,212,212)"/><path d="M13.978771652670838,-65.90027762243038L9.388490881041688,-59.9648171136363L16.530375700692776,-60.48779870645479z" style="fill:rgb(95,32,206)"/><path d="M-87.91007633415398,-44.37006600403223L-86.52387106091321,-116.96155955012446L-100.03224515895526,27.320400159864935z" style="fill:rgb(83,212,212)"/><path d="M84.48226187420738,-24.861774065293464L67.41672944281956,-63.93078590249262L83.26384028634752,-26.549388968681555z" style="fill:rgb(15,66,131)"/><path d="M13.041451557262612,-3.6366031559558527L9.571731889642747,-40.81506450570912L-5.026422515058493,-39.74263191147415z" style="fill:rgb(96,32,206)"/><path d="M25.410491765947185,-56.69170657175266L25.273101760054445,-106.78803527647986L24.046180179371245,-109.54634856712809z" style="fill:rgb(247,158,158)"/><path d="M9.388490881041688,-59.9648171136363L13.978771652670838,-65.90027762243038L6.810093971948285,-65.35739567394586z" style="fill:rgb(95,32,206)"/><path d="M-84.01120811636027,-52.62530145330942L-79.69533936473074,-42.12270823569443L-73.45756331839334,-55.539475572381896zM62.561305559124605,-160.57664553337673L-70.70914650256219,-49.08855933104191L43.4215527942202,-80.39645088855372z" style="fill:rgb(83,212,212)"/><path d="M-76.67170023681487,-36.80143229519399L-87.91007633415398,-44.37006600403223L-84.86670826629691,-39.07362530393226z" style="fill:rgb(57,36,182)"/><path d="M-48.93977131819979,-29.680147086789702L-56.280706070635105,-27.872615388410686L-53.38024223981364,-22.636115164774zM-56.280706070635105,-27.872615388410686L-48.93977131819979,-29.680147086789702L-51.80449455672216,-34.92587418621144z" style="fill:rgb(233,113,196)"/><path d="M-108.13629040671746,52.90694755944119L-89.54698134411943,-84.671932704159L-116.3787944172642,-77.03520642756057z" style="fill:rgb(83,212,212)"/><path d="M-67.7368787739953,-43.74609981118691L-73.45756331839334,-55.539475572381896L-70.70914650256219,-49.08855933104191z" style="fill:rgb(241,184,128)"/><path d="M-79.69533936473074,-42.12270823569443L-84.01120811636027,-52.62530145330942L-87.91007633415398,-44.37006600403223zM-32.60425122828102,-63.96907454377525L-34.57816752954881,-10.529544855822735L-30.33487702536974,-22.42024786488818zM-83.36412984917807,-79.17253715518187L-90.00669254062751,21.615492289048646L-84.86670826629691,-39.07362530393226z" style="fill:rgb(83,212,212)"/><path d="M29.345405268078878,-58.47778156837268L13.978771652670838,-65.90027762243038L16.530375700692776,-60.48779870645479z" style="fill:rgb(65,34,188)"/><path d="M-34.57816752954881,-10.529544855822735L-11.579422312401668,35.20586889043935L-15.265386127117827,25.076872616679086z" style="fill:rgb(243,180,133)"/><path d="M25.410491765947185,-56.69170657175266L63.57260570564244,-120.72375524554525L24.046180179371245,-109.54634856712809z" style="fill:rgb(83,212,212)"/><path d="M89.46704809651963,-17.957467047430953L68.64198445700755,-62.268670082079666L84.48226187420738,-24.861774065293464z" style="fill:rgb(15,66,131)"/><path d="M-83.41323264304062,18.722691415949175L-61.86764562201212,54.50551332322223L-62.36531304431337,53.47504596107007z" style="fill:rgb(239,188,123)"/><path d="M23.257337889517842,-79.35442481085785L24.74494189048078,-26.086113901090133L36.41805670020311,-78.45770598365944zM-73.45756331839334,-55.539475572381896L-79.69533936473074,-42.12270823569443L-70.70914650256219,-49.08855933104191z" style="fill:rgb(83,212,212)"/><path d="M-53.38024223981364,-22.636115164774L-59.040980236735436,-23.523194643263537L-56.11837222814349,-18.292550126040066z" style="fill:rgb(233,113,196)"/><path d="M-67.7368787739953,-43.74609981118691L-79.69533936473074,-42.12270823569443L-76.67170023681487,-36.80143229519399z" style="fill:rgb(197,72,218)"/><path d="M-87.91007633415398,-44.37006600403223L-76.67170023681487,-36.80143229519399L-79.69533936473074,-42.12270823569443z" style="fill:rgb(57,36,182)"/><path d="M-34.57816752954881,-10.529544855822735L-11.34326850977896,13.25505986285789L-30.33487702536974,-22.42024786488818z" style="fill:rgb(243,133,180)"/><path d="M-85.20609831355625,8.229540097070341L-80.81118659723161,-14.338619028282055L-84.30117690592755,-2.914918054893473z" style="fill:rgb(83,212,212)"/><path d="M-59.040980236735436,-23.523194643263537L-53.38024223981364,-22.636115164774L-56.280706070635105,-27.872615388410686z" style="fill:rgb(233,113,196)"/><path d="M-79.69533936473074,-42.12270823569443L-67.7368787739953,-43.74609981118691L-70.70914650256219,-49.08855933104191z" style="fill:rgb(197,72,218)"/><path d="M-66.85259815182262,-36.61466634840931L-62.015768254655185,42.600655058931615L-56.89860025557574,-46.821179371678596zM-74.91653401364944,-25.683886123576738L-71.70268017097357,36.260840685021876L-66.85259815182262,-36.61466634840931zM9.363720116022202,-78.26497062221475L9.571731889642747,-40.81506450570912L20.494933954497395,-35.88598853807645zM-56.89860025557574,-46.821179371678596L-50.109375663437724,46.91553694575731L-45.3685514086408,-56.02267301781449zM62.561305559124605,-160.57664553337673L46.55800819328509,-88.67932056197137L57.81961456051226,-91.78898377023833z" style="fill:rgb(83,212,212)"/><path d="M58.892382559133175,-70.68097894615101L83.26384028634752,-26.549388968681555L67.41672944281956,-63.93078590249262z" style="fill:rgb(25,53,148)"/><path d="M-80.81118659723161,-14.338619028282055L-78.89112735465356,28.188499668732902L-74.91653401364944,-25.683886123576738z" style="fill:rgb(83,212,212)"/><path d="M-82.92442431223051,19.745881720518433L-58.68312599186466,61.099340810711126L-61.86764562201212,54.50551332322223z" style="fill:rgb(239,188,123)"/><path d="M24.046180179371245,-109.54634856712809L-48.463076749995466,-36.76741668487633L-26.520332750987265,-45.05945610513899zM26.49415907954999,-104.04290978677668L-23.778203274055375,-37.261649503434285L5.641239275218622,-45.15123253211593zM62.561305559124605,-160.57664553337673L43.4215527942202,-80.39645088855372L46.55800819328509,-88.67932056197137z" style="fill:rgb(83,212,212)"/><path d="M13.978771652670838,-65.90027762243038L29.345405268078878,-58.47778156837268L26.834981979706367,-63.927621261397476z" style="fill:rgb(65,34,188)"/><path d="M-45.90576732515474,-89.76512425103486L-67.7368787739953,-43.74609981118691L-71.85820647957969,16.937109785247134z" style="fill:rgb(83,212,212)"/><path d="M62.561305559124605,-160.57664553337673L75.27570116303094,-11.328109544509509L64.77711474681522,-154.95114574745298z" style="fill:rgb(247,158,158)"/><path d="M-62.67322719871915,-11.924956027764454L-56.11837222814349,-18.292550126040066L-59.040980236735436,-23.523194643263537z" style="fill:rgb(244,139,176)"/><path d="M62.561305559124605,-160.57664553337673L57.81961456051226,-91.78898377023833L61.785393012110625,-85.43395312412574z" style="fill:rgb(83,212,212)"/><path d="M9.571731889642747,-40.81506450570912L37.99354142352099,0.6825504913258289L20.494933954497395,-35.88598853807645z" style="fill:rgb(42,41,169)"/><path d="M24.046180179371245,-109.54634856712809L-26.520332750987265,-45.05945610513899L2.9562028124093764,-53.02692000997415z" style="fill:rgb(83,212,212)"/><path d="M-62.36531304431337,53.47504596107007L-85.20609831355625,8.229540097070341L-83.41323264304062,18.722691415949175z" style="fill:rgb(245,174,141)"/><path d="M67.41672944281956,-63.93078590249262L84.48226187420738,-24.861774065293464L68.64198445700755,-62.268670082079666z" style="fill:rgb(15,66,131)"/><path d="M-56.11837222814349,-18.292550126040066L-62.67322719871915,-11.924956027764454L-59.70394297172594,-6.700538959910999z" style="fill:rgb(244,139,176)"/><path d="M26.49415907954999,-104.04290978677668L5.641239275218622,-45.15123253211593L27.989769315277098,-51.14456474544213zM-80.81118659723161,-14.338619028282055L-85.20609831355625,8.229540097070341L-83.41323264304062,18.722691415949175z" style="fill:rgb(83,212,212)"/><path d="M39.87994153642931,-53.48092009328045L26.834981979706367,-63.927621261397476L29.345405268078878,-58.47778156837268z" style="fill:rgb(39,43,166)"/><path d="M63.57260570564244,-120.72375524554525L49.00767749886178,-83.02322957601793L60.21947763509859,-86.1018039767618z" style="fill:rgb(83,212,212)"/><path d="M-79.79560653553264,26.295220991897438L-57.762871657958044,63.00481098791111L-58.68312599186466,61.099340810711126z" style="fill:rgb(239,188,123)"/><path d="M-45.45597613904698,-33.81222429203221L-47.00991614319071,-34.08667755459583L-45.563962958379236,-31.41923442069409zM-47.00991614319071,-34.08667755459583L-45.45597613904698,-33.81222429203221L-46.89822604074509,-36.479264884696505z" style="fill:rgb(247,158,158)"/><path d="M73.65668331358029,-55.46603639678815L93.1787867142423,-7.935215616860735L89.46704809651963,-17.957467047430953z" style="fill:rgb(245,174,141)"/><path d="M24.046180179371245,-109.54634856712809L2.9562028124093764,-53.02692000997415L2.9633514643812218,-50.6375326017142z" style="fill:rgb(83,212,212)"/><path d="M-46.86209652823764,-37.25321776853703L-48.347647823195665,-39.15956783400731L-46.89822604074509,-36.479264884696505zM26.49415907954999,-104.04290978677668L26.703394824916113,-53.91111325463204L27.989769315277098,-51.14456474544213zM-48.347647823195665,-39.15956783400731L-46.86209652823764,-37.25321776853703L-48.3103091684627,-39.933373554823845z" style="fill:rgb(247,158,158)"/><path d="M-45.90576732515474,-89.76512425103486L-71.85820647957969,16.937109785247134L-48.463076749995466,-36.76741668487633zM23.257337889517842,-79.35442481085785L20.494933954497395,-35.88598853807645L24.74494189048078,-26.086113901090133z" style="fill:rgb(83,212,212)"/><path d="M-61.86764562201212,54.50551332322223L-83.41323264304062,18.722691415949175L-82.92442431223051,19.745881720518433z" style="fill:rgb(239,188,123)"/><path d="M-46.89822604074509,-36.479264884696505L-48.463076749995466,-36.76741668487633L-47.00991614319071,-34.08667755459583zM-48.463076749995466,-36.76741668487633L-46.89822604074509,-36.479264884696505L-48.347647823195665,-39.15956783400731z" style="fill:rgb(247,158,158)"/><path d="M24.046180179371245,-109.54634856712809L2.9633514643812218,-50.6375326017142L25.410491765947185,-56.69170657175266zM63.57260570564244,-120.72375524554525L60.21947763509859,-86.1018039767618L64.18565751203923,-79.73041243440058zM63.57260570564244,-120.72375524554525L25.410491765947185,-56.69170657175266L49.00767749886178,-83.02322957601793z" style="fill:rgb(83,212,212)"/><path d="M25.273101760054445,-106.78803527647986L25.410491765947185,-56.69170657175266L26.703394824916113,-53.91111325463204z" style="fill:rgb(247,158,158)"/><path d="M26.834981979706367,-63.927621261397476L39.87994153642931,-53.48092009328045L37.39591177982818,-58.96293780788051z" style="fill:rgb(39,43,166)"/><path d="M-25.117448067655996,-42.34984448829848L-23.778203274055375,-37.261649503434285L-23.72154266390356,-39.6537130507262z" style="fill:rgb(247,158,158)"/><path d="M68.64198445700755,-62.268670082079666L89.46704809651963,-17.957467047430953L73.65668331358029,-55.46603639678815z" style="fill:rgb(15,66,131)"/><path d="M-50.5907467515834,71.18133120679839L-78.89112735465356,28.188499668732902L-57.762871657958044,63.00481098791111z" style="fill:rgb(25,53,148)"/><path d="M-45.563962958379236,-31.41923442069409L-26.58399593820533,-42.66838065331485L-48.463076749995466,-36.76741668487633z" style="fill:rgb(127,37,217)"/><path d="M-11.579422312401668,35.20586889043935L-34.57816752954881,-10.529544855822735L-30.988797342123075,-0.46049843680515434z" style="fill:rgb(243,180,133)"/><path d="M-62.67322719871915,-11.924956027764454L-59.33907308812689,4.283312411625793L-59.70394297172594,-6.700538959910999z" style="fill:rgb(247,164,152)"/><path d="M-26.58399593820533,-42.66838065331485L-45.563962958379236,-31.41923442069409L-23.778203274055375,-37.261649503434285z" style="fill:rgb(127,37,217)"/><path d="M-76.67170023681487,-36.80143229519399L-74.74825594111492,9.556930964388977L-67.7368787739953,-43.74609981118691zM-90.00669254062751,21.615492289048646L-76.67170023681487,-36.80143229519399L-84.86670826629691,-39.07362530393226z" style="fill:rgb(83,212,212)"/><path d="M-23.778203274055375,-37.261649503434285L-25.117448067655996,-42.34984448829848L-25.177592864220614,-39.95825762395542z" style="fill:rgb(247,158,158)"/><path d="M-80.81118659723161,-14.338619028282055L-83.41323264304062,18.722691415949175L-78.89112735465356,28.188499668732902z" style="fill:rgb(83,212,212)"/><path d="M40.98146981684023,-52.33658130175207L37.39591177982818,-58.96293780788051L39.87994153642931,-53.48092009328045z" style="fill:rgb(21,58,141)"/><path d="M-23.72154266390356,-39.6537130507262L4.295305979019353,-50.27747641351686L-25.117448067655996,-42.34984448829848z" style="fill:rgb(127,37,217)"/><path d="M-26.520332750987265,-45.05945610513899L-25.177592864220614,-39.95825762395542L-25.117448067655996,-42.34984448829848z" style="fill:rgb(247,158,158)"/><path d="M-26.520332750987265,-45.05945610513899L-48.463076749995466,-36.76741668487633L-26.58399593820533,-42.66838065331485z" style="fill:rgb(83,212,212)"/><path d="M-58.68312599186466,61.099340810711126L-82.92442431223051,19.745881720518433L-79.79560653553264,26.295220991897438z" style="fill:rgb(239,188,123)"/><path d="M4.295305979019353,-50.27747641351686L-23.72154266390356,-39.6537130507262L5.627698807569566,-47.54181096856727z" style="fill:rgb(127,37,217)"/><path d="M-25.177592864220614,-39.95825762395542L-26.520332750987265,-45.05945610513899L-26.58399593820533,-42.66838065331485z" style="fill:rgb(247,158,158)"/><path d="M37.39591177982818,-58.96293780788051L40.98146981684023,-52.33658130175207L38.498722767784166,-57.82221222928449z" style="fill:rgb(21,58,141)"/><path d="M-25.117448067655996,-42.34984448829848L2.9562028124093764,-53.02692000997415L-26.520332750987265,-45.05945610513899z" style="fill:rgb(127,37,217)"/><path d="M-79.69533936473074,-42.12270823569443L-77.91108274076888,4.213221826793295L-70.70914650256219,-49.08855933104191zM-93.26206828661847,16.31216755397597L-79.69533936473074,-42.12270823569443L-87.91007633415398,-44.37006600403223z" style="fill:rgb(83,212,212)"/><path d="M-59.33907308812689,4.283312411625793L-62.67322719871915,-11.924956027764454L-62.339731154783564,-0.9441922392740681z" style="fill:rgb(247,164,152)"/><path d="M47.30955545637529,-45.762544312242795L38.498722767784166,-57.82221222928449L40.98146981684023,-52.33658130175207z" style="fill:rgb(21,58,141)"/><path d="M77.3185790529887,-45.51847097251283L94.18386336870533,3.2092369245241374L93.1787867142423,-7.935215616860735z" style="fill:rgb(247,158,158)"/><path d="M2.9562028124093764,-53.02692000997415L-25.117448067655996,-42.34984448829848L4.295305979019353,-50.27747641351686z" style="fill:rgb(127,37,217)"/><path d="M-45.3685514086408,-56.02267301781449L-36.37300614291949,48.98031177262308L-34.57816752954881,-10.529544855822735zM-74.91653401364944,-25.683886123576738L-78.89112735465356,28.188499668732902L-71.70268017097357,36.260840685021876zM-96.71745113029527,32.605680874003816L-90.00669254062751,21.615492289048646L-83.36412984917807,-79.17253715518187z" style="fill:rgb(83,212,212)"/><path d="M-57.762871657958044,63.00481098791111L-79.79560653553264,26.295220991897438L-78.89112735465356,28.188499668732902z" style="fill:rgb(239,188,123)"/><path d="M57.81961456051226,-91.78898377023833L49.00767749886178,-83.02322957601793L60.21947763509859,-86.1018039767618zM49.00767749886178,-83.02322957601793L57.81961456051226,-91.78898377023833L46.55800819328509,-88.67932056197137z" style="fill:rgb(127,37,217)"/><path d="M36.41805670020311,-78.45770598365944L52.91278361086147,13.787373095256862L48.43147024016868,-75.55503446120949z" style="fill:rgb(83,212,212)"/><path d="M43.4215527942202,-80.39645088855372L49.00767749886178,-83.02322957601793L46.55800819328509,-88.67932056197137zM49.00767749886178,-83.02322957601793L43.4215527942202,-80.39645088855372L45.903671407365394,-74.74365753319348z" style="fill:rgb(241,128,184)"/><path d="M93.1787867142423,-7.935215616860735L73.65668331358029,-55.46603639678815L77.3185790529887,-45.51847097251283z" style="fill:rgb(245,174,141)"/><path d="M38.498722767784166,-57.82221222928449L47.30955545637529,-45.762544312242795L44.83456192440186,-51.26855698746277z" style="fill:rgb(21,58,141)"/><path d="M-41.02212752062829,77.66536484591182L-71.70268017097357,36.260840685021876L-50.5907467515834,71.18133120679839z" style="fill:rgb(38,43,165)"/><path d="M49.00767749886178,-83.02322957601793L25.410491765947185,-56.69170657175266L45.903671407365394,-74.74365753319348z" style="fill:rgb(83,212,212)"/><path d="M64.18565751203923,-79.73041243440058L57.81961456051226,-91.78898377023833L60.21947763509859,-86.1018039767618z" style="fill:rgb(13,70,126)"/><path d="M-62.339731154783564,-0.9441922392740681L-54.920247944996326,13.837023813007036L-59.33907308812689,4.283312411625793z" style="fill:rgb(240,186,126)"/><path d="M-66.85259815182262,-36.61466634840931L-71.70268017097357,36.260840685021876L-62.015768254655185,42.600655058931615zM63.57260570564244,-120.72375524554525L75.27570116303094,-11.328109544509509L67.11730148295253,-122.93685204995715z" style="fill:rgb(83,212,212)"/><path d="M-96.71745113029527,32.605680874003816L-89.54698134411943,-84.671932704159L-100.03224515895526,27.320400159864935z" style="fill:rgb(247,158,158)"/><path d="M5.641239275218622,-45.15123253211593L25.410491765947185,-56.69170657175266L2.9633514643812218,-50.6375326017142z" style="fill:rgb(127,37,217)"/><path d="M-26.000808870624315,-7.22400433883647L-23.778203274055375,-37.261649503434285L-25.177592864220614,-39.95825762395542z" style="fill:rgb(247,158,158)"/><path d="M25.410491765947185,-56.69170657175266L5.641239275218622,-45.15123253211593L27.989769315277098,-51.14456474544213z" style="fill:rgb(127,37,217)"/><path d="M-26.58399593820533,-42.66838065331485L-48.463076749995466,-36.76741668487633L-27.455445780091353,-9.938249743781936zM46.55800819328509,-88.67932056197137L52.83435917464634,-78.32736986100355L57.81961456051226,-91.78898377023833z" style="fill:rgb(83,212,212)"/><path d="M55.28608745911474,-72.64552150749601L43.4215527942202,-80.39645088855372L45.903671407365394,-74.74365753319348z" style="fill:rgb(57,36,182)"/><path d="M48.43147024016868,-75.55503446120949L52.91278361086147,13.787373095256862L58.892382559133175,-70.68097894615101z" style="fill:rgb(83,212,212)"/><path d="M-78.89112735465356,28.188499668732902L-50.5907467515834,71.18133120679839L-71.70268017097357,36.260840685021876z" style="fill:rgb(25,53,148)"/><path d="M-27.455445780091353,-9.938249743781936L-25.177592864220614,-39.95825762395542L-26.58399593820533,-42.66838065331485z" style="fill:rgb(247,158,158)"/><path d="M57.81961456051226,-91.78898377023833L64.18565751203923,-79.73041243440058L61.785393012110625,-85.43395312412574z" style="fill:rgb(13,70,126)"/><path d="M52.83435917464634,-78.32736986100355L46.55800819328509,-88.67932056197137L43.4215527942202,-80.39645088855372zM5.641239275218622,-45.15123253211593L-23.778203274055375,-37.261649503434285L5.826602112009706,-12.425268734666217zM-76.67170023681487,-36.80143229519399L-85.87882649447339,12.44898048943822L-74.74825594111492,9.556930964388977z" style="fill:rgb(83,212,212)"/><path d="M-54.920247944996326,13.837023813007036L-62.339731154783564,-0.9441922392740681L-57.93352947893323,8.596995279439222z" style="fill:rgb(240,186,126)"/><path d="M-27.455445780091353,-9.938249743781936L2.9562028124093764,-53.02692000997415L-26.520332750987265,-45.05945610513899zM-56.89860025557574,-46.821179371678596L-62.015768254655185,42.600655058931615L-50.109375663437724,46.91553694575731zM58.892382559133175,-70.68097894615101L71.12867021068837,-10.127279135741402L67.41672944281956,-63.93078590249262zM-76.67170023681487,-36.80143229519399L-90.00669254062751,21.615492289048646L-85.87882649447339,12.44898048943822zM57.81961456051226,-91.78898377023833L52.83435917464634,-78.32736986100355L61.785393012110625,-85.43395312412574z" style="fill:rgb(83,212,212)"/><path d="M64.18565751203923,-79.73041243440058L52.83435917464634,-78.32736986100355L55.28608745911474,-72.64552150749601z" style="fill:rgb(197,72,218)"/><path d="M2.9562028124093764,-53.02692000997415L5.826602112009706,-12.425268734666217L5.627698807569566,-47.54181096856727z" style="fill:rgb(247,158,158)"/><path d="M43.4215527942202,-80.39645088855372L55.28608745911474,-72.64552150749601L52.83435917464634,-78.32736986100355z" style="fill:rgb(57,36,182)"/><path d="M-67.7368787739953,-43.74609981118691L-74.74825594111492,9.556930964388977L-71.85820647957969,16.937109785247134z" style="fill:rgb(83,212,212)"/><path d="M52.83435917464634,-78.32736986100355L64.18565751203923,-79.73041243440058L61.785393012110625,-85.43395312412574z" style="fill:rgb(197,72,218)"/><path d="M61.785393012110625,-85.43395312412574L72.75621162431804,-17.085020788788007L62.561305559124605,-160.57664553337673z" style="fill:rgb(83,212,212)"/><path d="M94.18386336870533,3.2092369245241374L76.1238345852639,-22.451390953930968L92.35799733129522,15.103882786658025z" style="fill:rgb(245,141,174)"/><path d="M-29.336629242353258,82.16314322890842L-62.015768254655185,42.600655058931615L-41.02212752062829,77.66536484591182z" style="fill:rgb(55,36,180)"/><path d="M-79.69533936473074,-42.12270823569443L-89.09021711447303,7.135257316491135L-77.91108274076888,4.213221826793295zM-89.54698134411943,-84.671932704159L-108.13629040671746,52.90694755944119L-100.03224515895526,27.320400159864935z" style="fill:rgb(83,212,212)"/><path d="M94.18386336870533,3.2092369245241374L77.3185790529887,-45.51847097251283L78.18277966642609,-34.390527872268876z" style="fill:rgb(247,158,158)"/><path d="M67.41672944281956,-63.93078590249262L76.1238345852639,-22.451390953930968L73.65668331358029,-55.46603639678815zM-45.3685514086408,-56.02267301781449L-50.109375663437724,46.91553694575731L-36.37300614291949,48.98031177262308zM36.41805670020311,-78.45770598365944L24.74494189048078,-26.086113901090133L40.30969269011494,24.412094717328614zM-79.69533936473074,-42.12270823569443L-93.26206828661847,16.31216755397597L-89.09021711447303,7.135257316491135z" style="fill:rgb(83,212,212)"/><path d="M-23.778203274055375,-37.261649503434285L-26.000808870624315,-7.22400433883647L-24.553662560696644,-4.5237358412880955z" style="fill:rgb(247,158,158)"/><path d="M-70.70914650256219,-49.08855933104191L-77.91108274076888,4.213221826793295L-75.03378984327833,11.58489193311699zM5.826602112009706,-12.425268734666217L-23.778203274055375,-37.261649503434285L-24.553662560696644,-4.5237358412880955z" style="fill:rgb(83,212,212)"/><path d="M-25.177592864220614,-39.95825762395542L-27.455445780091353,-9.938249743781936L-26.000808870624315,-7.22400433883647z" style="fill:rgb(247,158,158)"/><path d="M-100.03224515895526,27.320400159864935L-93.26206828661847,16.31216755397597L-87.91007633415398,-44.37006600403223zM64.18565751203923,-79.73041243440058L75.27570116303094,-11.328109544509509L63.57260570564244,-120.72375524554525z" style="fill:rgb(83,212,212)"/><path d="M-71.70268017097357,36.260840685021876L-41.02212752062829,77.66536484591182L-62.015768254655185,42.600655058931615z" style="fill:rgb(38,43,165)"/><path d="M-71.85820647957969,16.937109785247134L-27.455445780091353,-9.938249743781936L-48.463076749995466,-36.76741668487633zM-34.57816752954881,-10.529544855822735L-36.37300614291949,48.98031177262308L-30.988797342123075,-0.46049843680515434zM-70.70914650256219,-49.08855933104191L46.15829993852723,-19.844759116075917L43.4215527942202,-80.39645088855372zM64.83245454176988,-128.61058743012634L80.87325585575341,5.460817440121323L94.20490831044125,-136.97043023603592z" style="fill:rgb(83,212,212)"/><path d="M76.1238345852639,-22.451390953930968L94.18386336870533,3.2092369245241374L78.18277966642609,-34.390527872268876z" style="fill:rgb(245,141,174)"/><path d="M73.65668331358029,-55.46603639678815L76.1238345852639,-22.451390953930968L77.3185790529887,-45.51847097251283z" style="fill:rgb(83,212,212)"/><path d="M92.35799733129522,15.103882786658025L71.12867021068837,-10.127279135741402L87.68506102713367,27.32304947405467z" style="fill:rgb(239,123,188)"/><path d="M2.9562028124093764,-53.02692000997415L-27.455445780091353,-9.938249743781936L3.061230674284452,-17.92210404647419zM45.903671407365394,-74.74365753319348L52.057937981212156,-23.391051557554796L55.28608745911474,-72.64552150749601z" style="fill:rgb(83,212,212)"/><path d="M-73.54206252091352,44.58587236086983L-58.8189450801328,99.13074231068535L-45.78270022622462,89.9839842399233zM-33.52417155787313,105.52401301640226L-43.792219939690455,119.65360356190207L-30.600507748950925,110.32856006034542z" style="fill:rgb(187,64,221)"/><path d="M5.826602112009706,-12.425268734666217L2.9562028124093764,-53.02692000997415L3.061230674284452,-17.92210404647419z" style="fill:rgb(247,158,158)"/><path d="M-80.28965907316346,4.834940617786495L-85.87882649447339,12.44898048943822L-77.11647232643014,10.17226264385947z" style="fill:rgb(127,37,217)"/><path d="M-36.37300614291949,48.98031177262308L-29.336629242353258,82.16314322890842L-15.918838983420645,84.44641181966465z" style="fill:rgb(74,33,194)"/><path d="M55.28608745911474,-72.64552150749601L63.97846699768367,-26.488356548661038L64.18565751203923,-79.73041243440058zM45.903671407365394,-74.74365753319348L25.410491765947185,-56.69170657175266L48.78136914979297,-14.161806563260518z" style="fill:rgb(83,212,212)"/><path d="M-43.792219939690455,119.65360356190207L-33.52417155787313,105.52401301640226L-46.79066013611324,114.88649502898556z" style="fill:rgb(187,64,221)"/><path d="M-85.87882649447339,12.44898048943822L-80.28965907316346,4.834940617786495L-89.09021711447303,7.135257316491135zM-77.91108274076888,4.213221826793295L-77.11647232643014,10.17226264385947L-74.74825594111492,9.556930964388977z" style="fill:rgb(127,37,217)"/><path d="M2.9633514643812218,-50.6375326017142L48.78136914979297,-14.161806563260518L25.410491765947185,-56.69170657175266z" style="fill:rgb(83,212,212)"/><path d="M-93.26206828661847,16.31216755397597L-85.87882649447339,12.44898048943822L-89.09021711447303,7.135257316491135z" style="fill:rgb(241,128,184)"/><path d="M-77.11647232643014,10.17226264385947L-77.91108274076888,4.213221826793295L-80.28965907316346,4.834940617786495z" style="fill:rgb(127,37,217)"/><path d="M67.41672944281956,-63.93078590249262L71.12867021068837,-10.127279135741402L76.1238345852639,-22.451390953930968z" style="fill:rgb(83,212,212)"/><path d="M-62.015768254655185,42.600655058931615L-29.336629242353258,82.16314322890842L-50.109375663437724,46.91553694575731z" style="fill:rgb(55,36,180)"/><path d="M-85.87882649447339,12.44898048943822L-93.26206828661847,16.31216755397597L-90.00669254062751,21.615492289048646z" style="fill:rgb(241,128,184)"/><path d="M-30.988797342123075,-0.46049843680515434L-21.297474786569477,48.656339409036676L-20.285730725618762,4.9969758510328965z" style="fill:rgb(83,212,212)"/><path d="M-60.56329620722498,47.405514575267055L-45.78270022622462,89.9839842399233L-33.15996116259383,93.06678137017352z" style="fill:rgb(67,34,190)"/><path d="M-58.8189450801328,99.13074231068535L-81.62509840674501,76.96187460760066L-59.46080392551725,111.57363307608445z" style="fill:rgb(247,158,158)"/><path d="M77.3185790529887,-45.51847097251283L76.1238345852639,-22.451390953930968L78.18277966642609,-34.390527872268876z" style="fill:rgb(83,212,212)"/><path d="M-77.91108274076888,4.213221826793295L-71.85820647957969,16.937109785247134L-74.74825594111492,9.556930964388977z" style="fill:rgb(241,184,128)"/><path d="M87.68506102713367,27.32304947405467L63.310087393473005,2.1144886322857737L80.26983809047516,39.403572768290545z" style="fill:rgb(229,106,201)"/><path d="M58.892382559133175,-70.68097894615101L63.310087393473005,2.1144886322857737L71.12867021068837,-10.127279135741402z" style="fill:rgb(83,212,212)"/><path d="M-24.553662560696644,-4.5237358412880955L3.061230674284452,-17.92210404647419L-27.455445780091353,-9.938249743781936z" style="fill:rgb(127,37,217)"/><path d="M71.12867021068837,-10.127279135741402L92.35799733129522,15.103882786658025L76.1238345852639,-22.451390953930968z" style="fill:rgb(239,123,188)"/><path d="M52.83435917464634,-78.32736986100355L61.44814625096973,-32.21291546910398L61.785393012110625,-85.43395312412574zM46.15829993852723,-19.844759116075917L52.83435917464634,-78.32736986100355L43.4215527942202,-80.39645088855372z" style="fill:rgb(83,212,212)"/><path d="M3.061230674284452,-17.92210404647419L-24.553662560696644,-4.5237358412880955L5.826602112009706,-12.425268734666217z" style="fill:rgb(127,37,217)"/><path d="M36.41805670020311,-78.45770598365944L40.30969269011494,24.412094717328614L52.91278361086147,13.787373095256862z" style="fill:rgb(83,212,212)"/><path d="M-84.69869454281621,23.36082774589412L-93.26206828661847,16.31216755397597L-90.00669254062751,21.615492289048646z" style="fill:rgb(57,36,182)"/><path d="M-75.03378984327833,11.58489193311699L56.18927750870633,-17.191411258530938L-70.70914650256219,-49.08855933104191z" style="fill:rgb(83,212,212)"/><path d="M-21.297474786569477,48.656339409036676L-15.918838983420645,84.44641181966465L-1.2487542563824083,84.3713701081304z" style="fill:rgb(94,32,205)"/><path d="M-89.09021711447303,7.135257316491135L-84.5822591927373,19.135623522550873L-77.91108274076888,4.213221826793295zM20.94245114499807,-13.93627353814109L25.98748044727807,33.545341813280736L24.74494189048078,-26.086113901090133zM-90.00669254062751,21.615492289048646L-96.71745113029527,32.605680874003816L-81.34871545709296,24.4623426155964z" style="fill:rgb(83,212,212)"/><path d="M-71.85820647957969,16.937109785247134L-77.91108274076888,4.213221826793295L-75.03378984327833,11.58489193311699z" style="fill:rgb(241,184,128)"/><path d="M-84.5822591927373,19.135623522550873L-89.09021711447303,7.135257316491135L-93.26206828661847,16.31216755397597z" style="fill:rgb(83,212,212)"/><path d="M-29.336629242353258,82.16314322890842L-36.37300614291949,48.98031177262308L-50.109375663437724,46.91553694575731z" style="fill:rgb(74,33,194)"/><path d="M58.892382559133175,-70.68097894615101L52.91278361086147,13.787373095256862L63.310087393473005,2.1144886322857737z" style="fill:rgb(83,212,212)"/><path d="M75.27570116303094,-11.328109544509509L62.561305559124605,-160.57664553337673L72.75621162431804,-17.085020788788007z" style="fill:rgb(247,158,158)"/><path d="M-93.26206828661847,16.31216755397597L-84.69869454281621,23.36082774589412L-87.94076253820583,18.043137410445823z" style="fill:rgb(57,36,182)"/><path d="M3.061230674284452,-17.92210404647419L48.78136914979297,-14.161806563260518L2.9633514643812218,-50.6375326017142z" style="fill:rgb(83,212,212)"/><path d="M-30.269748379868304,97.88264827187358L-61.26088223628625,59.94343664389579L-30.600507748950925,110.32856006034542z" style="fill:rgb(247,158,158)"/><path d="M80.26983809047516,39.403572768290545L52.91278361086147,13.787373095256862L70.34370746206291,50.86653065979926z" style="fill:rgb(216,89,211)"/><path d="M-20.285730725618762,4.9969758510328965L-5.456343707327533,45.90713612995685L-5.246912932934563,4.18391394562638z" style="fill:rgb(83,212,212)"/><path d="M-81.34871545709296,24.4623426155964L-87.94076253820583,18.043137410445823L-84.69869454281621,23.36082774589412z" style="fill:rgb(57,36,182)"/><path d="M-77.91108274076888,4.213221826793295L-84.5822591927373,19.135623522550873L-75.03378984327833,11.58489193311699z" style="fill:rgb(83,212,212)"/><path d="M-71.85820647957969,16.937109785247134L-84.5822591927373,19.135623522550873L-81.34871545709296,24.4623426155964z" style="fill:rgb(197,72,218)"/><path d="M-81.62509840674501,76.96187460760066L-58.8189450801328,99.13074231068535L-80.71155682220116,64.44842848466682zM116.77189181846754,79.6197059628651L115.85592687395591,-79.22296408005244L94.20490831044125,-136.97043023603592z" style="fill:rgb(247,158,158)"/><path d="M9.93565066761358,-2.783437055592979L10.521699800294286,40.807646957268204L20.94245114499807,-13.93627353814109z" style="fill:rgb(83,212,212)"/><path d="M-84.5822591927373,19.135623522550873L-71.85820647957969,16.937109785247134L-75.03378984327833,11.58489193311699z" style="fill:rgb(197,72,218)"/><path d="M-5.456343707327533,45.90713612995685L-1.2487542563824083,84.3713701081304L14.116597751881022,81.89396374452957z" style="fill:rgb(116,34,214)"/><path d="M-75.2402086208462,69.6556286738608L-56.423662992343644,116.3164326344025L-43.792219939690455,119.65360356190207z" style="fill:rgb(67,34,190)"/><path d="M-87.94076253820583,18.043137410445823L-81.34871545709296,24.4623426155964L-84.5822591927373,19.135623522550873z" style="fill:rgb(57,36,182)"/><path d="M-93.26206828661847,16.31216755397597L-100.03224515895526,27.320400159864935L-84.5822591927373,19.135623522550873z" style="fill:rgb(83,212,212)"/><path d="M63.310087393473005,2.1144886322857737L87.68506102713367,27.32304947405467L71.12867021068837,-10.127279135741402z" style="fill:rgb(229,106,201)"/><path d="M-5.246912932934563,4.18391394562638L10.521699800294286,40.807646957268204L9.93565066761358,-2.783437055592979z" style="fill:rgb(83,212,212)"/><path d="M-54.86621771693042,70.45198218551621L-46.79066013611324,114.88649502898556L-33.52417155787313,105.52401301640226zM-58.8189450801328,99.13074231068535L-73.54206252091352,44.58587236086983L-87.26570930118085,54.06534070968163z" style="fill:rgb(187,64,221)"/><path d="M-30.988797342123075,-0.46049843680515434L-36.37300614291949,48.98031177262308L-21.297474786569477,48.656339409036676z" style="fill:rgb(83,212,212)"/><path d="M70.34370746206291,50.86653065979926L40.30969269011494,24.412094717328614L58.261235422323686,61.24317872745038z" style="fill:rgb(199,74,218)"/><path d="M52.057937981212156,-23.391051557554796L45.903671407365394,-74.74365753319348L48.78136914979297,-14.161806563260518z" style="fill:rgb(83,212,212)"/><path d="M-45.78270022622462,89.9839842399233L-60.56329620722498,47.405514575267055L-73.54206252091352,44.58587236086983z" style="fill:rgb(67,34,190)"/><path d="M-142.52125373269635,139.52883599850585L-108.13629040671746,52.90694755944119L-116.3787944172642,-77.03520642756057z" style="fill:rgb(83,212,212)"/><path d="M10.521699800294286,40.807646957268204L14.116597751881022,81.89396374452957L29.569866709523478,77.07924614355127z" style="fill:rgb(138,40,220)"/><path d="M55.28608745911474,-72.64552150749601L52.057937981212156,-23.391051557554796L63.97846699768367,-26.488356548661038z" style="fill:rgb(83,212,212)"/><path d="M40.30969269011494,24.412094717328614L44.48651578936095,70.10275569881713L58.261235422323686,61.24317872745038z" style="fill:rgb(180,60,221)"/><path d="M-15.918838983420645,84.44641181966465L-21.297474786569477,48.656339409036676L-36.37300614291949,48.98031177262308z" style="fill:rgb(94,32,205)"/><path d="M-70.70914650256219,-49.08855933104191L56.18927750870633,-17.191411258530938L46.15829993852723,-19.844759116075917z" style="fill:rgb(83,212,212)"/><path d="M25.98748044727807,33.545341813280736L29.569866709523478,77.07924614355127L44.48651578936095,70.10275569881713z" style="fill:rgb(160,49,222)"/><path d="M64.18565751203923,-79.73041243440058L63.97846699768367,-26.488356548661038L68.22855945275234,-19.1749758454186z" style="fill:rgb(83,212,212)"/><path d="M-80.98116588631542,36.65145027203136L-66.3012737102455,29.867580097074207L-82.60253647213526,34.01095306709377zM-66.3012737102455,29.867580097074207L-80.98116588631542,36.65145027203136L-64.71615018589623,32.5298110279806z" style="fill:rgb(127,37,217)"/><path d="M-27.455445780091353,-9.938249743781936L58.777750900453924,-11.480494868482795L3.061230674284452,-17.92210404647419z" style="fill:rgb(83,212,212)"/><path d="M52.91278361086147,13.787373095256862L80.26983809047516,39.403572768290545L63.310087393473005,2.1144886322857737z" style="fill:rgb(216,89,211)"/><path d="M-80.98116588631542,36.65145027203136L-100.19174049405294,39.192159296705476L-95.17417347271551,47.096801846306505z" style="fill:rgb(192,68,220)"/><path d="M52.83435917464634,-78.32736986100355L49.47128690696061,-29.082367136598236L61.44814625096973,-32.21291546910398zM-20.285730725618762,4.9969758510328965L-21.297474786569477,48.656339409036676L-5.456343707327533,45.90713612995685zM-80.98116588631542,36.65145027203136L-73.54206252091352,44.58587236086983L-64.71615018589623,32.5298110279806zM-71.85820647957969,16.937109785247134L75.27570116303094,-11.328109544509509L-27.455445780091353,-9.938249743781936zM-95.17417347271551,47.096801846306505L-87.26570930118085,54.06534070968163L-80.98116588631542,36.65145027203136zM-100.03224515895526,27.320400159864935L-100.19174049405294,39.192159296705476L-85.87097524969558,28.688110571246433zM24.74494189048078,-26.086113901090133L25.98748044727807,33.545341813280736L40.30969269011494,24.412094717328614z" style="fill:rgb(83,212,212)"/><path d="M-100.19174049405294,39.192159296705476L-80.98116588631542,36.65145027203136L-85.87097524969558,28.688110571246433z" style="fill:rgb(192,68,220)"/><path d="M-1.2487542563824083,84.3713701081304L-5.456343707327533,45.90713612995685L-21.297474786569477,48.656339409036676z" style="fill:rgb(116,34,214)"/><path d="M52.83435917464634,-78.32736986100355L46.15829993852723,-19.844759116075917L49.47128690696061,-29.082367136598236z" style="fill:rgb(83,212,212)"/><path d="M-69.49674773926228,24.500749267628947L-82.60253647213526,34.01095306709377L-66.3012737102455,29.867580097074207z" style="fill:rgb(127,37,217)"/><path d="M-61.26088223628625,59.94343664389579L-30.269748379868304,97.88264827187358L-60.56329620722498,47.405514575267055z" style="fill:rgb(247,158,158)"/><path d="M-82.60253647213526,34.01095306709377L-69.49674773926228,24.500749267628947L-85.87097524969558,28.688110571246433z" style="fill:rgb(127,37,217)"/><path d="M-81.34871545709296,24.4623426155964L75.27570116303094,-11.328109544509509L-71.85820647957969,16.937109785247134z" style="fill:rgb(83,212,212)"/><path d="M-104.7089464534841,58.166806567420196L-95.17417347271551,47.096801846306505L-96.83787942863181,44.475810271458464z" style="fill:rgb(236,118,193)"/><path d="M61.785393012110625,-85.43395312412574L61.44814625096973,-32.21291546910398L65.69815769564279,-24.91217747593624zM-80.98116588631542,36.65145027203136L-87.26570930118085,54.06534070968163L-73.54206252091352,44.58587236086983zM-81.34871545709296,24.4623426155964L-96.71745113029527,32.605680874003816L75.27570116303094,-11.328109544509509z" style="fill:rgb(83,212,212)"/><path d="M40.30969269011494,24.412094717328614L70.34370746206291,50.86653065979926L52.91278361086147,13.787373095256862z" style="fill:rgb(199,74,218)"/><path d="M65.70876266793343,87.99638165185513L77.39562253910135,86.11515185214095L63.22350011702804,82.95800231225464z" style="fill:rgb(67,34,190)"/><path d="M20.94245114499807,-13.93627353814109L10.521699800294286,40.807646957268204L25.98748044727807,33.545341813280736zM68.22855945275234,-19.1749758454186L75.27570116303094,-11.328109544509509L64.18565751203923,-79.73041243440058zM-5.246912932934563,4.18391394562638L-5.456343707327533,45.90713612995685L10.521699800294286,40.807646957268204z" style="fill:rgb(83,212,212)"/><path d="M-51.263038715028934,36.045599779459245L-69.49674773926228,24.500749267628947L-64.71615018589623,32.5298110279806z" style="fill:rgb(62,34,186)"/><path d="M-95.17417347271551,47.096801846306505L-104.7089464534841,58.166806567420196L-103.00891424964675,60.77580345341186z" style="fill:rgb(236,118,193)"/><path d="M-100.19174049405294,39.192159296705476L-100.03224515895526,27.320400159864935L-108.13629040671746,52.90694755944119z" style="fill:rgb(83,212,212)"/><path d="M-84.92682688661856,71.80589514330347L-80.71155682220116,64.44842848466682L-83.97130905183094,59.28432303454214z" style="fill:rgb(247,158,158)"/><path d="M-46.79066013611324,114.88649502898556L-54.86621771693042,70.45198218551621L-68.68064860377008,80.08442900946592z" style="fill:rgb(187,64,221)"/><path d="M77.39562253910135,86.11515185214095L65.70876266793343,87.99638165185513L79.82806321593254,91.18207344538278z" style="fill:rgb(67,34,190)"/><path d="M14.116597751881022,81.89396374452957L10.521699800294286,40.807646957268204L-5.456343707327533,45.90713612995685z" style="fill:rgb(138,40,220)"/><path d="M-56.423662992343644,116.3164326344025L-75.2402086208462,69.6556286738608L-88.26405127654041,66.59449859496259z" style="fill:rgb(67,34,190)"/><path d="M53.01356868298396,12.828801651727705L62.520257477156974,70.45478734339552L75.6777561811632,61.09521390804179z" style="fill:rgb(187,64,221)"/><path d="M-64.71615018589623,32.5298110279806L-73.54206252091352,44.58587236086983L-60.56329620722498,47.405514575267055z" style="fill:rgb(83,212,212)"/><path d="M90.78638708853816,76.52906375972314L79.82806321593254,91.18207344538278L93.1423972858986,81.63507216376009z" style="fill:rgb(187,64,221)"/><path d="M-96.71745113029527,32.605680874003816L72.75621162431804,-17.085020788788007L-100.03224515895526,27.320400159864935z" style="fill:rgb(127,37,217)"/><path d="M-108.13629040671746,52.90694755944119L-96.83787942863181,44.475810271458464L-100.19174049405294,39.192159296705476z" style="fill:rgb(236,118,193)"/><path d="M-80.71155682220116,64.44842848466682L-84.92682688661856,71.80589514330347L-81.62509840674501,76.96187460760066z" style="fill:rgb(247,158,158)"/><path d="M44.48651578936095,70.10275569881713L40.30969269011494,24.412094717328614L25.98748044727807,33.545341813280736z" style="fill:rgb(180,60,221)"/><path d="M29.569866709523478,77.07924614355127L25.98748044727807,33.545341813280736L10.521699800294286,40.807646957268204z" style="fill:rgb(160,49,222)"/><path d="M-64.71615018589623,32.5298110279806L-60.56329620722498,47.405514575267055L-51.263038715028934,36.045599779459245zM-84.5822591927373,19.135623522550873L72.75621162431804,-17.085020788788007L-75.03378984327833,11.58489193311699zM-101.90732168203199,73.54875535934872L-95.17417347271551,47.096801846306505L-103.00891424964675,60.77580345341186z" style="fill:rgb(83,212,212)"/><path d="M-96.83787942863181,44.475810271458464L-108.13629040671746,52.90694755944119L-104.7089464534841,58.166806567420196z" style="fill:rgb(236,118,193)"/><path d="M-84.5822591927373,19.135623522550873L-100.03224515895526,27.320400159864935L72.75621162431804,-17.085020788788007z" style="fill:rgb(83,212,212)"/><path d="M-86.59096362310473,69.2071798654169L-83.97130905183094,59.28432303454214L-85.61414077731857,56.681746007332976z" style="fill:rgb(247,158,158)"/><path d="M72.75621162431804,-17.085020788788007L80.87325585575341,5.460817440121323L64.83245454176988,-128.61058743012634z" style="fill:rgb(83,212,212)"/><path d="M79.82806321593254,91.18207344538278L90.78638708853816,76.52906375972314L77.39562253910135,86.11515185214095z" style="fill:rgb(187,64,221)"/><path d="M65.69815769564279,-24.91217747593624L72.75621162431804,-17.085020788788007L61.785393012110625,-85.43395312412574zM3.061230674284452,-17.92210404647419L58.777750900453924,-11.480494868482795L48.78136914979297,-14.161806563260518z" style="fill:rgb(83,212,212)"/><path d="M-69.49674773926228,24.500749267628947L-51.263038715028934,36.045599779459245L-55.983860655543985,27.963578121448766z" style="fill:rgb(62,34,186)"/><path d="M-88.26405127654041,66.59449859496259L-85.61414077731857,56.681746007332976L-87.26570930118085,54.06534070968163z" style="fill:rgb(247,158,158)"/><path d="M-100.03224515895526,27.320400159864935L-85.87097524969558,28.688110571246433L72.75621162431804,-17.085020788788007z" style="fill:rgb(83,212,212)"/><path d="M-83.97130905183094,59.28432303454214L-86.59096362310473,69.2071798654169L-84.92682688661856,71.80589514330347zM39.15286366997551,22.53538447309663L63.22350011702804,82.95800231225464L62.520257477156974,70.45478734339552z" style="fill:rgb(247,158,158)"/><path d="M67.59384327882005,15.441942989459516L75.6777561811632,61.09521390804179L89.76986228106233,64.01491573865115z" style="fill:rgb(67,34,190)"/><path d="M-104.7089464534841,58.166806567420196L-101.90732168203199,73.54875535934872L-103.00891424964675,60.77580345341186z" style="fill:rgb(246,170,145)"/><path d="M61.44814625096973,-32.21291546910398L52.057937981212156,-23.391051557554796L63.97846699768367,-26.488356548661038z" style="fill:rgb(127,37,217)"/><path d="M-27.455445780091353,-9.938249743781936L75.27570116303094,-11.328109544509509L58.777750900453924,-11.480494868482795zM-95.17417347271551,47.096801846306505L-91.91269991848888,81.30407799384407L-87.26570930118085,54.06534070968163z" style="fill:rgb(83,212,212)"/><path d="M52.057937981212156,-23.391051557554796L61.44814625096973,-32.21291546910398L49.47128690696061,-29.082367136598236z" style="fill:rgb(127,37,217)"/><path d="M-85.61414077731857,56.681746007332976L-88.26405127654041,66.59449859496259L-86.59096362310473,69.2071798654169z" style="fill:rgb(247,158,158)"/><path d="M-87.26570930118085,54.06534070968163L-75.2402086208462,69.6556286738608L-73.54206252091352,44.58587236086983z" style="fill:rgb(83,212,212)"/><path d="M46.15829993852723,-19.844759116075917L52.057937981212156,-23.391051557554796L49.47128690696061,-29.082367136598236zM52.057937981212156,-23.391051557554796L46.15829993852723,-19.844759116075917L48.78136914979297,-14.161806563260518z" style="fill:rgb(241,128,184)"/><path d="M72.75621162431804,-17.085020788788007L-85.87097524969558,28.688110571246433L-69.49674773926228,24.500749267628947z" style="fill:rgb(83,212,212)"/><path d="M-108.13629040671746,52.90694755944119L-103.62606585179394,70.9408987977862L-104.7089464534841,58.166806567420196z" style="fill:rgb(246,170,145)"/><path d="M-44.87084846679161,46.31667791854416L-55.983860655543985,27.963578121448766L-51.263038715028934,36.045599779459245z" style="fill:rgb(18,62,136)"/><path d="M-95.17417347271551,47.096801846306505L-101.90732168203199,73.54875535934872L-91.91269991848888,81.30407799384407z" style="fill:rgb(83,212,212)"/><path d="M68.22855945275234,-19.1749758454186L61.44814625096973,-32.21291546910398L63.97846699768367,-26.488356548661038z" style="fill:rgb(13,70,126)"/><path d="M-73.54206252091352,44.58587236086983L-75.2402086208462,69.6556286738608L-60.56329620722498,47.405514575267055z" style="fill:rgb(83,212,212)"/><path d="M-101.90732168203199,73.54875535934872L-104.7089464534841,58.166806567420196L-103.62606585179394,70.9408987977862z" style="fill:rgb(246,170,145)"/><path d="M-58.04634312309828,65.22598796834663L-68.68064860377008,80.08442900946592L-54.86621771693042,70.45198218551621z" style="fill:rgb(187,64,221)"/><path d="M92.10494923243203,69.12952894593657L68.39773943104085,28.007639321743962L93.1423972858986,81.63507216376009z" style="fill:rgb(247,158,158)"/><path d="M-75.2402086208462,69.6556286738608L-87.26570930118085,54.06534070968163L-88.26405127654041,66.59449859496259zM-75.03378984327833,11.58489193311699L72.75621162431804,-17.085020788788007L56.18927750870633,-17.191411258530938z" style="fill:rgb(83,212,212)"/><path d="M72.75621162431804,-17.085020788788007L-96.71745113029527,32.605680874003816L75.27570116303094,-11.328109544509509z" style="fill:rgb(127,37,217)"/><path d="M-109.53971011709193,61.96811212806382L-102.56067336276018,35.460160321396025L-110.55733017682434,49.19144086529972zM-87.26570930118085,54.06534070968163L-91.91269991848888,81.30407799384407L-88.26405127654041,66.59449859496259zM-102.56067336276018,35.460160321396025L-99.51785516190692,69.67501677550719L-88.17950857796538,24.928531079373467zM49.47128690696061,-29.082367136598236L56.18927750870633,-17.191411258530938L61.44814625096973,-32.21291546910398zM72.75621162431804,-17.085020788788007L-69.49674773926228,24.500749267628947L-55.983860655543985,27.963578121448766z" style="fill:rgb(83,212,212)"/><path d="M58.777750900453924,-11.480494868482795L46.15829993852723,-19.844759116075917L48.78136914979297,-14.161806563260518z" style="fill:rgb(57,36,182)"/><path d="M-68.68064860377008,80.08442900946592L-58.04634312309828,65.22598796834663L-71.94273673634166,74.89815649680125z" style="fill:rgb(187,64,221)"/><path d="M-51.263038715028934,36.045599779459245L-47.83988448904135,60.28084039564587L-44.87084846679161,46.31667791854416z" style="fill:rgb(83,212,212)"/><path d="M61.44814625096973,-32.21291546910398L68.22855945275234,-19.1749758454186L65.69815769564279,-24.91217747593624z" style="fill:rgb(13,70,126)"/><path d="M-51.263038715028934,36.045599779459245L-60.56329620722498,47.405514575267055L-59.482117737997086,73.42946538805934zM56.18927750870633,-17.191411258530938L49.47128690696061,-29.082367136598236L46.15829993852723,-19.844759116075917z" style="fill:rgb(83,212,212)"/><path d="M59.61411671821412,49.07521302970017L63.22350011702804,82.95800231225464L77.39562253910135,86.11515185214095z" style="fill:rgb(67,34,190)"/><path d="M-103.62606585179394,70.9408987977862L-108.13629040671746,52.90694755944119L-107.09148761700212,65.68280623866015z" style="fill:rgb(246,170,145)"/><path d="M-55.983860655543985,27.963578121448766L-44.87084846679161,46.31667791854416L-49.60104336811036,38.21313498419035z" style="fill:rgb(18,62,136)"/><path d="M-88.17950857796538,24.928531079373467L-83.50018694953278,69.60016428837166L-71.75382900038032,20.70996122057526z" style="fill:rgb(83,212,212)"/><path d="M73.56541739834479,39.20719583839612L77.39562253910135,86.11515185214095L90.78638708853816,76.52906375972314zM62.520257477156974,70.45478734339552L53.01356868298396,12.828801651727705L39.15286366997551,22.53538447309663z" style="fill:rgb(187,64,221)"/><path d="M-60.56329620722498,47.405514575267055L-75.2402086208462,69.6556286738608L-61.26088223628625,59.94343664389579z" style="fill:rgb(83,212,212)"/><path d="M-61.26088223628625,59.94343664389579L-71.94273673634166,74.89815649680125L-58.04634312309828,65.22598796834663z" style="fill:rgb(187,64,221)"/><path d="M61.44814625096973,-32.21291546910398L56.18927750870633,-17.191411258530938L65.69815769564279,-24.91217747593624z" style="fill:rgb(83,212,212)"/><path d="M68.22855945275234,-19.1749758454186L56.18927750870633,-17.191411258530938L58.777750900453924,-11.480494868482795z" style="fill:rgb(197,72,218)"/><path d="M46.15829993852723,-19.844759116075917L58.777750900453924,-11.480494868482795L56.18927750870633,-17.191411258530938z" style="fill:rgb(57,36,182)"/><path d="M75.6777561811632,61.09521390804179L67.59384327882005,15.441942989459516L53.01356868298396,12.828801651727705z" style="fill:rgb(67,34,190)"/><path d="M56.18927750870633,-17.191411258530938L68.22855945275234,-19.1749758454186L65.69815769564279,-24.91217747593624z" style="fill:rgb(197,72,218)"/><path d="M58.777750900453924,-11.480494868482795L75.27570116303094,-11.328109544509509L68.22855945275234,-19.1749758454186z" style="fill:rgb(83,212,212)"/><path d="M-71.94273673634166,74.89815649680125L-61.26088223628625,59.94343664389579L-75.2402086208462,69.6556286738608z" style="fill:rgb(187,64,221)"/><path d="M39.850619177080084,-3.4625191578217653L-55.983860655543985,27.963578121448766L-49.60104336811036,38.21313498419035zM-61.26088223628625,59.94343664389579L-59.482117737997086,73.42946538805934L-60.56329620722498,47.405514575267055zM-51.263038715028934,36.045599779459245L-59.482117737997086,73.42946538805934L-47.83988448904135,60.28084039564587z" style="fill:rgb(83,212,212)"/><path d="M-91.91269991848888,81.30407799384407L-109.53971011709193,61.96811212806382L-101.90732168203199,73.54875535934872z" style="fill:rgb(36,45,163)"/><path d="M-71.75382900038032,20.70996122057526L-66.7543848871821,61.60771361152884L-58.21298182120252,24.147337258579974zM-102.56067336276018,35.460160321396025L-109.53971011709193,61.96811212806382L-99.51785516190692,69.67501677550719z" style="fill:rgb(83,212,212)"/><path d="M28.24687179909074,12.899214418579513L43.87479704088144,5.012290021925108L42.54067645008458,2.202668369352893zM43.87479704088144,5.012290021925108L28.24687179909074,12.899214418579513L29.62392725241709,15.6886150457285z" style="fill:rgb(192,68,220)"/><path d="M43.87479704088144,5.012290021925108L59.889727485542096,-2.2070280121361217L42.54067645008458,2.202668369352893z" style="fill:rgb(127,37,217)"/><path d="M72.75621162431804,-17.085020788788007L-55.983860655543985,27.963578121448766L39.850619177080084,-3.4625191578217653zM-88.26405127654041,66.59449859496259L-76.03022829755771,81.31870099632482L-75.2402086208462,69.6556286738608z" style="fill:rgb(83,212,212)"/><path d="M59.889727485542096,-2.2070280121361217L43.87479704088144,5.012290021925108L61.182395028151355,0.6264531636734886z" style="fill:rgb(127,37,217)"/><path d="M-76.03022829755771,81.31870099632482L-88.26405127654041,66.59449859496259L-91.91269991848888,81.30407799384407zM56.18927750870633,-17.191411258530938L72.75621162431804,-17.085020788788007L65.69815769564279,-24.91217747593624zM43.87479704088144,5.012290021925108L53.01356868298396,12.828801651727705L61.182395028151355,0.6264531636734886z" style="fill:rgb(83,212,212)"/><path d="M63.22350011702804,82.95800231225464L59.61411671821412,49.07521302970017L45.06303036915929,46.14124247425397z" style="fill:rgb(67,34,190)"/><path d="M29.62392725241709,15.6886150457285L39.15286366997551,22.53538447309663L43.87479704088144,5.012290021925108z" style="fill:rgb(83,212,212)"/><path d="M63.22350011702804,82.95800231225464L39.15286366997551,22.53538447309663L39.61525310317052,35.09696186670669z" style="fill:rgb(247,158,158)"/><path d="M-75.2402086208462,69.6556286738608L-76.03022829755771,81.31870099632482L-61.26088223628625,59.94343664389579z" style="fill:rgb(83,212,212)"/><path d="M42.54067645008458,2.202668369352893L25.470175810752057,7.274655936506643L28.24687179909074,12.899214418579513z" style="fill:rgb(192,68,220)"/><path d="M57.283163989419066,-7.920522347686197L42.54067645008458,2.202668369352893L59.889727485542096,-2.2070280121361217z" style="fill:rgb(127,37,217)"/><path d="M25.470175810752057,7.274655936506643L42.54067645008458,2.202668369352893L39.850619177080084,-3.4625191578217653z" style="fill:rgb(192,68,220)"/><path d="M68.39773943104085,28.007639321743962L92.10494923243203,69.12952894593657L67.59384327882005,15.441942989459516z" style="fill:rgb(247,158,158)"/><path d="M-58.21298182120252,24.147337258579974L-54.922338374432535,48.37859969743317L-51.834931607850024,34.386147631947324z" style="fill:rgb(83,212,212)"/><path d="M-44.87084846679161,46.31667791854416L-54.922338374432535,48.37859969743317L-47.83988448904135,60.28084039564587z" style="fill:rgb(246,145,170)"/><path d="M42.54067645008458,2.202668369352893L57.283163989419066,-7.920522347686197L39.850619177080084,-3.4625191578217653z" style="fill:rgb(127,37,217)"/><path d="M-54.922338374432535,48.37859969743317L-44.87084846679161,46.31667791854416L-51.834931607850024,34.386147631947324z" style="fill:rgb(246,145,170)"/><path d="M39.850619177080084,-3.4625191578217653L-49.60104336811036,38.21313498419035L25.470175810752057,7.274655936506643zM-88.17950857796538,24.928531079373467L-99.51785516190692,69.67501677550719L-83.50018694953278,69.60016428837166z" style="fill:rgb(83,212,212)"/><path d="M76.36904259461313,3.924178434721466L59.889727485542096,-2.2070280121361217L61.182395028151355,0.6264531636734886z" style="fill:rgb(62,34,186)"/><path d="M43.87479704088144,5.012290021925108L39.15286366997551,22.53538447309663L53.01356868298396,12.828801651727705zM-61.26088223628625,59.94343664389579L-76.03022829755771,81.31870099632482L-59.482117737997086,73.42946538805934z" style="fill:rgb(83,212,212)"/><path d="M-109.53971011709193,61.96811212806382L-91.91269991848888,81.30407799384407L-99.51785516190692,69.67501677550719z" style="fill:rgb(36,45,163)"/><path d="M72.75621162431804,-17.085020788788007L39.850619177080084,-3.4625191578217653L57.283163989419066,-7.920522347686197z" style="fill:rgb(83,212,212)"/><path d="M77.39562253910135,86.11515185214095L73.56541739834479,39.20719583839612L59.61411671821412,49.07521302970017z" style="fill:rgb(187,64,221)"/><path d="M18.483813242270333,21.122129312713124L29.62392725241709,15.6886150457285L25.470175810752057,7.274655936506643z" style="fill:rgb(236,118,193)"/><path d="M25.470175810752057,7.274655936506643L-49.60104336811036,38.21313498419035L18.483813242270333,21.122129312713124z" style="fill:rgb(83,212,212)"/><path d="M75.10472114137076,1.0703440641894657L57.283163989419066,-7.920522347686197L59.889727485542096,-2.2070280121361217z" style="fill:rgb(62,34,186)"/><path d="M29.62392725241709,15.6886150457285L18.483813242270333,21.122129312713124L22.734731474058734,29.50294938945068z" style="fill:rgb(236,118,193)"/><path d="M61.182395028151355,0.6264531636734886L53.01356868298396,12.828801651727705L67.59384327882005,15.441942989459516zM-71.75382900038032,20.70996122057526L-83.50018694953278,69.60016428837166L-66.7543848871821,61.60771361152884z" style="fill:rgb(83,212,212)"/><path d="M59.889727485542096,-2.2070280121361217L76.36904259461313,3.924178434721466L75.10472114137076,1.0703440641894657z" style="fill:rgb(62,34,186)"/><path d="M61.182395028151355,0.6264531636734886L67.59384327882005,15.441942989459516L76.36904259461313,3.924178434721466zM-58.21298182120252,24.147337258579974L-66.7543848871821,61.60771361152884L-54.922338374432535,48.37859969743317zM25.522824908795577,42.27794793057383L29.62392725241709,15.6886150457285L22.734731474058734,29.50294938945068z" style="fill:rgb(83,212,212)"/><path d="M-83.50018694953278,69.60016428837166L-91.91269991848888,81.30407799384407L-76.03022829755771,81.31870099632482z" style="fill:rgb(93,32,205)"/><path d="M115.85592687395591,-79.22296408005244L116.77189181846754,79.6197059628651L141.94329689887084,137.36739480638948z" style="fill:rgb(247,158,158)"/><path d="M-108.13629040671746,52.90694755944119L-142.52125373269635,139.52883599850585L-107.09148761700212,65.68280623866015zM72.75621162431804,-17.085020788788007L57.283163989419066,-7.920522347686197L72.55509026418632,-4.684680388997884z" style="fill:rgb(83,212,212)"/><path d="M-47.83988448904135,60.28084039564587L-66.7543848871821,61.60771361152884L-59.482117737997086,73.42946538805934z" style="fill:rgb(218,91,209)"/><path d="M-91.91269991848888,81.30407799384407L-83.50018694953278,69.60016428837166L-99.51785516190692,69.67501677550719z" style="fill:rgb(93,32,205)"/><path d="M57.283163989419066,-7.920522347686197L75.10472114137076,1.0703440641894657L72.55509026418632,-4.684680388997884z" style="fill:rgb(62,34,186)"/><path d="M-66.7543848871821,61.60771361152884L-47.83988448904135,60.28084039564587L-54.922338374432535,48.37859969743317z" style="fill:rgb(218,91,209)"/><path d="M21.325539281349997,26.72468095231492L25.522824908795577,42.27794793057383L22.734731474058734,29.50294938945068z" style="fill:rgb(246,170,145)"/><path d="M-66.7543848871821,61.60771361152884L-76.03022829755771,81.31870099632482L-59.482117737997086,73.42946538805934z" style="fill:rgb(161,49,222)"/><path d="M29.62392725241709,15.6886150457285L37.44247356267041,49.89477609369566L39.15286366997551,22.53538447309663zM-49.60104336811036,38.21313498419035L21.239021773283685,33.89336424577539L18.483813242270333,21.122129312713124z" style="fill:rgb(83,212,212)"/><path d="M84.66865652546949,14.099780517630114L75.10472114137076,1.0703440641894657L76.36904259461313,3.924178434721466z" style="fill:rgb(18,62,136)"/><path d="M39.15286366997551,22.53538447309663L54.27761861651745,37.958963720306926L53.01356868298396,12.828801651727705z" style="fill:rgb(83,212,212)"/><path d="M45.06303036915929,46.14124247425397L56.960727608243005,43.54804253339846L42.35416763789602,40.64956630382111z" style="fill:rgb(67,34,190)"/><path d="M18.483813242270333,21.122129312713124L24.102834494876817,39.49863387478302L21.325539281349997,26.72468095231492z" style="fill:rgb(246,170,145)"/><path d="M53.01356868298396,12.828801651727705L68.39773943104085,28.007639321743962L67.59384327882005,15.441942989459516z" style="fill:rgb(83,212,212)"/><path d="M-76.03022829755771,81.31870099632482L-66.7543848871821,61.60771361152884L-83.50018694953278,69.60016428837166z" style="fill:rgb(161,49,222)"/><path d="M29.62392725241709,15.6886150457285L25.522824908795577,42.27794793057383L37.44247356267041,49.89477609369566z" style="fill:rgb(83,212,212)"/><path d="M56.960727608243005,43.54804253339846L45.06303036915929,46.14124247425397L59.61411671821412,49.07521302970017z" style="fill:rgb(67,34,190)"/><path d="M94.20490831044125,-136.97043023603592L80.87325585575341,5.460817440121323L116.77189181846754,79.6197059628651z" style="fill:rgb(83,212,212)"/><path d="M25.522824908795577,42.27794793057383L21.325539281349997,26.72468095231492L24.102834494876817,39.49863387478302z" style="fill:rgb(246,170,145)"/><path d="M72.75621162431804,-17.085020788788007L72.55509026418632,-4.684680388997884L80.87325585575341,5.460817440121323zM-107.09148761700212,65.68280623866015L-142.52125373269635,139.52883599850585L-97.07813560778578,73.40560865213376z" style="fill:rgb(83,212,212)"/><path d="M83.41057518167568,11.236177993906214L72.55509026418632,-4.684680388997884L75.10472114137076,1.0703440641894657z" style="fill:rgb(18,62,136)"/><path d="M70.99593564259588,33.63852956101647L59.61411671821412,49.07521302970017L73.56541739834479,39.20719583839612z" style="fill:rgb(187,64,221)"/><path d="M54.27761861651745,37.958963720306926L39.15286366997551,22.53538447309663L39.61525310317052,35.09696186670669z" style="fill:rgb(83,212,212)"/><path d="M75.10472114137076,1.0703440641894657L84.66865652546949,14.099780517630114L83.41057518167568,11.236177993906214z" style="fill:rgb(18,62,136)"/><path d="M19.215216195764697,29.93221607441277L23.508349857394514,3.300725904802264L16.475865025817996,17.16339405194343zM39.15286366997551,22.53538447309663L37.44247356267041,49.89477609369566L39.61525310317052,35.09696186670669zM23.508349857394514,3.300725904802264L31.203909688620588,37.487579044734055L37.950061676047824,-7.465038005285445zM53.01356868298396,12.828801651727705L54.27761861651745,37.958963720306926L68.39773943104085,28.007639321743962z" style="fill:rgb(83,212,212)"/><path d="M59.61411671821412,49.07521302970017L70.99593564259588,33.63852956101647L56.960727608243005,43.54804253339846z" style="fill:rgb(187,64,221)"/><path d="M42.35416763789602,40.64956630382111L54.27761861651745,37.958963720306926L39.61525310317052,35.09696186670669z" style="fill:rgb(67,34,190)"/><path d="M76.36904259461313,3.924178434721466L83.16551896334539,28.132678810507546L84.66865652546949,14.099780517630114zM76.36904259461313,3.924178434721466L67.59384327882005,15.441942989459516L72.03866228168067,41.49432402928501z" style="fill:rgb(83,212,212)"/><path d="M24.102834494876817,39.49863387478302L18.483813242270333,21.122129312713124L21.239021773283685,33.89336424577539z" style="fill:rgb(246,170,145)"/><path d="M54.27761861651745,37.958963720306926L42.35416763789602,40.64956630382111L56.960727608243005,43.54804253339846z" style="fill:rgb(67,34,190)"/><path d="M-49.60104336811036,38.21313498419035L33.20577343434414,41.468867373447246L21.239021773283685,33.89336424577539zM37.950061676047824,-7.465038005285445L48.79779132145428,37.1537836259747L55.441523095843266,-11.9573306778452z" style="fill:rgb(83,212,212)"/><path d="M72.55509026418632,-4.684680388997884L83.41057518167568,11.236177993906214L80.87325585575341,5.460817440121323z" style="fill:rgb(18,62,136)"/><path d="M68.39773943104085,28.007639321743962L56.960727608243005,43.54804253339846L70.99593564259588,33.63852956101647zM56.960727608243005,43.54804253339846L68.39773943104085,28.007639321743962L54.27761861651745,37.958963720306926z" style="fill:rgb(187,64,221)"/><path d="M68.39773943104085,28.007639321743962L72.03866228168067,41.49432402928501L67.59384327882005,15.441942989459516zM76.36904259461313,3.924178434721466L72.03866228168067,41.49432402928501L83.16551896334539,28.132678810507546z" style="fill:rgb(83,212,212)"/><path d="M37.44247356267041,49.89477609369566L19.215216195764697,29.93221607441277L25.522824908795577,42.27794793057383z" style="fill:rgb(36,45,163)"/><path d="M55.441523095843266,-11.9573306778452L66.18315444370465,28.874688992712674L70.75351382594611,-8.751225111686242zM23.508349857394514,3.300725904802264L19.215216195764697,29.93221607441277L31.203909688620588,37.487579044734055zM39.61525310317052,35.09696186670669L54.866320456075094,49.662757532535956L54.27761861651745,37.958963720306926zM54.866320456075094,49.662757532535956L39.61525310317052,35.09696186670669L37.44247356267041,49.89477609369566zM54.27761861651745,37.958963720306926L54.866320456075094,49.662757532535956L68.39773943104085,28.007639321743962zM70.75351382594611,-8.751225111686242L77.48988128778882,15.432725274871995L79.08013857710229,1.379387781365463z" style="fill:rgb(83,212,212)"/><path d="M84.66865652546949,14.099780517630114L77.48988128778882,15.432725274871995L83.16551896334539,28.132678810507546zM77.48988128778882,15.432725274871995L84.66865652546949,14.099780517630114L79.08013857710229,1.379387781365463z" style="fill:rgb(246,145,170)"/><path d="M37.950061676047824,-7.465038005285445L31.203909688620588,37.487579044734055L48.79779132145428,37.1537836259747zM68.39773943104085,28.007639321743962L54.866320456075094,49.662757532535956L72.03866228168067,41.49432402928501z" style="fill:rgb(83,212,212)"/><path d="M19.215216195764697,29.93221607441277L37.44247356267041,49.89477609369566L31.203909688620588,37.487579044734055z" style="fill:rgb(36,45,163)"/><path d="M55.441523095843266,-11.9573306778452L48.79779132145428,37.1537836259747L66.18315444370465,28.874688992712674zM70.75351382594611,-8.751225111686242L66.18315444370465,28.874688992712674L77.48988128778882,15.432725274871995zM-52.650263865482444,52.19687579259466L116.77189181846754,79.6197059628651L-49.60104336811036,38.21313498419035z" style="fill:rgb(83,212,212)"/><path d="M48.79779132145428,37.1537836259747L37.44247356267041,49.89477609369566L54.866320456075094,49.662757532535956z" style="fill:rgb(93,32,205)"/><path d="M83.16551896334539,28.132678810507546L66.18315444370465,28.874688992712674L72.03866228168067,41.49432402928501z" style="fill:rgb(218,91,209)"/><path d="M37.44247356267041,49.89477609369566L48.79779132145428,37.1537836259747L31.203909688620588,37.487579044734055z" style="fill:rgb(93,32,205)"/><path d="M66.18315444370465,28.874688992712674L83.16551896334539,28.132678810507546L77.48988128778882,15.432725274871995z" style="fill:rgb(218,91,209)"/><path d="M66.18315444370465,28.874688992712674L54.866320456075094,49.662757532535956L72.03866228168067,41.49432402928501z" style="fill:rgb(161,49,222)"/><path d="M-97.07813560778578,73.40560865213376L116.77189181846754,79.6197059628651L-81.10367997995812,73.35969254943434zM-64.42128993219004,65.4003762764827L116.77189181846754,79.6197059628651L-52.650263865482444,52.19687579259466z" style="fill:rgb(83,212,212)"/><path d="M54.866320456075094,49.662757532535956L66.18315444370465,28.874688992712674L48.79779132145428,37.1537836259747z" style="fill:rgb(161,49,222)"/><path d="M-81.10367997995812,73.35969254943434L116.77189181846754,79.6197059628651L-64.42128993219004,65.4003762764827z" style="fill:rgb(83,212,212)"/><path d="M-104.17723177925765,190.4979076245591L116.77189181846754,79.6197059628651L-142.52125373269635,139.52883599850585z" style="fill:rgb(127,37,217)"/><path d="M-49.60104336811036,38.21313498419035L116.77189181846754,79.6197059628651L33.20577343434414,41.468867373447246z" style="fill:rgb(83,212,212)"/><path d="M116.77189181846754,79.6197059628651L-104.17723177925765,190.4979076245591L141.94329689887084,137.36739480638948z" style="fill:rgb(127,37,217)"/><path d="M-97.07813560778578,73.40560865213376L-142.52125373269635,139.52883599850585L116.77189181846754,79.6197059628651zM79.31113636210812,19.50800938452086L116.77189181846754,79.6197059628651L80.87325585575341,5.460817440121323zM33.20577343434414,41.468867373447246L116.77189181846754,79.6197059628651L50.745225048512324,41.16799902788215zM68.06223818165414,32.92443723134044L116.77189181846754,79.6197059628651L79.31113636210812,19.50800938452086zM50.745225048512324,41.16799902788215L116.77189181846754,79.6197059628651L68.06223818165414,32.92443723134044z" style="fill:rgb(83,212,212)"/></svg>
