solid JSxCAD
facet normal 0 0 1
outer loop
vertex 18.5 15 3.5
vertex -18.5 15 3.5
vertex -18.5 -15 3.5
endloop
endfacet
facet normal 0 0 1
outer loop
vertex 18.5 15 3.5
vertex -18.5 -15 3.5
vertex 18.5 -15 3.5
endloop
endfacet
facet normal 0 0 -1
outer loop
vertex 18.5 -15 -7
vertex -18.5 -15 -7
vertex -18.5 15 -7
endloop
endfacet
facet normal 0 0 -1
outer loop
vertex 18.5 -15 -7
vertex -18.5 15 -7
vertex 18.5 15 -7
endloop
endfacet
facet normal 0 -1 0
outer loop
vertex 18.5 -15 -7
vertex 18.5 -15 3.5
vertex -18.5 -15 3.5
endloop
endfacet
facet normal 0 -1 0
outer loop
vertex 18.5 -15 -7
vertex -18.5 -15 3.5
vertex -18.5 -15 -7
endloop
endfacet
facet normal -1 0 0
outer loop
vertex -18.5 -15 -7
vertex -18.5 -15 3.5
vertex -18.5 15 3.5
endloop
endfacet
facet normal -1 0 0
outer loop
vertex -18.5 -15 -7
vertex -18.5 15 3.5
vertex -18.5 15 -7
endloop
endfacet
facet normal 0 1 0
outer loop
vertex -18.5 15 -7
vertex -18.5 15 3.5
vertex 18.5 15 3.5
endloop
endfacet
facet normal 0 1 0
outer loop
vertex -18.5 15 -7
vertex 18.5 15 3.5
vertex 18.5 15 -7
endloop
endfacet
facet normal 1 0 0
outer loop
vertex 18.5 15 -7
vertex 18.5 15 3.5
vertex 18.5 -15 3.5
endloop
endfacet
facet normal 1 0 0
outer loop
vertex 18.5 15 -7
vertex 18.5 -15 3.5
vertex 18.5 -15 -7
endloop
endfacet
endsolid JSxCAD
