<?xml version="1.0" encoding="UTF-8"?>
<!-- Generated by jsxcad -->
<!DOCTYPE svg PUBLIC "-//W3C//DTD SVG 1.1 Tiny//EN" "http://www.w3.org/Graphics/SVG/1.1/DTD/svg11-tiny.dtd">
<svg viewBox="-250 -250 500 500" width="500" height="500" xmlns="http://www.w3.org/2000/svg"><path d="M-33.019913170033156,-96.17163022275605L-17.186380345742233,-51.523847901663686L-12.055512854389887,-54.25933687635873z" style="fill:rgb(168,53,222)"/><path d="M-27.584795360555965,-98.80421009069444L-12.055512854389887,-54.25933687635873L-6.817071481667222,-56.787745658236574z" style="fill:rgb(161,49,222)"/><path d="M-38.349149424128164,-93.33570645538414L-22.1926675721233,-48.59027195477603L-17.186380345742233,-51.523847901663686z" style="fill:rgb(175,57,222)"/><path d="M-22.061562327706568,-101.22469558201183L-6.817071481667222,-56.787745658236574L-1.4883349436704065,-59.100598493698854z" style="fill:rgb(154,46,222)"/><path d="M-43.555007551573595,-90.30567612919576L-27.057656624707825,-45.46810558090861L-22.1926675721233,-48.59027195477603z" style="fill:rgb(182,61,221)"/><path d="M-16.46822786742171,-103.42486162978851L-1.4883349436704065,-59.100598493698854L3.9131552586021194,-61.18995493584659z" style="fill:rgb(146,43,221)"/><path d="M-27.057656624707825,-45.46810558090861L-53.52797670125009,-83.70264771868561L-31.764930095532822,-42.16735871485567z" style="fill:rgb(189,66,220)"/><path d="M-10.823050264969636,-105.39697656019477L3.9131552586021194,-61.18995493584659L9.369609646395665,-63.048396524053906z" style="fill:rgb(139,40,220)"/><path d="M-31.764930095532822,-42.16735871485567L-58.26151732178323,-80.15056223356936L-36.298389741628384,-38.69854145792475z" style="fill:rgb(196,71,219)"/><path d="M-5.14452033797495,-107.13383765046629L9.369609646395665,-63.048396524053906L14.863002120609341,-64.66906136407474z" style="fill:rgb(131,38,218)"/><path d="M-36.298389741628384,-38.69854145792475L-62.80457601510973,-76.4461687964646L-40.6422846073127,-35.07266428855765z" style="fill:rgb(202,76,217)"/><path d="M0.5486512419232924,-108.62879220088921L14.863002120609341,-64.66906136407474L20.375082827805894,-66.0456470409829z" style="fill:rgb(123,36,216)"/><path d="M79.18539119152797,-74.4730446228231L77.46147163712041,-95.5175311340826L78.85188856003973,-78.54422741779736z" style="fill:rgb(127,127,127)"/><path d="M-40.6422846073127,-35.07266428855765L-67.14118693610723,-72.60114783162173L-44.78121969363717,-31.301243498482638z" style="fill:rgb(208,81,214)"/><path d="M6.237544656828429,-109.8757247715321L20.375082827805894,-66.0456470409829L25.887393248102192,-67.17243703674247z" style="fill:rgb(115,34,214)"/><path d="M-90.7471063578092,-105.86066057963195L-129.6855184068973,-102.33095256201524L-130.80291762512655,-94.24217417534321z" style="fill:rgb(83,212,212)"/><path d="M-44.78121969363717,-31.301243498482638L-71.25574382981593,-68.62763393313777L-48.70018559398601,-27.396290346080356z" style="fill:rgb(213,86,212)"/><path d="M11.90304609857475,-110.86911793739517L25.887393248102192,-67.17243703674247L31.381282226946105,-68.04432197384403z" style="fill:rgb(108,33,211)"/><path d="M-48.70018559398601,-27.396290346080356L-75.13305492497483,-64.5382650226987L-52.38459587109275,-23.370310384768466z" style="fill:rgb(218,92,209)"/><path d="M-130.85360318701737,-93.87525639077462L-90.7471063578092,-105.86066057963195L-130.80291762512655,-94.24217417534321z" style="fill:rgb(83,212,212)"/><path d="M17.525865582953415,-111.60404343691859L31.381282226946105,-68.04432197384403L36.83792633527035,-68.65681115349292z" style="fill:rgb(100,32,208)"/><path d="M-101.79658469000627,-100.58272912042732L-130.85360318701737,-93.87525639077462L-131.09901521225825,-92.0987333527872z" style="fill:rgb(83,212,212)"/><path d="M-52.38459587109275,-23.370310384768466L-78.7583519325459,-60.34616232390447L-55.82031717959821,-19.23631364642854z" style="fill:rgb(223,98,206)"/><path d="M-12.055512854389887,-54.25933687635873L-27.584795360555965,-98.80421009069444L-33.019913170033156,-96.17163022275605z" style="fill:rgb(161,49,222)"/><path d="M-17.186380345742233,-51.523847901663686L-33.019913170033156,-96.17163022275605L-38.349149424128164,-93.33570645538414z" style="fill:rgb(168,53,222)"/><path d="M23.086554145726907,-112.07621197594179L36.83792633527035,-68.65681115349292L42.23834293314865,-69.00607624617385z" style="fill:rgb(93,32,205)"/><path d="M-6.817071481667222,-56.787745658236574L-22.061562327706568,-101.22469558201183L-27.584795360555965,-98.80421009069444z" style="fill:rgb(154,46,222)"/><path d="M-22.1926675721233,-48.59027195477603L-38.349149424128164,-93.33570645538414L-43.555007551573595,-90.30567612919576z" style="fill:rgb(175,57,222)"/><path d="M-130.85360318701737,-93.87525639077462L-101.79658469000627,-100.58272912042732L-96.48879666511488,-103.839940985437zM-105.97670936160527,-96.51220069714265L-131.09901521225825,-92.0987333527872L-131.50792903063257,-89.1386305698027zM-90.7471063578092,-105.86066057963195L-130.85360318701737,-93.87525639077462L-96.48879666511488,-103.839940985437z" style="fill:rgb(83,212,212)"/><path d="M-1.4883349436704065,-59.100598493698854L-16.46822786742171,-103.42486162978851L-22.061562327706568,-101.22469558201183z" style="fill:rgb(146,43,221)"/><path d="M-27.057656624707825,-45.46810558090861L-43.555007551573595,-90.30567612919576L-48.62026255347191,-87.09125064347971z" style="fill:rgb(182,61,221)"/><path d="M-53.52797670125009,-83.70264771868561L-27.057656624707825,-45.46810558090861L-48.62026255347191,-87.09125064347971z" style="fill:rgb(189,66,220)"/><path d="M3.9131552586021194,-61.18995493584659L-10.823050264969636,-105.39697656019477L-16.46822786742171,-103.42486162978851z" style="fill:rgb(139,40,220)"/><path d="M-55.82031717959821,-19.23631364642854L-82.11732287561576,-56.06492527108486L-58.99370048085474,-15.007796883953288z" style="fill:rgb(227,104,202)"/><path d="M-131.09901521225825,-92.0987333527872L-105.97670936160527,-96.51220069714265L-101.79658469000627,-100.58272912042732z" style="fill:rgb(83,212,212)"/><path d="M-58.26151732178323,-80.15056223356936L-31.764930095532822,-42.16735871485567L-53.52797670125009,-83.70264771868561z" style="fill:rgb(196,71,219)"/><path d="M9.369609646395665,-63.048396524053906L-5.14452033797495,-107.13383765046629L-10.823050264969636,-105.39697656019477z" style="fill:rgb(131,38,218)"/><path d="M28.565536255681707,-112.28198317959607L42.23834293314865,-69.00607624617385L47.56343682787619,-69.0889628409526z" style="fill:rgb(86,32,201)"/><path d="M-62.80457601510973,-76.4461687964646L-36.298389741628384,-38.69854145792475L-58.26151732178323,-80.15056223356936z" style="fill:rgb(202,76,217)"/><path d="M14.863002120609341,-64.66906136407474L0.5486512419232924,-108.62879220088921L-5.14452033797495,-107.13383765046629z" style="fill:rgb(123,36,216)"/><path d="M-108.47295882309243,-92.15813225575563L-131.50792903063257,-89.1386305698027L-132.02754653355873,-85.37715040605053z" style="fill:rgb(83,212,212)"/><path d="M-58.99370048085474,-15.007796883953288L-85.19618133397393,-51.708633236447135L-61.891634130054015,-10.698744527583493z" style="fill:rgb(231,110,198)"/><path d="M-131.50792903063257,-89.1386305698027L-108.47295882309243,-92.15813225575563L-105.97670936160527,-96.51220069714265z" style="fill:rgb(83,212,212)"/><path d="M-67.14118693610723,-72.60114783162173L-40.6422846073127,-35.07266428855765L-62.80457601510973,-76.4461687964646z" style="fill:rgb(208,81,214)"/><path d="M33.943126763711675,-112.21842408621703L47.56343682787619,-69.0889628409526L52.794003238538565,-68.90305375237466z" style="fill:rgb(79,32,197)"/><path d="M20.375082827805894,-66.0456470409829L6.237544656828429,-109.8757247715321L0.5486512419232924,-108.62879220088921z" style="fill:rgb(115,34,214)"/><path d="M-71.25574382981593,-68.62763393313777L-44.78121969363717,-31.301243498482638L-67.14118693610723,-72.60114783162173z" style="fill:rgb(213,86,212)"/><path d="M25.887393248102192,-67.17243703674247L11.90304609857475,-110.86911793739517L6.237544656828429,-109.8757247715321z" style="fill:rgb(108,33,211)"/><path d="M-61.891634130054015,-10.698744527583493L-87.98169983309158,-47.29183908039341L-64.50158741695198,-6.32362263905383z" style="fill:rgb(235,116,194)"/><path d="M-108.93734336996577,-88.09553731502086L-132.02754653355873,-85.37715040605053L-132.5893756554345,-81.31010284615671z" style="fill:rgb(83,212,212)"/><path d="M39.19957481126652,-111.88333194960424L52.794003238538565,-68.90305375237466L57.91078308810188,-68.44665845738545z" style="fill:rgb(72,33,193)"/><path d="M-132.02754653355873,-85.37715040605053L-108.93734336996577,-88.09553731502086L-108.47295882309243,-92.15813225575563z" style="fill:rgb(83,212,212)"/><path d="M-75.13305492497483,-64.5382650226987L-48.70018559398601,-27.396290346080356L-71.25574382981593,-68.62763393313777z" style="fill:rgb(218,92,209)"/><path d="M31.381282226946105,-68.04432197384403L17.525865582953415,-111.60404343691859L11.90304609857475,-110.86911793739517z" style="fill:rgb(100,32,208)"/><path d="M62.89449166803297,-67.71889455424775L39.19957481126652,-111.88333194960424L57.91078308810188,-68.44665845738545z" style="fill:rgb(65,34,188)"/><path d="M-64.50158741695198,-6.32362263905383L-90.46126247051369,-42.82955910862983L-66.81166105698443,-1.8973672950701401z" style="fill:rgb(238,122,189)"/><path d="M-78.7583519325459,-60.34616232390447L-52.38459587109275,-23.370310384768466L-75.13305492497483,-64.5382650226987z" style="fill:rgb(223,98,206)"/><path d="M36.83792633527035,-68.65681115349292L23.086554145726907,-112.07621197594179L17.525865582953415,-111.60404343691859z" style="fill:rgb(93,32,205)"/><path d="M-129.6855184068973,-102.33095256201524L-90.7471063578092,-105.86066057963195L111.8864880529492,-172.87961373323282zM-107.28243137349827,-84.87388042319373L-132.5893756554345,-81.31010284615671L-133.1175915398386,-77.48637951086505zM-132.5893756554345,-81.31010284615671L-107.28243137349827,-84.87388042319373L-108.93734336996577,-88.09553731502086z" style="fill:rgb(83,212,212)"/><path d="M-82.11732287561576,-56.06492527108486L-55.82031717959821,-19.23631364642854L-78.7583519325459,-60.34616232390447z" style="fill:rgb(227,104,202)"/><path d="M67.72587076047793,-66.71969988579153L44.315102845677316,-111.27526784020074L62.89449166803297,-67.71889455424775z" style="fill:rgb(58,35,183)"/><path d="M-66.81166105698443,-1.8973672950701401L-92.6229328384512,-38.33725908816059L-68.81065232188182,2.5646303241359143z" style="fill:rgb(241,128,185)"/><path d="M42.23834293314865,-69.00607624617385L28.565536255681707,-112.28198317959607L23.086554145726907,-112.07621197594179z" style="fill:rgb(86,32,201)"/><path d="M-103.70581257555597,-82.94271018615363L-133.1175915398386,-77.48637951086505L-133.5392149232358,-74.43427294345412z" style="fill:rgb(83,212,212)"/><path d="M-85.19618133397393,-51.708633236447135L-58.99370048085474,-15.007796883953288L-82.11732287561576,-56.06492527108486z" style="fill:rgb(231,110,198)"/><path d="M47.56343682787619,-69.0889628409526L33.943126763711675,-112.21842408621703L28.565536255681707,-112.28198317959607z" style="fill:rgb(79,32,197)"/><path d="M-133.1175915398386,-77.48637951086505L-103.70581257555597,-82.94271018615363L-107.28243137349827,-84.87388042319373z" style="fill:rgb(83,212,212)"/><path d="M72.3857409561157,-65.44988913798025L49.26994610859007,-110.39361269687787L67.72587076047793,-66.71969988579153z" style="fill:rgb(52,37,178)"/><path d="M-68.81065232188182,2.5646303241359143L-94.4555163957942,-33.83084022788655L-70.48811493798435,7.04654040680621z" style="fill:rgb(243,134,180)"/><path d="M-133.794813730055,-72.58400840017961L-103.70581257555597,-82.94271018615363L-133.5392149232358,-74.43427294345412zM-88.92069798522051,-106.03444267081085L71.7669738617148,-152.99908777355375L-90.7471063578092,-105.86066057963195zM-85.3208649465037,-106.37696576753613L65.61174407349732,-150.8438364708232L-88.92069798522051,-106.03444267081085zM-78.16203255857613,-102.78413714166437L-12.698018699794812,-123.16569378812937L-79.3929961820412,-103.90849575125041z" style="fill:rgb(83,212,212)"/><path d="M-87.98169983309158,-47.29183908039341L-61.891634130054015,-10.698744527583493L-85.19618133397393,-51.708633236447135z" style="fill:rgb(235,116,194)"/><path d="M-83.39759217228332,-105.90982603713435L63.404482161515425,-149.4761626816601L-85.3208649465037,-106.37696576753613zM-78.14629442447384,-102.70654249679431L-18.190107519568844,-120.07778334299915L-78.16203255857613,-102.78413714166437z" style="fill:rgb(83,212,212)"/><path d="M52.794003238538565,-68.90305375237466L39.19957481126652,-111.88333194960424L33.943126763711675,-112.21842408621703z" style="fill:rgb(72,33,193)"/><path d="M-92.88170360365534,-83.86111654423149L-133.794813730055,-72.58400840017961L-133.84784602840736,-72.20011895688627zM-80.92712075053666,-105.30976820262495L60.18589598994112,-147.48184570108174L-83.39759217228332,-105.90982603713435z" style="fill:rgb(83,212,212)"/><path d="M76.85505793061546,-63.911182150823464L54.044413675424856,-109.23858474433527L72.3857409561157,-65.44988913798025z" style="fill:rgb(46,40,173)"/><path d="M-77.41920433948457,-99.12216047496153L-18.494503146857962,-119.90663757546345L-78.14629442447384,-102.70654249679431zM-103.70581257555597,-82.94271018615363L-133.794813730055,-72.58400840017961L-98.67705212639042,-82.5835769935975z" style="fill:rgb(83,212,212)"/><path d="M-70.48811493798435,7.04654040680621L-95.94860692357462,-29.32661755083103L-71.83440370220457,11.53211862591158z" style="fill:rgb(245,140,174)"/><path d="M-90.46126247051369,-42.82955910862983L-64.50158741695198,-6.32362263905383L-87.98169983309158,-47.29183908039341z" style="fill:rgb(238,122,189)"/><path d="M-79.62693423840764,-104.12217783084361L58.36267716827939,-145.5924200471072L-80.92712075053666,-105.30976820262495zM-133.794813730055,-72.58400840017961L-92.88170360365534,-83.86111654423149L-98.67705212639042,-82.5835769935975zM-79.3929961820412,-103.90849575125041L56.198147444367336,-143.3492934825645L-79.62693423840764,-104.12217783084361z" style="fill:rgb(83,212,212)"/><path d="M39.19957481126652,-111.88333194960424L62.89449166803297,-67.71889455424775L44.315102845677316,-111.27526784020074z" style="fill:rgb(65,34,188)"/><path d="M-12.698018699794812,-123.16569378812937L-78.16203255857613,-102.78413714166437L-18.190107519568844,-120.07778334299915zM-18.190107519568844,-120.07778334299915L-78.14629442447384,-102.70654249679431L-18.494503146857962,-119.90663757546345z" style="fill:rgb(83,212,212)"/><path d="M81.11497731161245,-62.106254750807L58.618945229612066,-107.81132167464773L76.85505793061546,-63.911182150823464z" style="fill:rgb(41,42,168)"/><path d="M-71.83440370220457,11.53211862591158L-97.09271366400743,-24.841287023988528L-72.84079577182902,16.00473253708559z" style="fill:rgb(246,146,169)"/><path d="M-92.6229328384512,-38.33725908816059L-66.81166105698443,-1.8973672950701401L-90.46126247051369,-42.82955910862983z" style="fill:rgb(241,128,185)"/><path d="M-18.650658745643653,-112.12854102513316L-77.41920433948457,-99.12216047496153L-78.79625809244973,-94.90153380813271zM-18.494503146857962,-119.90663757546345L-77.41920433948457,-99.12216047496153L-20.969246091916506,-115.34508200862783z" style="fill:rgb(83,212,212)"/><path d="M44.315102845677316,-111.27526784020074L67.72587076047793,-66.71969988579153L49.26994610859007,-110.39361269687787z" style="fill:rgb(58,35,183)"/><path d="M-18.347059048191152,-112.13069092054876L-78.79625809244973,-94.90153380813271L-78.82632010704495,-94.80938755628125z" style="fill:rgb(83,212,212)"/><path d="M85.1469336415485,-60.03876927765218L62.97417396881057,-106.11389512992554L81.11497731161245,-62.106254750807z" style="fill:rgb(36,45,162)"/><path d="M-72.84079577182902,16.00473253708559L-97.87927895447532,-20.391897960296422L-73.49951515757603,20.447396825224963z" style="fill:rgb(247,152,164)"/><path d="M-94.4555163957942,-33.83084022788655L-68.81065232188182,2.5646303241359143L-92.6229328384512,-38.33725908816059z" style="fill:rgb(243,134,180)"/><path d="M56.198147444367336,-143.3492934825645L-79.3929961820412,-103.90849575125041L-12.698018699794812,-123.16569378812937zM-12.850127479242415,-112.16961136023308L-78.82632010704495,-94.80938755628125L-80.32812982824485,-92.86955068175605zM-77.41920433948457,-99.12216047496153L-18.650658745643653,-112.12854102513316L-20.969246091916506,-115.34508200862783zM71.7669738617148,-152.99908777355375L-88.92069798522051,-106.03444267081085L65.61174407349732,-150.8438364708232zM65.61174407349732,-150.8438364708232L-85.3208649465037,-106.37696576753613L63.404482161515425,-149.4761626816601zM111.8864880529492,-172.87961373323282L-90.7471063578092,-105.86066057963195L71.7669738617148,-152.99908777355375z" style="fill:rgb(83,212,212)"/><path d="M49.26994610859007,-110.39361269687787L72.3857409561157,-65.44988913798025L54.044413675424856,-109.23858474433527z" style="fill:rgb(52,37,178)"/><path d="M63.404482161515425,-149.4761626816601L-83.39759217228332,-105.90982603713435L60.18589598994112,-147.48184570108174z" style="fill:rgb(83,212,212)"/><path d="M-97.87927895447532,-20.391897960296422L-73.80384023479662,24.842813979438628L-73.49951515757603,20.447396825224963z" style="fill:rgb(247,158,158)"/><path d="M-95.94860692357462,-29.32661755083103L-70.48811493798435,7.04654040680621L-94.4555163957942,-33.83084022788655z" style="fill:rgb(245,140,174)"/><path d="M60.18589598994112,-147.48184570108174L-80.92712075053666,-105.30976820262495L58.36267716827939,-145.5924200471072z" style="fill:rgb(83,212,212)"/><path d="M88.93271789687836,-57.71343423436147L67.09101280025497,-104.1493776763545L85.1469336415485,-60.03876927765218z" style="fill:rgb(31,48,156)"/><path d="M-78.79625809244973,-94.90153380813271L-18.347059048191152,-112.13069092054876L-18.650658745643653,-112.12854102513316zM-78.82632010704495,-94.80938755628125L-12.850127479242415,-112.16961136023308L-18.347059048191152,-112.13069092054876zM58.36267716827939,-145.5924200471072L-79.62693423840764,-104.12217783084361L56.198147444367336,-143.3492934825645z" style="fill:rgb(83,212,212)"/><path d="M54.044413675424856,-109.23858474433527L76.85505793061546,-63.911182150823464L58.618945229612066,-107.81132167464773z" style="fill:rgb(46,40,173)"/><path d="M-28.27418826751663,-86.13401172847773L-30.509368339250425,-76.87351599880998L-25.12286982606649,-79.83692426550252z" style="fill:rgb(171,54,222)"/><path d="M-22.692746486081656,-88.80559718535298L-25.12286982606649,-79.83692426550252L-19.571932367761487,-82.49224907274463z" style="fill:rgb(160,49,222)"/><path d="M-33.69158144738974,-83.15523458652171L-35.69064200583879,-73.62421976986832L-30.509368339250425,-76.87351599880998z" style="fill:rgb(181,61,221)"/><path d="M56.91941833467498,-131.82696962724114L-80.32812982824485,-92.86955068175605L-80.61464658469642,-92.49946417017215zM-6.929053959924195,-123.24143748545248L56.04308313258515,-143.013664202818L-12.698018699794812,-123.16569378812937z" style="fill:rgb(83,212,212)"/><path d="M-16.989274215999014,-91.14961660965199L-19.571932367761487,-82.49224907274463L-13.898383607296598,-84.81922066929233z" style="fill:rgb(149,44,221)"/><path d="M-98.30082831487081,-15.995812481496223L-73.74818240840908,29.1734215125729L-73.80384023479662,24.842813979438628z" style="fill:rgb(247,164,152)"/><path d="M-18.650658745643653,-112.12854102513316L-24.064724152038693,-121.77402878420378L-20.969246091916506,-115.34508200862783z" style="fill:rgb(16,64,133)"/><path d="M-97.09271366400743,-24.841287023988528L-71.83440370220457,11.53211862591158L-95.94860692357462,-29.32661755083103z" style="fill:rgb(246,146,169)"/><path d="M-35.69064200583879,-73.62421976986832L-43.871470242643994,-76.36713185014L-40.62709396872272,-70.11310369115976z" style="fill:rgb(191,67,220)"/><path d="M-11.206675132918443,-93.14774003054352L-13.898383607296598,-84.81922066929233L-8.144942106788125,-86.79962397129826z" style="fill:rgb(138,40,220)"/><path d="M92.45457262621258,-55.13602924185501L70.95073370622116,-101.92185751885373L88.93271789687836,-57.71343423436147z" style="fill:rgb(27,52,150)"/><path d="M59.32352976962649,-130.84897227419813L-80.61464658469642,-92.49946417017215L-82.2135339541116,-90.43423105531468z" style="fill:rgb(83,212,212)"/><path d="M-25.12286982606649,-79.83692426550252L-22.692746486081656,-88.80559718535298L-28.27418826751663,-86.13401172847773z" style="fill:rgb(160,49,222)"/><path d="M-30.509368339250425,-76.87351599880998L-28.27418826751663,-86.13401172847773L-33.69158144738974,-83.15523458652171z" style="fill:rgb(171,54,222)"/><path d="M-19.571932367761487,-82.49224907274463L-16.989274215999014,-91.14961660965199L-22.692746486081656,-88.80559718535298z" style="fill:rgb(149,44,221)"/><path d="M-35.69064200583879,-73.62421976986832L-33.69158144738974,-83.15523458652171L-38.903938117120084,-79.89155712142927z" style="fill:rgb(181,61,221)"/><path d="M-40.62709396872272,-70.11310369115976L-48.55572553725019,-72.60789425861873L-45.28049334474119,-66.36602685486716z" style="fill:rgb(200,74,217)"/><path d="M-5.388580557327991,-94.78372912535856L-8.144942106788125,-86.79962397129826L-2.355054835501378,-88.41734572774841z" style="fill:rgb(127,37,217)"/><path d="M-5.786691034086663,-121.71981695612376L55.1823998405035,-141.15076198117944L-6.929053959924195,-123.24143748545248z" style="fill:rgb(83,212,212)"/><path d="M-43.871470242643994,-76.36713185014L-35.69064200583879,-73.62421976986832L-38.903938117120084,-79.89155712142927z" style="fill:rgb(191,67,220)"/><path d="M-13.898383607296598,-84.81922066929233L-11.206675132918443,-93.14774003054352L-16.989274215999014,-91.14961660965199z" style="fill:rgb(138,40,220)"/><path d="M61.36196025272295,-130.019739102235L-82.2135339541116,-90.43423105531468L-84.96917470278933,-88.28635820471516zM-21.56509365088774,-126.33762135335134L-15.925141184510071,-118.63274000467068L-15.735589565929082,-129.61275323376378zM-21.748191998548055,-118.57069299285327L-21.56509365088774,-126.33762135335134L-24.064724152038693,-121.77402878420378z" style="fill:rgb(83,212,212)"/><path d="M58.618945229612066,-107.81132167464773L81.11497731161245,-62.106254750807L62.97417396881057,-106.11389512992554z" style="fill:rgb(41,42,168)"/><path d="M-48.55572553725019,-72.60789425861873L-40.62709396872272,-70.11310369115976L-43.871470242643994,-76.36713185014z" style="fill:rgb(200,74,217)"/><path d="M-8.144942106788125,-86.79962397129826L-5.388580557327991,-94.78372912535856L-11.206675132918443,-93.14774003054352z" style="fill:rgb(127,37,217)"/><path d="M64.79705670156753,-129.8927536460182L-84.96917470278933,-88.28635820471516L-87.12555004750044,-86.60559015180253zM-15.735589565929082,-129.61275323376378L-15.925141184510071,-118.63274000467068L-9.944286202858358,-129.70950721155023z" style="fill:rgb(83,212,212)"/><path d="M-45.28049334474119,-66.36602685486716L-52.91978945857378,-68.64149628587407L-49.61412551820544,-62.4105736815166z" style="fill:rgb(209,82,214)"/><path d="M0.4208061246595086,-96.04354524370518L-2.355054835501378,-88.41734572774841L3.4272559628791455,-89.65848245564533z" style="fill:rgb(116,34,214)"/><path d="M-24.064724152038693,-121.77402878420378L-18.650658745643653,-112.12854102513316L-21.748191998548055,-118.57069299285327z" style="fill:rgb(16,64,133)"/><path d="M-98.35100699356366,-11.670653277984862L-73.32816580010038,33.42144671240879L-73.74818240840908,29.1734215125729z" style="fill:rgb(246,169,146)"/><path d="M56.198147444367336,-143.3492934825645L-12.698018699794812,-123.16569378812937L56.04308313258515,-143.013664202818zM67.16225071027293,-129.80531229599475L-87.12555004750044,-86.60559015180253L-90.94126921386903,-84.78629297031715zM-4.544554725314378,-120.06530214946635L54.181140179217216,-138.98357182117007L-5.786691034086663,-121.71981695612376z" style="fill:rgb(83,212,212)"/><path d="M-97.87927895447532,-20.391897960296422L-72.84079577182902,16.00473253708559L-97.09271366400743,-24.841287023988528z" style="fill:rgb(247,152,164)"/><path d="M73.52616527292442,-131.22906413220264L-90.94126921386903,-84.78629297031715L-92.88170360365534,-83.86111654423149z" style="fill:rgb(83,212,212)"/><path d="M-52.91978945857378,-68.64149628587407L-45.28049334474119,-66.36602685486716L-48.55572553725019,-72.60789425861873z" style="fill:rgb(209,82,214)"/><path d="M-2.355054835501378,-88.41734572774841L0.4208061246595086,-96.04354524370518L-5.388580557327991,-94.78372912535856z" style="fill:rgb(116,34,214)"/><path d="M-80.32812982824485,-92.86955068175605L56.91941833467498,-131.82696962724114L-12.850127479242415,-112.16961136023308z" style="fill:rgb(83,212,212)"/><path d="M-4.544554725314378,-120.06530214946635L-10.02896397627285,-121.94867550921012L-6.987727805131996,-115.46905727888908z" style="fill:rgb(238,121,190)"/><path d="M95.69527383401243,-52.313436881671265L74.53504902427251,-99.43652936923557L92.45457262621258,-55.13602924185501z" style="fill:rgb(23,56,144)"/><path d="M-21.56509365088774,-126.33762135335134L-21.748191998548055,-118.57069299285327L-15.925141184510071,-118.63274000467068z" style="fill:rgb(83,212,212)"/><path d="M-49.61412551820544,-62.4105736815166L-56.92844425430618,-64.4972140348872L-53.59299518567794,-58.2759610948018z" style="fill:rgb(217,90,210)"/><path d="M-15.925141184510071,-118.63274000467068L-18.650658745643653,-112.12854102513316L-12.850127479242415,-112.16961136023308z" style="fill:rgb(81,32,199)"/><path d="M6.1768817465506345,-96.91545065939177L3.4272559628791455,-89.65848245564533L9.15756428930296,-90.51144125472516z" style="fill:rgb(105,33,210)"/><path d="M56.04308313258515,-143.013664202818L-6.929053959924195,-123.24143748545248L55.1823998405035,-141.15076198117944z" style="fill:rgb(83,212,212)"/><path d="M-10.02896397627285,-121.94867550921012L-4.544554725314378,-120.06530214946635L-7.561084199242991,-126.54697330416201z" style="fill:rgb(238,121,190)"/><path d="M-9.944286202858358,-129.70950721155023L-10.02896397627285,-121.94867550921012L-7.561084199242991,-126.54697330416201z" style="fill:rgb(83,212,212)"/><path d="M-18.650658745643653,-112.12854102513316L-15.925141184510071,-118.63274000467068L-21.748191998548055,-118.57069299285327z" style="fill:rgb(81,32,199)"/><path d="M-10.02896397627285,-121.94867550921012L-12.850127479242415,-112.16961136023308L-6.987727805131996,-115.46905727888908z" style="fill:rgb(173,56,222)"/><path d="M-56.92844425430618,-64.4972140348872L-49.61412551820544,-62.4105736815166L-52.91978945857378,-68.64149628587407z" style="fill:rgb(217,90,210)"/><path d="M3.4272559628791455,-89.65848245564533L6.1768817465506345,-96.91545065939177L0.4208061246595086,-96.04354524370518z" style="fill:rgb(105,33,210)"/><path d="M62.97417396881057,-106.11389512992554L85.1469336415485,-60.03876927765218L67.09101280025497,-104.1493776763545z" style="fill:rgb(36,45,162)"/><path d="M54.42271882847743,-134.96121087710526L-4.544554725314378,-120.06530214946635L-5.812113332550223,-117.68069381922002zM-9.944286202858358,-129.70950721155023L-15.925141184510071,-118.63274000467068L-10.02896397627285,-121.94867550921012zM55.1823998405035,-141.15076198117944L-5.786691034086663,-121.71981695612376L54.181140179217216,-138.98357182117007z" style="fill:rgb(83,212,212)"/><path d="M-53.59299518567794,-58.2759610948018L-60.54838187749023,-60.20588668155317L-57.18401795164061,-53.99298087078222z" style="fill:rgb(224,99,205)"/><path d="M11.834827022485934,-97.39014601062952L9.15756428930296,-90.51144125472516L14.791226213463759,-90.96707678004715z" style="fill:rgb(94,32,205)"/><path d="M-98.02467175072555,-7.4342538513957575L-72.54072267106525,37.568964201227125L-73.32816580010038,33.42144671240879z" style="fill:rgb(245,175,140)"/><path d="M-12.850127479242415,-112.16961136023308L-10.02896397627285,-121.94867550921012L-15.925141184510071,-118.63274000467068z" style="fill:rgb(173,56,222)"/><path d="M-40.56248227029717,-69.98541248246241L-133.84784602840736,-72.20011895688627L-137.8841225478706,-42.98174536044565z" style="fill:rgb(83,212,212)"/><path d="M-60.54838187749023,-60.20588668155317L-53.59299518567794,-58.2759610948018L-56.92844425430618,-64.4972140348872z" style="fill:rgb(224,99,205)"/><path d="M55.65691963374284,-133.41185154439992L-5.812113332550223,-117.68069381922002L-6.987727805131996,-115.46905727888908z" style="fill:rgb(83,212,212)"/><path d="M9.15756428930296,-90.51144125472516L11.834827022485934,-97.39014601062952L6.1768817465506345,-96.91545065939177z" style="fill:rgb(94,32,205)"/><path d="M98.63824515858664,-49.25369241008843L77.82623770711169,-96.69968766075368L95.69527383401243,-52.313436881671265z" style="fill:rgb(19,60,138)"/><path d="M54.181140179217216,-138.98357182117007L-4.544554725314378,-120.06530214946635L54.30166081982305,-136.9768650231515z" style="fill:rgb(83,212,212)"/><path d="M-73.80384023479662,24.842813979438628L-97.87927895447532,-20.391897960296422L-98.30082831487081,-15.995812481496223z" style="fill:rgb(247,158,158)"/><path d="M56.72599960811245,-132.06977809353387L-6.987727805131996,-115.46905727888908L-12.850127479242415,-112.16961136023308z" style="fill:rgb(83,212,212)"/><path d="M-57.18401795164061,-53.99298087078222L-63.74842298676459,-55.7998037914143L-60.35624286508792,-49.59386537373704z" style="fill:rgb(230,107,200)"/><path d="M17.34981091324715,-97.46087176371591L14.791226213463759,-90.96707678004715L20.283582756000072,-91.0187917810523z" style="fill:rgb(83,32,200)"/><path d="M67.09101280025497,-104.1493776763545L88.93271789687836,-57.71343423436147L70.95073370622116,-101.92185751885373z" style="fill:rgb(31,48,156)"/><path d="M-4.544554725314378,-120.06530214946635L54.42271882847743,-134.96121087710526L54.30166081982305,-136.9768650231515zM111.8864880529492,-172.87961373323282L71.7669738617148,-152.99908777355375L112.91052840351145,-164.9330837510107z" style="fill:rgb(83,212,212)"/><path d="M-63.74842298676459,-55.7998037914143L-57.18401795164061,-53.99298087078222L-60.54838187749023,-60.20588668155317z" style="fill:rgb(230,107,200)"/><path d="M14.791226213463759,-90.96707678004715L17.34981091324715,-97.46087176371591L11.834827022485934,-97.39014601062952z" style="fill:rgb(83,32,200)"/><path d="M-80.61464658469642,-92.49946417017215L59.32352976962649,-130.84897227419813L56.91941833467498,-131.82696962724114zM77.85025846986099,-153.6624137865426L112.91052840351145,-164.9330837510107L71.7669738617148,-152.99908777355375z" style="fill:rgb(83,212,212)"/><path d="M-97.31803304336749,-3.304591480301227L-71.38414857680046,41.59797775369279L-72.54072267106525,37.568964201227125z" style="fill:rgb(243,180,134)"/><path d="M-5.812113332550223,-117.68069381922002L55.65691963374284,-133.41185154439992L54.42271882847743,-134.96121087710526zM-82.2135339541116,-90.43423105531468L61.36196025272295,-130.019739102235L59.32352976962649,-130.84897227419813z" style="fill:rgb(83,212,212)"/><path d="M-60.35624286508792,-49.59386537373704L-66.49975549471057,-51.31260395087453L-63.08108587595708,-45.1122279825213z" style="fill:rgb(235,116,194)"/><path d="M22.677217602774395,-97.12352563696142L20.283582756000072,-91.0187917810523L25.59019079540445,-90.66265377137434z" style="fill:rgb(73,33,194)"/><path d="M101.26766310755715,-45.96599330585714L80.80722300667563,-93.71878677832055L98.63824515858664,-49.25369241008843z" style="fill:rgb(16,65,132)"/><path d="M-73.74818240840908,29.1734215125729L-98.30082831487081,-15.995812481496223L-98.35100699356366,-11.670653277984862z" style="fill:rgb(247,164,152)"/><path d="M83.06059736065278,-152.73507267058693L113.04848794914908,-163.86251596058656L77.85025846986099,-153.6624137865426z" style="fill:rgb(83,212,212)"/><path d="M-66.49975549471057,-51.31260395087453L-60.35624286508792,-49.59386537373704L-63.74842298676459,-55.7998037914143z" style="fill:rgb(235,116,194)"/><path d="M20.283582756000072,-91.0187917810523L22.677217602774395,-97.12352563696142L17.34981091324715,-97.46087176371591z" style="fill:rgb(73,33,194)"/><path d="M-84.96917470278933,-88.28635820471516L64.79705670156753,-129.8927536460182L61.36196025272295,-130.019739102235zM-6.987727805131996,-115.46905727888908L56.72599960811245,-132.06977809353387L55.65691963374284,-133.41185154439992z" style="fill:rgb(83,212,212)"/><path d="M70.95073370622116,-101.92185751885373L92.45457262621258,-55.13602924185501L74.53504902427251,-99.43652936923557z" style="fill:rgb(27,52,150)"/><path d="M112.91052840351145,-164.9330837510107L77.85025846986099,-153.6624137865426L113.04848794914908,-163.86251596058656z" style="fill:rgb(83,212,212)"/><path d="M30.667068296617888,-89.89756373764409L22.677217602774395,-97.12352563696142L25.59019079540445,-90.66265377137434z" style="fill:rgb(63,34,187)"/><path d="M-12.850127479242415,-112.16961136023308L56.91941833467498,-131.82696962724114L56.72599960811245,-132.06977809353387zM-87.12555004750044,-86.60559015180253L67.16225071027293,-129.80531229599475L64.79705670156753,-129.8927536460182z" style="fill:rgb(83,212,212)"/><path d="M-63.08108587595708,-45.1122279825213L-68.77617556298189,-46.77913719108226L-65.33258644728919,-40.582882835969365z" style="fill:rgb(239,125,187)"/><path d="M-96.22868229532016,0.7002808922584318L-69.85823751883875,45.4904872470082L-71.38414857680046,41.59797775369279z" style="fill:rgb(241,185,128)"/><path d="M-90.94126921386903,-84.78629297031715L73.52616527292442,-131.22906413220264L67.16225071027293,-129.80531229599475z" style="fill:rgb(83,212,212)"/><path d="M-68.77617556298189,-46.77913719108226L-63.08108587595708,-45.1122279825213L-66.49975549471057,-51.31260395087453z" style="fill:rgb(239,125,187)"/><path d="M86.69484304797163,-150.32265909368456L113.35348124105427,-161.49577791437574L83.06059736065278,-152.73507267058693zM113.04848794914908,-163.86251596058656L83.06059736065278,-152.73507267058693L113.35348124105427,-161.49577791437574z" style="fill:rgb(83,212,212)"/><path d="M103.56858708346006,-42.460733551868664L83.46171174787861,-90.50247708481423L101.26766310755715,-45.96599330585714z" style="fill:rgb(13,69,126)"/><path d="M-73.32816580010038,33.42144671240879L-98.35100699356366,-11.670653277984862L-98.02467175072555,-7.4342538513957575z" style="fill:rgb(246,169,146)"/><path d="M22.677217602774395,-97.12352563696142L30.667068296617888,-89.89756373764409L27.772898307215304,-96.3768329971198z" style="fill:rgb(63,34,187)"/><path d="M-133.84784602840736,-72.20011895688627L-40.56248227029717,-69.98541248246241L115.70658867754584,-143.23570767631233z" style="fill:rgb(83,212,212)"/><path d="M35.4709820109805,-88.72537144543548L27.772898307215304,-96.3768329971198L30.667068296617888,-89.89756373764409z" style="fill:rgb(54,37,180)"/><path d="M74.53504902427251,-99.43652936923557L95.69527383401243,-52.313436881671265L77.82623770711169,-96.69968766075368z" style="fill:rgb(23,56,144)"/><path d="M-65.33258644728919,-40.582882835969365L-70.55438262487435,-42.23533418129037L-67.08767532271203,-36.041734655922816zM-70.55438262487435,-42.23533418129037L-65.33258644728919,-40.582882835969365L-68.77617556298189,-46.77913719108226z" style="fill:rgb(243,134,180)"/><path d="M-98.42704799084879,-42.10718468842697L-137.8841225478706,-42.98174536044565L-139.56472436504433,-30.815971014432602z" style="fill:rgb(83,212,212)"/><path d="M-94.75574714531551,4.562317010325923L-67.96431426733322,49.228586368548264L-69.85823751883875,45.4904872470082z" style="fill:rgb(238,189,122)"/><path d="M113.35348124105427,-161.49577791437574L86.69484304797163,-150.32265909368456L113.78658587287748,-158.13488967954166zM88.2420263293384,-146.73084660163175L113.78658587287748,-158.13488967954166L86.69484304797163,-150.32265909368456z" style="fill:rgb(83,212,212)"/><path d="M27.772898307215304,-96.3768329971198L35.4709820109805,-88.72537144543548L32.593455534046115,-95.22246354733868z" style="fill:rgb(54,37,180)"/><path d="M105.52703429653035,-38.74950584720486L85.7742838192257,-87.06062858066498L103.56858708346006,-42.460733551868664z" style="fill:rgb(11,74,120)"/><path d="M-72.54072267106525,37.568964201227125L-98.02467175072555,-7.4342538513957575L-97.31803304336749,-3.304591480301227z" style="fill:rgb(245,175,140)"/><path d="M39.95975824193161,-87.15100796467394L32.593455534046115,-95.22246354733868L35.4709820109805,-88.72537144543548z" style="fill:rgb(45,40,172)"/><path d="M77.82623770711169,-96.69968766075368L98.63824515858664,-49.25369241008843L80.80722300667563,-93.71878677832055z" style="fill:rgb(19,60,138)"/><path d="M-67.08767532271203,-36.041734655922816L-71.81425622298946,-37.71801707800568L-68.326470519574,-31.525585316126094zM-71.81425622298946,-37.71801707800568L-67.08767532271203,-36.041734655922816L-70.55438262487435,-42.23533418129037z" style="fill:rgb(245,143,172)"/><path d="M-137.8841225478706,-42.98174536044565L-98.42704799084879,-42.10718468842697L-40.56248227029717,-69.98541248246241zM-139.81428783509924,-29.009393775311924L-98.42704799084879,-42.10718468842697L-139.56472436504433,-30.815971014432602zM113.78658587287748,-158.13488967954166L88.2420263293384,-146.73084660163175L114.29146018591398,-154.21708294131605z" style="fill:rgb(83,212,212)"/><path d="M32.593455534046115,-95.22246354733868L39.95975824193161,-87.15100796467394L37.09655589632557,-93.66516589492257z" style="fill:rgb(45,40,172)"/><path d="M107.13016560794162,-34.84511972262936L87.73055916118514,-83.40434299001471L105.52703429653035,-38.74950584720486z" style="fill:rgb(9,79,114)"/><path d="M-71.38414857680046,41.59797775369279L-97.31803304336749,-3.304591480301227L-96.22868229532016,0.7002808922584318z" style="fill:rgb(243,180,134)"/><path d="M44.09262571183363,-85.18260743641686L37.09655589632557,-93.66516589492257L39.95975824193161,-87.15100796467394z" style="fill:rgb(37,44,164)"/><path d="M114.80083475021385,-150.26433708943554L88.2420263293384,-146.73084660163175L87.46252998583694,-142.43463572078917z" style="fill:rgb(83,212,212)"/><path d="M80.80722300667563,-93.71878677832055L101.26766310755715,-45.96599330585714L83.46171174787861,-90.50247708481423z" style="fill:rgb(16,65,132)"/><path d="M-68.326470519574,-31.525585316126094L-72.53917645259092,-33.26469667412339L-69.0325735928855,-27.071930709568566z" style="fill:rgb(247,151,164)"/><path d="M88.2420263293384,-146.73084660163175L114.80083475021385,-150.26433708943554L114.29146018591398,-154.21708294131605z" style="fill:rgb(83,212,212)"/><path d="M-72.53917645259092,-33.26469667412339L-68.326470519574,-31.525585316126094L-71.81425622298946,-37.71801707800568z" style="fill:rgb(247,151,164)"/><path d="M-107.38366675536561,-33.63852004425119L-139.81428783509924,-29.009393775311924L-140.42048220592085,-24.621188819968893zM-98.42704799084879,-42.10718468842697L-139.81428783509924,-29.009393775311924L-104.48549752623508,-38.69050160112976z" style="fill:rgb(83,212,212)"/><path d="M37.09655589632557,-93.66516589492257L44.09262571183363,-85.18260743641686L41.24127432757018,-91.71289128424424z" style="fill:rgb(37,44,164)"/><path d="M-139.81428783509924,-29.009393775311924L-107.38366675536561,-33.63852004425119L-104.48549752623508,-38.69050160112976z" style="fill:rgb(83,212,212)"/><path d="M-72.53917645259092,-33.26469667412339L-69.19336892270657,-22.718719498952137L-69.0325735928855,-27.071930709568566z" style="fill:rgb(247,160,156)"/><path d="M47.83059088412441,-82.8316211064252L41.24127432757018,-91.71289128424424L44.09262571183363,-85.18260743641686z" style="fill:rgb(30,49,155)"/><path d="M115.24509161569053,-146.8169228725634L87.46252998583694,-142.43463572078917L84.43642760100397,-138.0197599605868z" style="fill:rgb(83,212,212)"/><path d="M-69.85823751883875,45.4904872470082L-96.22868229532016,0.7002808922584318L-94.75574714531551,4.562317010325923z" style="fill:rgb(241,185,128)"/><path d="M87.46252998583694,-142.43463572078917L115.24509161569053,-146.8169228725634L114.80083475021385,-150.26433708943554z" style="fill:rgb(83,212,212)"/><path d="M83.46171174787861,-90.50247708481423L103.56858708346006,-42.460733551868664L85.7742838192257,-87.06062858066498z" style="fill:rgb(13,69,126)"/><path d="M-105.40378229465497,-29.880544911051746L-140.42048220592085,-24.621188819968893L-141.03195603436694,-20.19476618524039zM115.56206934160781,-144.35717941311404L84.43642760100397,-138.0197599605868L79.5662528105166,-134.1009196951036z" style="fill:rgb(83,212,212)"/><path d="M-69.19336892270657,-22.718719498952137L-72.53917645259092,-33.26469667412339L-72.71630035951293,-28.91333093204583z" style="fill:rgb(247,160,156)"/><path d="M41.24127432757018,-91.71289128424424L47.83059088412441,-82.8316211064252L44.98847170588553,-89.3769109395548z" style="fill:rgb(30,49,155)"/><path d="M115.70658867754584,-143.23570767631233L79.5662528105166,-134.1009196951036L73.52616527292442,-131.22906413220264zM-140.42048220592085,-24.621188819968893L-105.40378229465497,-29.880544911051746L-107.38366675536561,-33.63852004425119z" style="fill:rgb(83,212,212)"/><path d="M-72.71630035951293,-28.91333093204583L-68.80034878074044,-18.504086899768623L-69.19336892270657,-22.718719498952137z" style="fill:rgb(246,168,147)"/><path d="M51.13684544505973,-80.11292154652178L44.98847170588553,-89.3769109395548L47.83059088412441,-82.8316211064252z" style="fill:rgb(24,54,147)"/><path d="M84.43642760100397,-138.0197599605868L115.56206934160781,-144.35717941311404L115.24509161569053,-146.8169228725634z" style="fill:rgb(83,212,212)"/><path d="M-67.96431426733322,49.228586368548264L-94.75574714531551,4.562317010325923L-92.89992955272074,8.263565279971141z" style="fill:rgb(238,189,122)"/><path d="M-99.65447688696436,-29.64909344620008L-141.03195603436694,-20.19476618524039L-141.28679944868674,-18.34997204900338zM-40.56248227029717,-69.98541248246241L-98.42704799084879,-42.10718468842697L-41.06934237901026,-57.85036350163961z" style="fill:rgb(83,212,212)"/><path d="M85.7742838192257,-87.06062858066498L105.52703429653035,-38.74950584720486L87.73055916118514,-83.40434299001471z" style="fill:rgb(11,74,120)"/><path d="M79.5662528105166,-134.1009196951036L115.70658867754584,-143.23570767631233L115.56206934160781,-144.35717941311404zM-92.70674630903572,-41.918217776612586L-41.06934237901026,-57.85036350163961L-98.42704799084879,-42.10718468842697z" style="fill:rgb(83,212,212)"/><path d="M-96.3410856798256,-48.18073374563992L-90.6547959936183,-38.20463091172032L-92.70674630903572,-41.918217776612586z" style="fill:rgb(238,190,121)"/><path d="M-68.80034878074044,-18.504086899768623L-72.71630035951293,-28.91333093204583L-72.33690786104448,-24.70205872569147z" style="fill:rgb(246,168,147)"/><path d="M-141.03195603436694,-20.19476618524039L-99.65447688696436,-29.64909344620008L-105.40378229465497,-29.880544911051746z" style="fill:rgb(83,212,212)"/><path d="M44.98847170588553,-89.3769109395548L51.13684544505973,-80.11292154652178L48.30120362862489,-86.67192132248186z" style="fill:rgb(24,54,147)"/><path d="M-72.33690786104448,-24.70205872569147L-67.8494077262075,-14.466047998011545L-68.80034878074044,-18.504086899768623z" style="fill:rgb(244,176,138)"/><path d="M53.97719926450569,-77.04486353713533L48.30120362862489,-86.67192132248186L51.13684544505973,-80.11292154652178z" style="fill:rgb(19,60,138)"/><path d="M-90.6547959936183,-38.20463091172032L-41.14463565620699,-56.04772313343226L-92.70674630903572,-41.918217776612586zM-108.17682659128553,-44.91564830773062L-103.36274319921665,-35.897587380302106L-102.0823058006069,-48.35004465509624z" style="fill:rgb(83,212,212)"/><path d="M87.73055916118514,-83.40434299001471L107.13016560794162,-34.84511972262936L89.31731413225714,-79.54597812559787z" style="fill:rgb(9,79,114)"/><path d="M-109.13308040865296,-36.109503316873464L-108.17682659128553,-44.91564830773062L-111.10570323235359,-39.85794170823487z" style="fill:rgb(83,212,212)"/><path d="M-90.6547959936183,-38.20463091172032L-96.3410856798256,-48.18073374563992L-94.29554813123161,-44.47714485087298z" style="fill:rgb(238,190,121)"/><path d="M-102.0823058006069,-48.35004465509624L-103.36274319921665,-35.897587380302106L-96.3410856798256,-48.18073374563992zM-41.06934237901026,-57.85036350163961L-92.70674630903572,-41.918217776612586L-41.14463565620699,-56.04772313343226z" style="fill:rgb(83,212,212)"/><path d="M-67.8494077262075,-14.466047998011545L-72.33690786104448,-24.70205872569147L-71.39669557265505,-20.668892624219733z" style="fill:rgb(244,176,138)"/><path d="M48.30120362862489,-86.67192132248186L53.97719926450569,-77.04486353713533L51.14515250143638,-83.61610965858686z" style="fill:rgb(19,60,138)"/><path d="M-71.39669557265505,-20.668892624219733L-66.34111976665005,-10.642143031095376L-67.8494077262075,-14.466047998011545z" style="fill:rgb(241,183,129)"/><path d="M-90.6547959936183,-38.20463091172032L-97.19529693437164,-39.37683700715176L-93.5239679349389,-33.110159716554364z" style="fill:rgb(238,121,190)"/><path d="M56.32051104769421,-73.64931636673501L51.14515250143638,-83.61610965858686L53.97719926450569,-77.04486353713533z" style="fill:rgb(15,67,129)"/><path d="M-108.17682659128553,-44.91564830773062L-109.13308040865296,-36.109503316873464L-103.36274319921665,-35.897587380302106z" style="fill:rgb(83,212,212)"/><path d="M-103.36274319921665,-35.897587380302106L-105.40378229465497,-29.880544911051746L-99.65447688696436,-29.64909344620008z" style="fill:rgb(81,32,199)"/><path d="M-97.19529693437164,-39.37683700715176L-90.6547959936183,-38.20463091172032L-94.29554813123161,-44.47714485087298z" style="fill:rgb(238,121,190)"/><path d="M-96.3410856798256,-48.18073374563992L-97.19529693437164,-39.37683700715176L-94.29554813123161,-44.47714485087298z" style="fill:rgb(83,212,212)"/><path d="M-105.40378229465497,-29.880544911051746L-103.36274319921665,-35.897587380302106L-109.13308040865296,-36.109503316873464z" style="fill:rgb(81,32,199)"/><path d="M-97.19529693437164,-39.37683700715176L-99.65447688696436,-29.64909344620008L-93.5239679349389,-33.110159716554364z" style="fill:rgb(173,56,222)"/><path d="M-96.3410856798256,-48.18073374563992L-103.36274319921665,-35.897587380302106L-97.19529693437164,-39.37683700715176zM-41.14463565620699,-56.04772313343226L-90.6547959936183,-38.20463091172032L-41.327552510456385,-51.66839845858447zM-41.512102993567,-47.249961518288615L-90.6547959936183,-38.20463091172032L-93.5239679349389,-33.110159716554364zM-57.67010969612904,-31.64860309825835L-141.28679944868674,-18.34997204900338L-142.6065050044099,-8.7967010384863z" style="fill:rgb(83,212,212)"/><path d="M-99.65447688696436,-29.64909344620008L-97.19529693437164,-39.37683700715176L-103.36274319921665,-35.897587380302106z" style="fill:rgb(173,56,222)"/><path d="M-66.34111976665005,-10.642143031095376L-71.39669557265505,-20.668892624219733L-69.89605810645583,-16.851363589014948z" style="fill:rgb(241,183,129)"/><path d="M51.14515250143638,-83.61610965858686L56.32051104769421,-73.64931636673501L53.48908249714613,-80.2311883811493z" style="fill:rgb(15,67,129)"/><path d="M-41.589029964478236,-45.40820735764007L-93.5239679349389,-33.110159716554364L-99.65447688696436,-29.64909344620008z" style="fill:rgb(83,212,212)"/><path d="M58.13919676158821,-69.951658311792L53.48908249714613,-80.2311883811493L56.32051104769421,-73.64931636673501z" style="fill:rgb(11,74,120)"/><path d="M115.70658867754584,-143.23570767631233L-40.56248227029717,-69.98541248246241L119.4255033906385,-114.37699763930011zM-90.6547959936183,-38.20463091172032L-41.512102993567,-47.249961518288615L-41.327552510456385,-51.66839845858447zM-141.28679944868674,-18.34997204900338L-57.67010969612904,-31.64860309825835L-41.589029964478236,-45.40820735764007z" style="fill:rgb(83,212,212)"/><path d="M53.48908249714613,-80.2311883811493L58.13919676158821,-69.951658311792L55.30530324581504,-76.54238841032274z" style="fill:rgb(11,74,120)"/><path d="M-93.5239679349389,-33.110159716554364L-41.589029964478236,-45.40820735764007L-41.512102993567,-47.249961518288615z" style="fill:rgb(83,212,212)"/><path d="M111.8864880529492,-172.87961373323282L169.2373680711836,137.93752773407778L133.5098810808374,-110.97112053748829z" style="fill:rgb(247,158,158)"/><path d="M-41.589029964478236,-45.40820735764007L-57.67010969612904,-31.64860309825835L-41.987509464578004,-35.867963403433485zM120.97819340313477,-102.32815467043122L14.277028364887235,-85.20163372854125L14.457904258770148,-73.09113538968836zM14.484778362492076,-71.29178334111242L75.16771280145677,-89.75438366007042L14.457904258770148,-73.09113538968836zM14.277028364887235,-85.20163372854125L120.97819340313477,-102.32815467043122L119.4255033906385,-114.37699763930011zM66.55315469918432,-81.11421230515782L14.484778362492076,-71.29178334111242L14.550071792690154,-66.92007706979179zM-142.6065050044099,-8.7967010384863L-59.764766477476584,5.016649821516092L-57.67010969612904,-31.64860309825835zM75.16771280145677,-89.75438366007042L14.484778362492076,-71.29178334111242L68.89983489915915,-86.20307447630091zM14.484778362492076,-71.29178334111242L66.55315469918432,-81.11421230515782L68.89983489915915,-86.20307447630091zM69.53224873250655,-77.43816948357484L14.550071792690154,-66.92007706979179L14.615956540298829,-62.50877942073468zM-59.764766477476584,5.016649821516092L-142.6065050044099,-8.7967010384863L-147.67195579766857,27.871794467792384zM14.643421983461737,-60.66983884822814L69.53224873250655,-77.43816948357484L14.615956540298829,-62.50877942073468zM14.550071792690154,-66.92007706979179L69.53224873250655,-77.43816948357484L66.55315469918432,-81.11421230515782zM81.73921426006015,-89.72144225107962L120.97819340313477,-102.32815467043122L75.16771280145677,-89.75438366007042zM-109.061442048683,18.288731306150183L-147.67195579766857,27.871794467792384L-147.7365614327109,28.33947194430643zM69.53224873250655,-77.43816948357484L14.643421983461737,-60.66983884822814L76.14684031422804,-77.36202361704683zM-148.04946174059256,30.60453637005786L-109.061442048683,18.288731306150183L-147.7365614327109,28.33947194430643z" style="fill:rgb(83,212,212)"/><path d="M69.53224873250655,-77.43816948357484L63.71662259599879,-87.89674267733383L66.55315469918432,-81.11421230515782z" style="fill:rgb(16,64,133)"/><path d="M84.79542742417104,-86.093401034063L121.20897538863474,-100.53729301689077L81.73921426006015,-89.72144225107962zM120.97819340313477,-102.32815467043122L81.73921426006015,-89.72144225107962L121.20897538863474,-100.53729301689077zM-147.67195579766857,27.871794467792384L-109.061442048683,18.288731306150183L-102.58567188240457,16.149733377687575zM-119.82864565900702,26.954560665208312L-148.04946174059256,30.60453637005786L-148.57116319182535,34.38110437689199zM66.08856374878582,-92.98960291644293L73.3438359961733,-84.18133577665687L72.39507729900687,-96.56002426160336zM66.69885776046587,-84.23413516472446L66.08856374878582,-92.98960291644293L63.71662259599879,-87.89674267733383zM-109.061442048683,18.288731306150183L-148.04946174059256,30.60453637005786L-115.06971833285114,22.052362943677547zM72.39507729900687,-96.56002426160336L79.72843127585762,-87.80028592564298L78.99662706230424,-96.55050158025867z" style="fill:rgb(83,212,212)"/><path d="M63.71662259599879,-87.89674267733383L69.53224873250655,-77.43816948357484L66.69885776046587,-84.23413516472446z" style="fill:rgb(16,64,133)"/><path d="M-148.04946174059256,30.60453637005786L-119.82864565900702,26.954560665208312L-115.06971833285114,22.052362943677547zM-149.2347096388151,39.184478735349586L-119.82864565900702,26.954560665208312L-148.57116319182535,34.38110437689199zM121.20897538863474,-100.53729301689077L84.79542742417104,-86.093401034063L121.76977784877467,-96.18547630710273zM123.79481308713397,-80.47124034244158L14.643421983461737,-60.66983884822814L14.785715019972125,-51.14263993020492z" style="fill:rgb(83,212,212)"/><path d="M84.79542742417104,-86.093401034063L79.72843127585762,-87.80028592564298L82.49183961358894,-80.9613361324262z" style="fill:rgb(238,121,190)"/><path d="M66.08856374878582,-92.98960291644293L66.69885776046587,-84.23413516472446L73.3438359961733,-84.18133577665687z" style="fill:rgb(83,212,212)"/><path d="M73.3438359961733,-84.18133577665687L69.53224873250655,-77.43816948357484L76.14684031422804,-77.36202361704683z" style="fill:rgb(81,32,199)"/><path d="M79.72843127585762,-87.80028592564298L84.79542742417104,-86.093401034063L82.05694179524477,-92.93642142384563z" style="fill:rgb(238,121,190)"/><path d="M78.99662706230424,-96.55050158025867L79.72843127585762,-87.80028592564298L82.05694179524477,-92.93642142384563zM122.33579380517679,-91.79320296282638L84.79542742417104,-86.093401034063L82.49183961358894,-80.9613361324262zM72.39507729900687,-96.56002426160336L73.3438359961733,-84.18133577665687L79.72843127585762,-87.80028592564298z" style="fill:rgb(83,212,212)"/><path d="M69.53224873250655,-77.43816948357484L73.3438359961733,-84.18133577665687L66.69885776046587,-84.23413516472446z" style="fill:rgb(81,32,199)"/><path d="M79.72843127585762,-87.80028592564298L76.14684031422804,-77.36202361704683L82.49183961358894,-80.9613361324262z" style="fill:rgb(173,56,222)"/><path d="M14.643421983461737,-60.66983884822814L123.79481308713397,-80.47124034244158L76.14684031422804,-77.36202361704683zM84.79542742417104,-86.093401034063L122.33579380517679,-91.79320296282638L121.76977784877467,-96.18547630710273zM122.57178951166547,-89.96187371281674L82.49183961358894,-80.9613361324262L76.14684031422804,-77.36202361704683zM-119.82864565900702,26.954560665208312L-149.2347096388151,39.184478735349586L-122.70648102265832,32.361595640406875z" style="fill:rgb(83,212,212)"/><path d="M76.14684031422804,-77.36202361704683L79.72843127585762,-87.80028592564298L73.3438359961733,-84.18133577665687z" style="fill:rgb(173,56,222)"/><path d="M-123.30106585353185,37.563227245879155L-149.2347096388151,39.184478735349586L-149.95292710103342,44.38360988049609zM-96.48378936345283,15.919365792675524L-59.764766477476584,5.016649821516092L-102.58567188240457,16.149733377687575zM-149.2347096388151,39.184478735349586L-123.30106585353185,37.563227245879155L-122.70648102265832,32.361595640406875zM82.49183961358894,-80.9613361324262L122.57178951166547,-89.96187371281674L122.33579380517679,-91.79320296282638zM-91.55995151614496,17.643779780259234L-59.84413527089078,6.405936783510408L-96.48378936345283,15.919365792675524zM-59.764766477476584,5.016649821516092L-96.48378936345283,15.919365792675524L-59.84413527089078,6.405936783510408zM76.14684031422804,-77.36202361704683L123.79481308713397,-80.47124034244158L122.57178951166547,-89.96187371281674zM-121.50070339608492,41.85814673043486L-149.95292710103342,44.38360988049609L-150.6289012826651,49.27694672098623zM-149.95292710103342,44.38360988049609L-121.50070339608492,41.85814673043486L-123.30106585353185,37.563227245879155zM-88.48290541993535,21.11758837235497L-60.01965927479781,9.47834031134486L-91.55995151614496,17.643779780259234zM-59.84413527089078,6.405936783510408L-91.55995151614496,17.643779780259234L-60.01965927479781,9.47834031134486zM-117.51527010771898,44.64766449235517L-150.6289012826651,49.27694672098623L-151.16897361696087,53.18649818278893zM-150.6289012826651,49.27694672098623L-117.51527010771898,44.64766449235517L-121.50070339608492,41.85814673043486zM-60.01965927479781,9.47834031134486L-88.48290541993535,21.11758837235497L-60.269052538108895,13.843767712522881zM-87.69413527045822,25.89757042135315L-60.269052538108895,13.843767712522881L-88.48290541993535,21.11758837235497zM-111.86540269414824,45.525958363595684L-151.16897361696087,53.18649818278893L-151.496598377867,55.558151991773265zM-105.32193955048326,44.35019781756846L-151.496598377867,55.558151991773265L-151.56459413127197,56.050373846383955zM-129.8419621702128,54.15017472887899L-151.56459413127197,56.050373846383955L-152.07642041626116,59.75545384740795zM-151.16897361696087,53.18649818278893L-111.86540269414824,45.525958363595684L-117.51527010771898,44.64766449235517zM-60.269052538108895,13.843767712522881L-87.69413527045822,25.89757042135315L-60.55998282319463,18.936264379102486zM-151.496598377867,55.558151991773265L-105.32193955048326,44.35019781756846L-111.86540269414824,45.525958363595684zM-60.853735760578296,24.07816455169643L-87.69413527045822,25.89757042135315L-89.3351631040783,31.348910703868714zM-87.69413527045822,25.89757042135315L-60.853735760578296,24.07816455169643L-60.55998282319463,18.936264379102486zM31.04438967928171,-55.51699412712099L128.50354569775692,-43.93155759851752L123.79481308713397,-80.47124034244158zM-151.56459413127197,56.050373846383955L-129.8419621702128,54.15017472887899L-61.37664689673726,33.23129622115593zM-61.110123488591334,28.566024358554603L-89.3351631040783,31.348910703868714L-93.21005564086094,36.72488342499945zM-89.3351631040783,31.348910703868714L-61.110123488591334,28.566024358554603L-60.853735760578296,24.07816455169643zM-61.2931635968472,31.76999409797869L-93.21005564086094,36.72488342499945L-98.79800125088595,41.27290619695011zM128.50354569775692,-43.93155759851752L31.04438967928171,-55.51699412712099L32.197974121715156,-18.892905297727395zM-61.37664689673726,33.23129622115593L-98.79800125088595,41.27290619695011L-105.32193955048326,44.35019781756846zM-93.21005564086094,36.72488342499945L-61.2931635968472,31.76999409797869L-61.110123488591334,28.566024358554603zM-98.79800125088595,41.27290619695011L-61.37664689673726,33.23129622115593L-61.2931635968472,31.76999409797869zM-61.37664689673726,33.23129622115593L-129.8419621702128,54.15017472887899L-61.58872844904012,36.94361507080717zM74.55975516346284,-29.430032375891756L32.197974121715156,-18.892905297727395L32.21271060803025,-18.425046627462734zM68.39968803755927,-25.524179338020407L32.21271060803025,-18.425046627462734L32.28409190645476,-16.158829965584335zM32.21271060803025,-18.425046627462734L68.39968803755927,-25.524179338020407L74.55975516346284,-29.430032375891756zM32.197974121715156,-18.892905297727395L74.55975516346284,-29.430032375891756L81.56661552891802,-31.728345790858718zM63.887331925091885,-20.514302635467786L32.28409190645476,-16.158829965584335L32.40313742085805,-12.379361304222899zM32.28409190645476,-16.158829965584335L63.887331925091885,-20.514302635467786L68.39968803755927,-25.524179338020407zM32.55460642543891,-7.5705145120564925L63.887331925091885,-20.514302635467786L32.40313742085805,-12.379361304222899z" style="fill:rgb(83,212,212)"/><path d="M-121.94376552683302,200.34901804288035L-111.62726435122188,178.96068664687698L-134.715346912832,184.021891232594z" style="fill:rgb(127,37,217)"/><path d="M-152.07642041626116,59.75545384740795L-140.1369183001199,140.99208793251393L-129.8419621702128,54.15017472887899zM63.887331925091885,-20.514302635467786L32.55460642543891,-7.5705145120564925L61.62462901859742,-15.047128780647647zM61.93733559242579,-9.84046357657838L32.55460642543891,-7.5705145120564925L32.71862591394572,-2.363209795314196zM88.51280154541651,-32.11471074400927L128.50354569775692,-43.93155759851752L81.56661552891802,-31.728345790858718zM32.55460642543891,-7.5705145120564925L61.93733559242579,-9.84046357657838L61.62462901859742,-15.047128780647647zM94.48711458291429,-30.52179141588443L128.68227174216415,-42.54465165014003L88.51280154541651,-32.11471074400927zM32.87306566601629,2.539957015459177L61.93733559242579,-9.84046357657838L32.71862591394572,-2.363209795314196zM128.50354569775692,-43.93155759851752L88.51280154541651,-32.11471074400927L128.68227174216415,-42.54465165014003zM98.68376167805822,-27.13589414386257L129.0776015965585,-39.47689199363112L94.48711458291429,-30.52179141588443zM128.68227174216415,-42.54465165014003L94.48711458291429,-30.52179141588443L129.0776015965585,-39.47689199363112zM61.93733559242579,-9.84046357657838L32.87306566601629,2.539957015459177L64.82111792728399,-5.597044189343203zM69.92272184753388,-2.910308323875765L32.87306566601629,2.539957015459177L32.99650271122999,6.458849301194324zM32.87306566601629,2.539957015459177L69.92272184753388,-2.910308323875765L64.82111792728399,-5.597044189343203zM129.0776015965585,-39.47689199363112L98.68376167805822,-27.13589414386257L129.63949714643485,-35.11660023200029zM100.51010643738636,-22.38650051217951L129.63949714643485,-35.11660023200029L98.68376167805822,-27.13589414386257zM76.56848406290956,-2.1739834480248934L32.99650271122999,6.458849301194324L33.07140412882147,8.836817457666156z" style="fill:rgb(83,212,212)"/><path d="M-111.62726435122188,178.96068664687698L-121.94376552683302,200.34901804288035L169.2373680711836,137.93752773407778z" style="fill:rgb(127,37,217)"/><path d="M83.84666756079515,-3.5126582189809636L33.07140412882147,8.836817457666156L33.08695116151517,9.330408905084505zM32.99650271122999,6.458849301194324L76.56848406290956,-2.1739834480248934L69.92272184753388,-2.910308323875765zM129.63949714643485,-35.11660023200029L100.51010643738636,-22.38650051217951L130.29525631225573,-30.02792124385209zM33.07140412882147,8.836817457666156L83.84666756079515,-3.5126582189809636L76.56848406290956,-2.1739834480248934zM130.9576832966759,-24.887500106799823L100.51010643738636,-22.38650051217951L99.67967411514594,-16.902843075063696z" style="fill:rgb(83,212,212)"/><path d="M-140.1369183001199,140.99208793251393L-134.715346912832,184.021891232594L-111.62726435122188,178.96068664687698z" style="fill:rgb(127,37,217)"/><path d="M169.2373680711836,137.93752773407778L111.8864880529492,-172.87961373323282L143.89596543161161,75.51334061954415z" style="fill:rgb(247,158,158)"/><path d="M100.51010643738636,-22.38650051217951L130.9576832966759,-24.887500106799823L130.29525631225573,-30.02792124385209zM-140.1369183001199,140.99208793251393L-152.07642041626116,59.75545384740795L-164.06046381051274,146.507230404533zM132.61647853041276,-12.015279798616067L33.08695116151517,9.330408905084505L33.20399983604784,13.046483631012924zM131.53610207237912,-20.398978633199583L99.67967411514594,-16.902843075063696L96.27159001423564,-11.435777713814517zM99.67967411514594,-16.902843075063696L131.53610207237912,-20.398978633199583L130.9576832966759,-24.887500106799823zM131.94918923615256,-17.193423658783374L96.27159001423564,-11.435777713814517L90.73775517287852,-6.751341085344575zM132.1376353866203,-15.731088745719802L90.73775517287852,-6.751341085344575L83.84666756079515,-3.5126582189809636zM33.08695116151517,9.330408905084505L132.61647853041276,-12.015279798616067L132.1376353866203,-15.731088745719802zM96.27159001423564,-11.435777713814517L131.94918923615256,-17.193423658783374L131.53610207237912,-20.398978633199583zM90.73775517287852,-6.751341085344575L132.1376353866203,-15.731088745719802L131.94918923615256,-17.193423658783374z" style="fill:rgb(83,212,212)"/><path d="M-134.715346912832,184.021891232594L-140.1369183001199,140.99208793251393L-164.06046381051274,146.507230404533zM-111.62726435122188,178.96068664687698L169.2373680711836,137.93752773407778L135.18351035239692,124.85664036738592z" style="fill:rgb(127,37,217)"/><path d="M116.37921238831774,81.85684054624078L132.61647853041276,-12.015279798616067L107.31189972342868,-5.636027168195321z" style="fill:rgb(83,212,212)"/><path d="M135.18351035239692,124.85664036738592L169.2373680711836,137.93752773407778L161.5782349855529,119.07058649505144zM143.89596543161161,75.51334061954415L135.18351035239692,124.85664036738592L161.5782349855529,119.07058649505144z" style="fill:rgb(127,37,217)"/><path d="M132.61647853041276,-12.015279798616067L116.37921238831774,81.85684054624078L143.89596543161161,75.51334061954415z" style="fill:rgb(83,212,212)"/><path d="M135.18351035239692,124.85664036738592L143.89596543161161,75.51334061954415L116.37921238831774,81.85684054624078z" style="fill:rgb(127,37,217)"/></svg>
