<?xml version="1.0" encoding="UTF-8"?>
<!-- Generated by jsxcad -->
<!DOCTYPE svg PUBLIC "-//W3C//DTD SVG 1.1 Tiny//EN" "http://www.w3.org/Graphics/SVG/1.1/DTD/svg11-tiny.dtd">
<svg viewBox="-250 -250 500 500" width="500" height="500" xmlns="http://www.w3.org/2000/svg"><path d="M-33.01991317003304,-96.17163022275571L-17.186380345742172,-51.52384790166351L-12.055512854389846,-54.259336876358546z" style="fill:rgb(168,53,222)"/><path d="M-27.584795360555862,-98.80421009069407L-12.055512854389846,-54.259336876358546L-6.817071481667196,-56.78774565823637z" style="fill:rgb(161,49,222)"/><path d="M-38.349149424128015,-93.33570645538377L-22.192667572123224,-48.590271954775844L-17.186380345742172,-51.52384790166351z" style="fill:rgb(175,57,222)"/><path d="M-22.061562327706486,-101.22469558201146L-6.817071481667196,-56.78774565823637L-1.4883349436704014,-59.100598493698655z" style="fill:rgb(154,46,222)"/><path d="M-43.55500755157343,-90.30567612919542L-27.05765662470773,-45.46810558090846L-22.192667572123224,-48.590271954775844z" style="fill:rgb(182,61,221)"/><path d="M-16.468227867421646,-103.42486162978811L-1.4883349436704014,-59.100598493698655L3.9131552586021066,-61.18995493584638z" style="fill:rgb(146,43,221)"/><path d="M-27.05765662470773,-45.46810558090846L-53.52797670124989,-83.7026477186853L-31.764930095532712,-42.16735871485553z" style="fill:rgb(189,66,220)"/><path d="M-10.823050264969595,-105.39697656019436L3.9131552586021066,-61.18995493584638L9.369609646395633,-63.04839652405368z" style="fill:rgb(139,40,220)"/><path d="M-31.764930095532712,-42.16735871485553L-58.26151732178301,-80.15056223356906L-36.29838974162825,-38.698541457924605z" style="fill:rgb(196,71,219)"/><path d="M-5.144520337974931,-107.13383765046588L9.369609646395633,-63.04839652405368L14.863002120609284,-64.6690613640745z" style="fill:rgb(131,38,218)"/><path d="M-36.29838974162825,-38.698541457924605L-62.8045760151095,-76.4461687964643L-40.64228460731255,-35.07266428855752z" style="fill:rgb(202,76,217)"/><path d="M0.5486512419232905,-108.62879220088882L14.863002120609284,-64.6690613640745L20.375082827805816,-66.04564704098264z" style="fill:rgb(123,36,216)"/><path d="M-40.64228460731255,-35.07266428855752L-67.14118693610699,-72.60114783162147L-44.781219693637,-31.301243498482517z" style="fill:rgb(208,81,214)"/><path d="M6.237544656828406,-109.8757247715317L20.375082827805816,-66.04564704098264L25.887393248102097,-67.17243703674222z" style="fill:rgb(115,34,214)"/><path d="M-44.781219693637,-31.301243498482517L-71.25574382981566,-68.6276339331375L-48.700185593985836,-27.396290346080253z" style="fill:rgb(213,86,212)"/><path d="M11.903046098574704,-110.86911793739476L25.887393248102097,-67.17243703674222L31.38128222694599,-68.0443219738438z" style="fill:rgb(108,33,211)"/><path d="M-48.700185593985836,-27.396290346080253L-75.13305492497453,-64.53826502269847L-52.38459587109257,-23.370310384768384z" style="fill:rgb(218,92,209)"/><path d="M17.52586558295335,-111.60404343691816L31.38128222694599,-68.0443219738438L36.83792633527021,-68.65681115349265z" style="fill:rgb(100,32,208)"/><path d="M-52.38459587109257,-23.370310384768384L-78.7583519325456,-60.346162323904245L-55.820317179598014,-19.236313646428467z" style="fill:rgb(223,98,206)"/><path d="M-12.055512854389846,-54.259336876358546L-27.584795360555862,-98.80421009069407L-33.01991317003304,-96.17163022275571z" style="fill:rgb(161,49,222)"/><path d="M-17.186380345742172,-51.52384790166351L-33.01991317003304,-96.17163022275571L-38.349149424128015,-93.33570645538377z" style="fill:rgb(168,53,222)"/><path d="M23.086554145726822,-112.07621197594138L36.83792633527021,-68.65681115349265L42.2383429331485,-69.00607624617359z" style="fill:rgb(93,32,205)"/><path d="M-96.80118835857178,-111.93448886592131L-94.54791593449227,-97.38598117784464L-92.97852543163759,-113.0508640063754z" style="fill:rgb(83,212,212)"/><path d="M-6.817071481667196,-56.78774565823637L-22.061562327706486,-101.22469558201146L-27.584795360555862,-98.80421009069407z" style="fill:rgb(154,46,222)"/><path d="M-22.192667572123224,-48.590271954775844L-38.349149424128015,-93.33570645538377L-43.55500755157343,-90.30567612919542z" style="fill:rgb(175,57,222)"/><path d="M-98.84788669502753,-111.33677737923003L-98.74493935102107,-93.2766802095691L-96.80118835857178,-111.93448886592131zM-92.97852543163759,-113.0508640063754L-89.2030816455735,-100.670489958618L-87.88776352730817,-114.53756623382102z" style="fill:rgb(83,212,212)"/><path d="M-1.4883349436704014,-59.100598493698655L-16.468227867421646,-103.42486162978811L-22.061562327706486,-101.22469558201146z" style="fill:rgb(146,43,221)"/><path d="M-27.05765662470773,-45.46810558090846L-43.55500755157343,-90.30567612919542L-48.62026255347174,-87.0912506434794z" style="fill:rgb(182,61,221)"/><path d="M-53.52797670124989,-83.7026477186853L-27.05765662470773,-45.46810558090846L-48.62026255347174,-87.0912506434794z" style="fill:rgb(189,66,220)"/><path d="M3.9131552586021066,-61.18995493584638L-10.823050264969595,-105.39697656019436L-16.468227867421646,-103.42486162978811z" style="fill:rgb(139,40,220)"/><path d="M-55.820317179598014,-19.236313646428467L-82.11732287561543,-56.06492527108463L-58.99370048085453,-15.007796883953233z" style="fill:rgb(227,104,202)"/><path d="M-87.88776352730817,-114.53756623382102L-83.40885575374638,-102.703615854967L-82.20963091352637,-116.19580764630625z" style="fill:rgb(83,212,212)"/><path d="M-58.26151732178301,-80.15056223356906L-31.764930095532712,-42.16735871485553L-53.52797670124989,-83.7026477186853z" style="fill:rgb(196,71,219)"/><path d="M-102.95822635378039,-110.13638683068638L-101.67245103612747,-84.76844802312111L-98.84788669502753,-111.33677737923003z" style="fill:rgb(83,212,212)"/><path d="M9.369609646395633,-63.04839652405368L-5.144520337974931,-107.13383765046588L-10.823050264969595,-105.39697656019436z" style="fill:rgb(131,38,218)"/><path d="M28.5655362556816,-112.28198317959564L42.2383429331485,-69.00607624617359L47.56343682787601,-69.08896284095235z" style="fill:rgb(86,32,201)"/><path d="M-62.8045760151095,-76.4461687964643L-36.29838974162825,-38.698541457924605L-58.26151732178301,-80.15056223356906z" style="fill:rgb(202,76,217)"/><path d="M-82.20963091352637,-116.19580764630625L-77.92121302172782,-103.21580883554277L-76.70937730695748,-117.80210377068302z" style="fill:rgb(83,212,212)"/><path d="M14.863002120609284,-64.6690613640745L0.5486512419232905,-108.62879220088882L-5.144520337974931,-107.13383765046588z" style="fill:rgb(123,36,216)"/><path d="M-58.99370048085453,-15.007796883953233L-85.19618133397361,-51.70863323644694L-61.89163413005379,-10.698744527583452z" style="fill:rgb(231,110,198)"/><path d="M-67.14118693610699,-72.60114783162147L-40.64228460731255,-35.07266428855752L-62.8045760151095,-76.4461687964643z" style="fill:rgb(208,81,214)"/><path d="M33.94312676371154,-112.21842408621661L47.56343682787601,-69.08896284095235L52.794003238538366,-68.9030537523744z" style="fill:rgb(79,32,197)"/><path d="M20.375082827805816,-66.04564704098264L6.237544656828406,-109.8757247715317L0.5486512419232905,-108.62879220088882z" style="fill:rgb(115,34,214)"/><path d="M-89.2030816455735,-100.670489958618L-92.97852543163759,-113.0508640063754L-94.54791593449227,-97.38598117784464zM-76.70937730695748,-117.80210377068302L-73.46509789942196,-102.12832592789898L-72.1342687247199,-119.13821438469387zM-83.40885575374638,-102.703615854967L-87.88776352730817,-114.53756623382102L-89.2030816455735,-100.670489958618zM-94.54791593449227,-97.38598117784464L-96.80118835857178,-111.93448886592131L-98.74493935102107,-93.2766802095691zM-73.46509789942196,-102.12832592789898L-69.11040580789413,-120.02130531536336L-72.1342687247199,-119.13821438469387z" style="fill:rgb(83,212,212)"/><path d="M-71.25574382981566,-68.6276339331375L-44.781219693637,-31.301243498482517L-67.14118693610699,-72.60114783162147z" style="fill:rgb(213,86,212)"/><path d="M25.887393248102097,-67.17243703674222L11.903046098574704,-110.86911793739476L6.237544656828406,-109.8757247715317z" style="fill:rgb(108,33,211)"/><path d="M-61.89163413005379,-10.698744527583452L-87.98169983309123,-47.29183908039323L-64.50158741695172,-6.323622639053804z" style="fill:rgb(235,116,194)"/><path d="M-77.92121302172782,-103.21580883554277L-82.20963091352637,-116.19580764630625L-83.40885575374638,-102.703615854967zM-98.74493935102107,-93.2766802095691L-98.84788669502753,-111.33677737923003L-101.23563513384715,-88.87720398511267zM-70.64498453380975,-99.5686198162794L-68.05384827517318,-120.32986031224863L-69.11040580789413,-120.02130531536336z" style="fill:rgb(83,212,212)"/><path d="M39.199574811266366,-111.88333194960381L52.794003238538366,-68.9030537523744L57.910783088101674,-68.44665845738521z" style="fill:rgb(72,33,193)"/><path d="M-75.13305492497453,-64.53826502269847L-48.700185593985836,-27.396290346080253L-71.25574382981566,-68.6276339331375z" style="fill:rgb(218,92,209)"/><path d="M31.38128222694599,-68.0443219738438L17.52586558295335,-111.60404343691816L11.903046098574704,-110.86911793739476z" style="fill:rgb(100,32,208)"/><path d="M-73.46509789942196,-102.12832592789898L-76.70937730695748,-117.80210377068302L-77.92121302172782,-103.21580883554277z" style="fill:rgb(83,212,212)"/><path d="M62.894491668032735,-67.7188945542475L39.199574811266366,-111.88333194960381L57.910783088101674,-68.44665845738521z" style="fill:rgb(65,34,188)"/><path d="M-98.84788669502753,-111.33677737923003L-101.67245103612747,-84.76844802312111L-101.23563513384715,-88.87720398511267z" style="fill:rgb(255,127,127)"/><path d="M-64.50158741695172,-6.323622639053804L-90.46126247051335,-42.829559108629674L-66.81166105698419,-1.8973672950701326z" style="fill:rgb(238,122,189)"/><path d="M-78.7583519325456,-60.346162323904245L-52.38459587109257,-23.370310384768384L-75.13305492497453,-64.53826502269847z" style="fill:rgb(223,98,206)"/><path d="M36.83792633527021,-68.65681115349265L23.086554145726822,-112.07621197594138L17.52586558295335,-111.60404343691816z" style="fill:rgb(93,32,205)"/><path d="M-82.11732287561543,-56.06492527108463L-55.820317179598014,-19.236313646428467L-78.7583519325456,-60.346162323904245z" style="fill:rgb(227,104,202)"/><path d="M-69.11040580789413,-120.02130531536336L-73.46509789942196,-102.12832592789898L-70.64498453380975,-99.5686198162794z" style="fill:rgb(83,212,212)"/><path d="M67.72587076047769,-66.7196998857913L44.31510284567714,-111.2752678402003L62.894491668032735,-67.7188945542475z" style="fill:rgb(58,35,183)"/><path d="M-66.81166105698419,-1.8973672950701326L-92.62293283845086,-38.33725908816045L-68.81065232188155,2.564630324135905z" style="fill:rgb(241,128,185)"/><path d="M42.2383429331485,-69.00607624617359L28.5655362556816,-112.28198317959564L23.086554145726822,-112.07621197594138z" style="fill:rgb(86,32,201)"/><path d="M-85.19618133397361,-51.70863323644694L-58.99370048085453,-15.007796883953233L-82.11732287561543,-56.06492527108463z" style="fill:rgb(231,110,198)"/><path d="M-68.05384827517318,-120.32986031224863L-70.64498453380975,-99.5686198162794L-69.86215158363211,-95.86303106121335z" style="fill:rgb(83,212,212)"/><path d="M47.56343682787601,-69.08896284095235L33.94312676371154,-112.21842408621661L28.5655362556816,-112.28198317959564z" style="fill:rgb(79,32,197)"/><path d="M72.38574095611541,-65.44988913798L49.26994610858989,-110.39361269687745L67.72587076047769,-66.7196998857913z" style="fill:rgb(52,37,178)"/><path d="M-68.81065232188155,2.564630324135905L-94.45551639579384,-33.83084022788641L-70.48811493798407,7.0465404068061845z" style="fill:rgb(243,134,180)"/><path d="M-87.98169983309123,-47.29183908039323L-61.89163413005379,-10.698744527583452L-85.19618133397361,-51.70863323644694z" style="fill:rgb(235,116,194)"/><path d="M52.794003238538366,-68.9030537523744L39.199574811266366,-111.88333194960381L33.94312676371154,-112.21842408621661z" style="fill:rgb(72,33,193)"/><path d="M76.85505793061519,-63.91118215082324L54.04441367542464,-109.23858474433486L72.38574095611541,-65.44988913798z" style="fill:rgb(46,40,173)"/><path d="M-70.48811493798407,7.0465404068061845L-95.94860692357425,-29.32661755083092L-71.83440370220428,11.532118625911536z" style="fill:rgb(245,140,174)"/><path d="M-90.46126247051335,-42.829559108629674L-64.50158741695172,-6.323622639053804L-87.98169983309123,-47.29183908039323z" style="fill:rgb(238,122,189)"/><path d="M-10.155112142735208,-137.23860328860454L-4.544554725314361,-120.0653021494659L-4.451601547043934,-138.90425553496587zM-12.850127479242365,-112.16961136023264L-10.155112142735208,-137.23860328860454L-12.512872900757225,-136.55004738191016z" style="fill:rgb(83,212,212)"/><path d="M39.199574811266366,-111.88333194960381L62.894491668032735,-67.7188945542475L44.31510284567714,-111.2752678402003z" style="fill:rgb(65,34,188)"/><path d="M81.11497731161214,-62.10625475080676L58.61894522961183,-107.81132167464732L76.85505793061519,-63.91118215082324z" style="fill:rgb(41,42,168)"/><path d="M-4.451601547043934,-138.90425553496587L1.296836257324336,-120.13174091011398L1.268050695940037,-140.57462992829872z" style="fill:rgb(83,212,212)"/><path d="M-71.83440370220428,11.532118625911536L-97.09271366400705,-24.841287023988432L-72.84079577182874,16.004732537085534z" style="fill:rgb(246,146,169)"/><path d="M-92.62293283845086,-38.33725908816045L-66.81166105698419,-1.8973672950701326L-90.46126247051335,-42.829559108629674z" style="fill:rgb(241,128,185)"/><path d="M1.296836257324336,-120.13174091011398L3.641952172615581,-141.26789045013234L1.268050695940037,-140.57462992829872z" style="fill:rgb(83,212,212)"/><path d="M44.31510284567714,-111.2752678402003L67.72587076047769,-66.7196998857913L49.26994610858989,-110.39361269687745z" style="fill:rgb(58,35,183)"/><path d="M85.14693364154817,-60.03876927765195L62.97417396881032,-106.11389512992511L81.11497731161214,-62.10625475080676z" style="fill:rgb(36,45,162)"/><path d="M-72.84079577182874,16.004732537085534L-97.87927895447494,-20.391897960296344L-73.49951515757574,20.447396825224885z" style="fill:rgb(247,152,164)"/><path d="M-94.45551639579384,-33.83084022788641L-68.81065232188155,2.564630324135905L-92.62293283845086,-38.33725908816045z" style="fill:rgb(243,134,180)"/><path d="M-4.544554725314361,-120.0653021494659L-10.155112142735208,-137.23860328860454L-10.384974383990157,-116.7792088640277zM-10.155112142735208,-137.23860328860454L-12.850127479242365,-112.16961136023264L-10.384974383990157,-116.7792088640277z" style="fill:rgb(83,212,212)"/><path d="M49.26994610858989,-110.39361269687745L72.38574095611541,-65.44988913798L54.04441367542464,-109.23858474433486z" style="fill:rgb(52,37,178)"/><path d="M1.296836257324336,-120.13174091011398L-4.451601547043934,-138.90425553496587L-4.544554725314361,-120.0653021494659z" style="fill:rgb(83,212,212)"/><path d="M-95.94860692357425,-29.32661755083092L-70.48811493798407,7.0465404068061845L-94.45551639579384,-33.83084022788641z" style="fill:rgb(245,140,174)"/><path d="M88.93271789687803,-57.71343423436125L67.09101280025473,-104.14937767635409L85.14693364154817,-60.03876927765195z" style="fill:rgb(31,48,156)"/><path d="M-73.49951515757574,20.447396825224885L-98.30082831487044,-15.995812481496161L-73.80384023479634,24.842813979438535z" style="fill:rgb(247,158,158)"/><path d="M3.641952172615581,-141.26789045013234L1.296836257324336,-120.13174091011398L3.7405160266682267,-116.91486575602009z" style="fill:rgb(83,212,212)"/><path d="M54.04441367542464,-109.23858474433486L76.85505793061519,-63.91118215082324L58.61894522961183,-107.81132167464732z" style="fill:rgb(46,40,173)"/><path d="M-28.27418826751652,-86.1340117284774L-30.509368339250308,-76.8735159988097L-25.122869826066392,-79.83692426550219z" style="fill:rgb(171,54,222)"/><path d="M-22.692746486081575,-88.80559718535267L-25.122869826066392,-79.83692426550219L-19.571932367761416,-82.49224907274433z" style="fill:rgb(160,49,222)"/><path d="M-33.6915814473896,-83.15523458652139L-35.69064200583865,-73.62421976986802L-30.509368339250308,-76.8735159988097z" style="fill:rgb(181,61,221)"/><path d="M-16.98927421599895,-91.14961660965164L-19.571932367761416,-82.49224907274433L-13.898383607296543,-84.819220669292z" style="fill:rgb(149,44,221)"/><path d="M-98.30082831487044,-15.995812481496161L-73.7481824084088,29.173421512572787L-73.80384023479634,24.842813979438535z" style="fill:rgb(247,164,152)"/><path d="M-97.09271366400705,-24.841287023988432L-71.83440370220428,11.532118625911536L-95.94860692357425,-29.32661755083092z" style="fill:rgb(246,146,169)"/><path d="M-30.13498115938209,-131.4036863854229L-13.412462138128417,-71.51794123989968L-12.512872900757225,-136.55004738191016z" style="fill:rgb(83,212,212)"/><path d="M-35.69064200583865,-73.62421976986802L-43.87147024264382,-76.3671318501397L-40.627093968722555,-70.11310369115948z" style="fill:rgb(191,67,220)"/><path d="M-11.206675132918399,-93.14774003054316L-13.898383607296543,-84.819220669292L-8.144942106788097,-86.79962397129793z" style="fill:rgb(138,40,220)"/><path d="M92.45457262621221,-55.136029241854786L70.95073370622087,-101.92185751885334L88.93271789687803,-57.71343423436125z" style="fill:rgb(27,52,150)"/><path d="M-25.122869826066392,-79.83692426550219L-22.692746486081575,-88.80559718535267L-28.27418826751652,-86.1340117284774z" style="fill:rgb(160,49,222)"/><path d="M-30.509368339250308,-76.8735159988097L-28.27418826751652,-86.1340117284774L-33.6915814473896,-83.15523458652139z" style="fill:rgb(171,54,222)"/><path d="M-19.571932367761416,-82.49224907274433L-16.98927421599895,-91.14961660965164L-22.692746486081575,-88.80559718535267z" style="fill:rgb(149,44,221)"/><path d="M-35.69064200583865,-73.62421976986802L-33.6915814473896,-83.15523458652139L-38.90393811711994,-79.89155712142897z" style="fill:rgb(181,61,221)"/><path d="M-40.627093968722555,-70.11310369115948L-48.555725537250005,-72.60789425861846L-45.28049334474101,-66.36602685486692z" style="fill:rgb(200,74,217)"/><path d="M-5.38858055732797,-94.7837291253582L-8.144942106788097,-86.79962397129793L-2.355054835501368,-88.41734572774807z" style="fill:rgb(127,37,217)"/><path d="M-43.87147024264382,-76.3671318501397L-35.69064200583865,-73.62421976986802L-38.90393811711994,-79.89155712142897z" style="fill:rgb(191,67,220)"/><path d="M-13.898383607296543,-84.819220669292L-11.206675132918399,-93.14774003054316L-16.98927421599895,-91.14961660965164z" style="fill:rgb(138,40,220)"/><path d="M36.34290600841446,-150.81788704958606L63.048842654604044,-135.94863188928315L61.50136583623349,-158.16514672131228z" style="fill:rgb(83,212,212)"/><path d="M58.61894522961183,-107.81132167464732L81.11497731161214,-62.10625475080676L62.97417396881032,-106.11389512992511z" style="fill:rgb(41,42,168)"/><path d="M-48.555725537250005,-72.60789425861846L-40.627093968722555,-70.11310369115948L-43.87147024264382,-76.3671318501397z" style="fill:rgb(200,74,217)"/><path d="M-8.144942106788097,-86.79962397129793L-5.38858055732797,-94.7837291253582L-11.206675132918399,-93.14774003054316z" style="fill:rgb(127,37,217)"/><path d="M63.71775748356184,-158.8124235173148L69.05039294405097,-144.5337096903265L67.85760544960027,-160.02142297695673z" style="fill:rgb(83,212,212)"/><path d="M-45.28049334474101,-66.36602685486692L-52.91978945857357,-68.6414962858738L-49.614125518205256,-62.410573681516375z" style="fill:rgb(209,82,214)"/><path d="M0.42080612465950695,-96.04354524370481L-2.355054835501368,-88.41734572774807L3.427255962879133,-89.65848245564499z" style="fill:rgb(116,34,214)"/><path d="M61.50136583623349,-158.16514672131228L65.05028399108312,-140.36084365061254L63.71775748356184,-158.8124235173148z" style="fill:rgb(83,212,212)"/><path d="M-98.35100699356326,-11.670653277984815L-73.3281658001001,33.42144671240866L-73.7481824084088,29.173421512572787z" style="fill:rgb(246,169,146)"/><path d="M-68.05384827517318,-120.32986031224863L-49.28702858340544,-27.52550887580856L-44.43896135690855,-127.22635193968887zM69.05039294405097,-144.5337096903265L73.371284632921,-161.63164157640836L67.85760544960027,-160.02142297695673z" style="fill:rgb(83,212,212)"/><path d="M-97.87927895447494,-20.391897960296344L-72.84079577182874,16.004732537085534L-97.09271366400705,-24.841287023988432z" style="fill:rgb(247,152,164)"/><path d="M-52.91978945857357,-68.6414962858738L-45.28049334474101,-66.36602685486692L-48.555725537250005,-72.60789425861846z" style="fill:rgb(209,82,214)"/><path d="M-2.355054835501368,-88.41734572774807L0.42080612465950695,-96.04354524370481L-5.38858055732797,-94.7837291253582z" style="fill:rgb(116,34,214)"/><path d="M95.69527383401207,-52.31343688167107L74.5350490242722,-99.43652936923516L92.45457262621221,-55.136029241854786z" style="fill:rgb(23,56,144)"/><path d="M73.371284632921,-161.63164157640836L80.7298725766076,-150.09438136947256L79.5218117287927,-163.42784940712275z" style="fill:rgb(83,212,212)"/><path d="M-49.614125518205256,-62.410573681516375L-56.92844425430596,-64.49721403488694L-53.592995185677744,-58.27596109480159z" style="fill:rgb(217,90,210)"/><path d="M6.17688174655061,-96.91545065939138L3.427255962879133,-89.65848245564499L9.157564289302924,-90.51144125472482z" style="fill:rgb(105,33,210)"/><path d="M-56.92844425430596,-64.49721403488694L-49.614125518205256,-62.410573681516375L-52.91978945857357,-68.6414962858738z" style="fill:rgb(217,90,210)"/><path d="M3.427255962879133,-89.65848245564499L6.17688174655061,-96.91545065939138L0.42080612465950695,-96.04354524370481z" style="fill:rgb(105,33,210)"/><path d="M62.97417396881032,-106.11389512992511L85.14693364154817,-60.03876927765195L67.09101280025473,-104.14937767635409z" style="fill:rgb(36,45,162)"/><path d="M79.5218117287927,-163.42784940712275L86.88683123475847,-150.7552833496754L85.48035479143523,-165.1679747471423z" style="fill:rgb(83,212,212)"/><path d="M-53.592995185677744,-58.27596109480159L-60.54838187749,-60.20588668155294L-57.184017951640385,-53.99298087078201z" style="fill:rgb(224,99,205)"/><path d="M11.83482702248589,-97.39014601062915L9.157564289302924,-90.51144125472482L14.7912262134637,-90.96707678004678z" style="fill:rgb(94,32,205)"/><path d="M-10.473366526180525,-108.91167180690731L-15.925141184510009,-118.63274000467023L-12.850127479242365,-112.16961136023264z" style="fill:rgb(16,64,133)"/><path d="M-98.02467175072516,-7.434253851395727L-72.54072267106498,37.568964201226976L-73.3281658001001,33.42144671240866z" style="fill:rgb(245,175,140)"/><path d="M-44.43896135690855,-127.22635193968887L-33.435593552137526,-31.764996542257887L-30.13498115938209,-131.4036863854229z" style="fill:rgb(83,212,212)"/><path d="M-98.30082831487044,-15.995812481496161L-73.49951515757574,20.447396825224885L-97.87927895447494,-20.391897960296344z" style="fill:rgb(247,158,158)"/><path d="M-60.54838187749,-60.20588668155294L-53.592995185677744,-58.27596109480159L-56.92844425430596,-64.49721403488694z" style="fill:rgb(224,99,205)"/><path d="M3.641952172615581,-141.26789045013234L23.12659553946445,-81.60200842431763L21.562365791317546,-146.50136864787518z" style="fill:rgb(83,212,212)"/><path d="M9.157564289302924,-90.51144125472482L11.83482702248589,-97.39014601062915L6.17688174655061,-96.91545065939138z" style="fill:rgb(94,32,205)"/><path d="M85.48035479143523,-165.1679747471423L92.17524336613482,-149.80895240983017L90.43717574431358,-166.61555988639955zM-13.435029154255727,-123.24451722620995L-13.550025707173313,-115.38802985746243L-7.561084199242962,-126.54697330416151z" style="fill:rgb(83,212,212)"/><path d="M98.63824515858629,-49.25369241008825L77.82623770711137,-96.6996876607533L95.69527383401207,-52.31343688167107z" style="fill:rgb(19,60,138)"/><path d="M73.371284632921,-161.63164157640836L69.05039294405097,-144.5337096903265L74.51477912205885,-147.92483928287928zM80.7298725766076,-150.09438136947256L73.371284632921,-161.63164157640836L74.51477912205885,-147.92483928287928zM69.05039294405097,-144.5337096903265L63.71775748356184,-158.8124235173148L65.05028399108312,-140.36084365061254z" style="fill:rgb(83,212,212)"/><path d="M-57.184017951640385,-53.99298087078201L-63.74842298676434,-55.799803791414085L-60.35624286508769,-49.593865373736854z" style="fill:rgb(230,107,200)"/><path d="M-13.550025707173313,-115.38802985746243L-13.435029154255727,-123.24451722620995L-15.925141184510009,-118.63274000467023zM-94.74991160391528,-79.42918000298168L-96.7612809738445,-34.75822838593706L-92.48214781575093,-79.26302876810935z" style="fill:rgb(83,212,212)"/><path d="M17.349810913247083,-97.46087176371553L14.7912262134637,-90.96707678004678L20.283582755999998,-91.01879178105193z" style="fill:rgb(83,32,200)"/><path d="M67.09101280025473,-104.14937767635409L88.93271789687803,-57.71343423436125L70.95073370622087,-101.92185751885334z" style="fill:rgb(31,48,156)"/><path d="M-96.33528570030676,-79.54533673542419L-99.65447688696396,-29.649093446199966L-94.74991160391528,-79.42918000298168zM-7.561084199242962,-126.54697330416151L-7.65290753092861,-115.44024981928926L-1.6967011237458585,-126.63463441527243zM-92.48214781575093,-79.26302876810935L-95.38109763489012,-35.537182841810456L-91.24223534655945,-79.17219269063305zM90.43717574431358,-166.61555988639955L95.88162612998158,-147.36315969484647L93.71358285297279,-167.57240332344276z" style="fill:rgb(83,212,212)"/><path d="M-63.74842298676434,-55.799803791414085L-57.184017951640385,-53.99298087078201L-60.54838187749,-60.20588668155294z" style="fill:rgb(230,107,200)"/><path d="M86.88683123475847,-150.7552833496754L79.5218117287927,-163.42784940712275L80.7298725766076,-150.09438136947256z" style="fill:rgb(83,212,212)"/><path d="M14.7912262134637,-90.96707678004678L17.349810913247083,-97.46087176371553L11.83482702248589,-97.39014601062915z" style="fill:rgb(83,32,200)"/><path d="M-15.925141184510009,-118.63274000467023L-10.473366526180525,-108.91167180690731L-13.550025707173313,-115.38802985746243z" style="fill:rgb(16,64,133)"/><path d="M65.05028399108312,-140.36084365061254L61.50136583623349,-158.16514672131228L63.048842654604044,-135.94863188928315zM-91.24223534655945,-79.17219269063305L-90.65479599361795,-38.204630911720166L-86.86510119799513,-80.1299453991252z" style="fill:rgb(83,212,212)"/><path d="M-97.3180330433671,-3.3045914803012137L-71.3841485768002,41.59797775369264L-72.54072267106498,37.568964201226976z" style="fill:rgb(243,180,134)"/><path d="M-122.08619069002538,-104.5502632692135L-121.6915074493448,59.25576376096157L-102.95822635378039,-110.13638683068638zM-86.86510119799513,-80.1299453991252L-89.14642109640732,-38.1516407605219L-85.38651234562228,-80.45347046754345z" style="fill:rgb(83,212,212)"/><path d="M3.7405160266682267,-116.91486575602009L-1.7112665959124618,-118.78418694234342L1.307906553656831,-112.26985677544526z" style="fill:rgb(238,121,190)"/><path d="M-7.561084199242962,-126.54697330416151L-13.550025707173313,-115.38802985746243L-7.65290753092861,-115.44024981928926zM93.71358285297279,-167.57240332344276L97.48503712654079,-143.7276814592293L94.85842037781445,-167.90675038288344z" style="fill:rgb(83,212,212)"/><path d="M-7.65290753092861,-115.44024981928926L-10.473366526180525,-108.91167180690731L-4.599434767556524,-108.94268985378758z" style="fill:rgb(81,32,199)"/><path d="M-60.35624286508769,-49.593865373736854L-66.49975549471031,-51.31260395087433L-63.081085875956816,-45.11222798252111z" style="fill:rgb(235,116,194)"/><path d="M-1.7112665959124618,-118.78418694234342L3.7405160266682267,-116.91486575602009L0.7461096265203737,-123.43142091005207z" style="fill:rgb(238,121,190)"/><path d="M22.677217602774302,-97.12352563696103L20.283582755999998,-91.01879178105193L25.590190795404354,-90.66265377137398z" style="fill:rgb(73,33,194)"/><path d="M101.26766310755674,-45.96599330585696L80.8072230066753,-93.71878677832017L98.63824515858629,-49.25369241008825z" style="fill:rgb(16,65,132)"/><path d="M-1.6967011237458585,-126.63463441527243L-1.7112665959124618,-118.78418694234342L0.7461096265203737,-123.43142091005207zM-85.38651234562228,-80.45347046754345L-84.86078393728631,-38.001083304782895L-81.09649752097053,-82.49766539229937z" style="fill:rgb(83,212,212)"/><path d="M-73.7481824084088,29.173421512572787L-98.30082831487044,-15.995812481496161L-98.35100699356326,-11.670653277984815z" style="fill:rgb(247,164,152)"/><path d="M92.17524336613482,-149.80895240983017L85.48035479143523,-165.1679747471423L86.88683123475847,-150.7552833496754z" style="fill:rgb(83,212,212)"/><path d="M-10.473366526180525,-108.91167180690731L-7.65290753092861,-115.44024981928926L-13.550025707173313,-115.38802985746243z" style="fill:rgb(81,32,199)"/><path d="M-1.7112665959124618,-118.78418694234342L-4.599434767556524,-108.94268985378758L1.307906553656831,-112.26985677544526z" style="fill:rgb(173,56,222)"/><path d="M-66.49975549471031,-51.31260395087433L-60.35624286508769,-49.593865373736854L-63.74842298676434,-55.799803791414085z" style="fill:rgb(235,116,194)"/><path d="M20.283582755999998,-91.01879178105193L22.677217602774302,-97.12352563696103L17.349810913247083,-97.46087176371553z" style="fill:rgb(73,33,194)"/><path d="M-81.09649752097053,-82.49766539229937L-83.53579121935647,-35.63578138628298L-79.5825523808539,-83.2190589030802zM-1.6967011237458585,-126.63463441527243L-7.65290753092861,-115.44024981928926L-1.7112665959124618,-118.78418694234342z" style="fill:rgb(83,212,212)"/><path d="M70.95073370622087,-101.92185751885334L92.45457262621221,-55.136029241854786L74.5350490242722,-99.43652936923516z" style="fill:rgb(27,52,150)"/><path d="M-79.5825523808539,-83.2190589030802L-82.75192931743581,-34.2364871011493L-78.6673974250395,-83.93483800472505z" style="fill:rgb(83,212,212)"/><path d="M30.667068296617767,-89.89756373764372L22.677217602774302,-97.12352563696103L25.590190795404354,-90.66265377137398z" style="fill:rgb(63,34,187)"/><path d="M-4.599434767556524,-108.94268985378758L-1.7112665959124618,-118.78418694234342L-7.65290753092861,-115.44024981928926z" style="fill:rgb(173,56,222)"/><path d="M-102.95822635378039,-110.13638683068638L-114.63749113206771,37.18291167330406L-101.67245103612747,-84.76844802312111z" style="fill:rgb(83,212,212)"/><path d="M-63.081085875956816,-45.11222798252111L-68.77617556298163,-46.77913719108208L-65.33258644728893,-40.582882835969194z" style="fill:rgb(239,125,187)"/><path d="M-96.22868229531976,0.7002808922584293L-69.85823751883848,45.49048724700802L-71.3841485768002,41.59797775369264z" style="fill:rgb(241,185,128)"/><path d="M95.88162612998158,-147.36315969484647L90.43717574431358,-166.61555988639955L92.17524336613482,-149.80895240983017z" style="fill:rgb(83,212,212)"/><path d="M-68.77617556298163,-46.77913719108208L-63.081085875956816,-45.11222798252111L-66.49975549471031,-51.31260395087433z" style="fill:rgb(239,125,187)"/><path d="M103.56858708345966,-42.46073355186849L83.46171174787828,-90.50247708481388L101.26766310755674,-45.96599330585696z" style="fill:rgb(13,69,126)"/><path d="M-73.3281658001001,33.42144671240866L-98.35100699356326,-11.670653277984815L-98.02467175072516,-7.434253851395727z" style="fill:rgb(246,169,146)"/><path d="M22.677217602774302,-97.12352563696103L30.667068296617767,-89.89756373764372L27.77289830721519,-96.37683299711941z" style="fill:rgb(63,34,187)"/><path d="M35.47098201098035,-88.72537144543514L27.77289830721519,-96.37683299711941L30.667068296617767,-89.89756373764372z" style="fill:rgb(54,37,180)"/><path d="M74.5350490242722,-99.43652936923516L95.69527383401207,-52.31343688167107L77.82623770711137,-96.6996876607533z" style="fill:rgb(23,56,144)"/><path d="M-65.33258644728893,-40.582882835969194L-70.55438262487407,-42.235334181290206L-67.08767532271177,-36.041734655922674z" style="fill:rgb(243,134,180)"/><path d="M97.48503712654079,-143.7276814592293L93.71358285297279,-167.57240332344276L95.88162612998158,-147.36315969484647zM-12.850127479242365,-112.16961136023264L-10.885652016105169,-72.21529484718516L-10.473366526180525,-108.91167180690731z" style="fill:rgb(83,212,212)"/><path d="M-70.55438262487407,-42.235334181290206L-65.33258644728893,-40.582882835969194L-68.77617556298163,-46.77913719108208z" style="fill:rgb(243,134,180)"/><path d="M-94.75574714531514,4.5623170103259065L-67.96431426733295,49.22858636854807L-69.85823751883848,45.49048724700802z" style="fill:rgb(238,189,122)"/><path d="M-13.412462138128417,-71.51794123989968L-30.13498115938209,-131.4036863854229L-32.29133708593918,-66.30774460811571z" style="fill:rgb(83,212,212)"/><path d="M27.77289830721519,-96.37683299711941L35.47098201098035,-88.72537144543514L32.59345553404598,-95.2224635473383z" style="fill:rgb(54,37,180)"/><path d="M105.52703429652995,-38.74950584720471L85.77428381922533,-87.06062858066461L103.56858708345966,-42.46073355186849z" style="fill:rgb(11,74,120)"/><path d="M-72.54072267106498,37.568964201226976L-98.02467175072516,-7.434253851395727L-97.3180330433671,-3.3045914803012137z" style="fill:rgb(245,175,140)"/><path d="M39.95975824193145,-87.1510079646736L32.59345553404598,-95.2224635473383L35.47098201098035,-88.72537144543514z" style="fill:rgb(45,40,172)"/><path d="M-10.473366526180525,-108.91167180690731L-4.772326594027549,-73.90244784032441L-4.599434767556524,-108.94268985378758z" style="fill:rgb(83,212,212)"/><path d="M77.82623770711137,-96.6996876607533L98.63824515858629,-49.25369241008825L80.8072230066753,-93.71878677832017z" style="fill:rgb(19,60,138)"/><path d="M1.3595486966062584,-75.5947246276761L3.7405160266682267,-116.91486575602009L1.307906553656831,-112.26985677544526z" style="fill:rgb(83,212,212)"/><path d="M-67.08767532271177,-36.041734655922674L-71.81425622298916,-37.71801707800552L-68.32647051957373,-31.525585316125966zM-71.81425622298916,-37.71801707800552L-67.08767532271177,-36.041734655922674L-70.55438262487407,-42.235334181290206z" style="fill:rgb(245,143,172)"/><path d="M21.562365791317546,-146.50136864787518L40.39669163365306,-51.51155272015255L36.34290600841446,-150.81788704958606zM-4.599434767556524,-108.94268985378758L1.3595486966062584,-75.5947246276761L1.307906553656831,-112.26985677544526zM-95.38109763489012,-35.537182841810456L-92.48214781575093,-79.26302876810935L-96.7612809738445,-34.75822838593706zM-101.67245103612747,-84.76844802312111L-111.76582493380658,31.709136433784714L-99.97118827560396,-81.5060656518535zM-90.65479599361795,-38.204630911720166L-91.24223534655945,-79.17219269063305L-95.38109763489012,-35.537182841810456z" style="fill:rgb(83,212,212)"/><path d="M32.59345553404598,-95.2224635473383L39.95975824193145,-87.1510079646736L37.09655589632541,-93.66516589492218z" style="fill:rgb(45,40,172)"/><path d="M-89.14642109640732,-38.1516407605219L-86.86510119799513,-80.1299453991252L-90.65479599361795,-38.204630911720166zM-96.7612809738445,-34.75822838593706L-94.74991160391528,-79.42918000298168L-99.65447688696396,-29.649093446199966z" style="fill:rgb(83,212,212)"/><path d="M107.13016560794122,-34.84511972262923L87.73055916118477,-83.40434299001438L105.52703429652995,-38.74950584720471z" style="fill:rgb(9,79,114)"/><path d="M-71.3841485768002,41.59797775369264L-97.3180330433671,-3.3045914803012137L-96.22868229531976,0.7002808922584293z" style="fill:rgb(243,180,134)"/><path d="M44.092625711833456,-85.1826074364165L37.09655589632541,-93.66516589492218L39.95975824193145,-87.1510079646736z" style="fill:rgb(37,44,164)"/><path d="M-99.97118827560396,-81.5060656518535L-106.98471090624442,26.751981466855355L-96.33528570030676,-79.54533673542419zM-84.86078393728631,-38.001083304782895L-85.38651234562228,-80.45347046754345L-89.14642109640732,-38.1516407605219z" style="fill:rgb(83,212,212)"/><path d="M80.8072230066753,-93.71878677832017L101.26766310755674,-45.96599330585696L83.46171174787828,-90.50247708481388z" style="fill:rgb(16,65,132)"/><path d="M-68.32647051957373,-31.525585316125966L-72.53917645259062,-33.26469667412326L-69.03257359288524,-27.071930709568452zM-72.53917645259062,-33.26469667412326L-68.32647051957373,-31.525585316125966L-71.81425622298916,-37.71801707800552z" style="fill:rgb(247,151,164)"/><path d="M-83.53579121935647,-35.63578138628298L-81.09649752097053,-82.49766539229937L-84.86078393728631,-38.001083304782895zM23.12659553946445,-81.60200842431763L3.641952172615581,-141.26789045013234L3.9049076714087994,-76.29719759455652z" style="fill:rgb(83,212,212)"/><path d="M37.09655589632541,-93.66516589492218L44.092625711833456,-85.1826074364165L41.24127432757001,-91.71289128424385z" style="fill:rgb(37,44,164)"/><path d="M-72.53917645259062,-33.26469667412326L-69.1933689227063,-22.718719498952048L-69.03257359288524,-27.071930709568452z" style="fill:rgb(247,160,156)"/><path d="M47.83059088412423,-82.83162110642488L41.24127432757001,-91.71289128424385L44.092625711833456,-85.1826074364165z" style="fill:rgb(30,49,155)"/><path d="M-82.75192931743581,-34.2364871011493L-79.5825523808539,-83.2190589030802L-83.53579121935647,-35.63578138628298z" style="fill:rgb(83,212,212)"/><path d="M-69.85823751883848,45.49048724700802L-96.22868229531976,0.7002808922584293L-94.75574714531514,4.5623170103259065z" style="fill:rgb(241,185,128)"/><path d="M83.46171174787828,-90.50247708481388L103.56858708345966,-42.46073355186849L85.77428381922533,-87.06062858066461z" style="fill:rgb(13,69,126)"/><path d="M-80.05665800225752,25.86906402999369L-69.86215158363211,-95.86303106121335L-71.25016244342287,-91.50287952724682zM-10.885652016105169,-72.21529484718516L-12.850127479242365,-112.16961136023264L-13.412462138128417,-71.51794123989968z" style="fill:rgb(83,212,212)"/><path d="M-69.1933689227063,-22.718719498952048L-72.53917645259062,-33.26469667412326L-72.71630035951266,-28.913330932045717z" style="fill:rgb(247,160,156)"/><path d="M41.24127432757001,-91.71289128424385L47.83059088412423,-82.83162110642488L44.98847170588535,-89.37691093955445z" style="fill:rgb(30,49,155)"/><path d="M-78.6673974250395,-83.93483800472505L-83.2033608206304,22.340513578456076L-74.642212795829,-87.08312860741893zM-74.642212795829,-87.08312860741893L-80.05665800225752,25.86906402999369L-71.25016244342287,-91.50287952724682zM-4.772326594027549,-73.90244784032441L-10.473366526180525,-108.91167180690731L-10.885652016105169,-72.21529484718516z" style="fill:rgb(83,212,212)"/><path d="M-72.71630035951266,-28.913330932045717L-68.80034878074018,-18.504086899768552L-69.1933689227063,-22.718719498952048z" style="fill:rgb(246,168,147)"/><path d="M51.13684544505952,-80.11292154652148L44.98847170588535,-89.37691093955445L47.83059088412423,-82.83162110642488z" style="fill:rgb(24,54,147)"/><path d="M-67.96431426733295,49.22858636854807L-94.75574714531514,4.5623170103259065L-92.89992955272035,8.263565279971107z" style="fill:rgb(238,189,122)"/><path d="M-125.57783912737513,-110.6305876397996L-154.52629766550282,144.30929383727994L-122.08619069002538,-104.5502632692135z" style="fill:rgb(247,158,158)"/><path d="M3.7405160266682267,-116.91486575602009L1.3595486966062584,-75.5947246276761L3.9049076714087994,-76.29719759455652zM1.3595486966062584,-75.5947246276761L-4.599434767556524,-108.94268985378758L-4.772326594027549,-73.90244784032441z" style="fill:rgb(83,212,212)"/><path d="M85.77428381922533,-87.06062858066461L105.52703429652995,-38.74950584720471L87.73055916118477,-83.40434299001438z" style="fill:rgb(11,74,120)"/><path d="M-68.80034878074018,-18.504086899768552L-72.71630035951266,-28.913330932045717L-72.3369078610442,-24.70205872569137z" style="fill:rgb(246,168,147)"/><path d="M44.98847170588535,-89.37691093955445L51.13684544505952,-80.11292154652148L48.3012036286247,-86.6719213224815z" style="fill:rgb(24,54,147)"/><path d="M-168.75677996336233,140.5034938261878L-125.57783912737513,-110.6305876397996L-133.21060793650898,-108.38768927721046z" style="fill:rgb(83,212,212)"/><path d="M-72.3369078610442,-24.70205872569137L-67.84940772620723,-14.466047998011488L-68.80034878074018,-18.504086899768552z" style="fill:rgb(244,176,138)"/><path d="M53.97719926450547,-77.04486353713502L48.3012036286247,-86.6719213224815L51.13684544505952,-80.11292154652148z" style="fill:rgb(19,60,138)"/><path d="M-33.435593552137526,-31.764996542257887L-44.43896135690855,-127.22635193968887L-49.28702858340544,-27.52550887580856z" style="fill:rgb(83,212,212)"/><path d="M87.73055916118477,-83.40434299001438L107.13016560794122,-34.84511972262923L89.3173141322568,-79.54597812559756z" style="fill:rgb(9,79,114)"/><path d="M-67.84940772620723,-14.466047998011488L-72.3369078610442,-24.70205872569137L-71.39669557265476,-20.66889262421965z" style="fill:rgb(244,176,138)"/><path d="M48.3012036286247,-86.6719213224815L53.97719926450547,-77.04486353713502L51.14515250143618,-83.61610965858654z" style="fill:rgb(19,60,138)"/><path d="M-71.39669557265476,-20.66889262421965L-66.34111976664978,-10.642143031095332L-67.84940772620723,-14.466047998011488z" style="fill:rgb(241,183,129)"/><path d="M56.32051104769399,-73.64931636673472L51.14515250143618,-83.61610965858654L53.97719926450547,-77.04486353713502z" style="fill:rgb(15,67,129)"/><path d="M-96.33528570030676,-79.54533673542419L-105.09451231146197,25.565885382372663L-99.65447688696396,-29.649093446199966z" style="fill:rgb(83,212,212)"/><path d="M-88.47995476688797,-44.293428569580705L-82.75192931743581,-34.2364871011493L-84.86078393728631,-38.001083304782895z" style="fill:rgb(238,190,121)"/><path d="M-66.34111976664978,-10.642143031095332L-71.39669557265476,-20.66889262421965L-69.89605810645554,-16.85136358901488z" style="fill:rgb(241,183,129)"/><path d="M51.14515250143618,-83.61610965858654L56.32051104769399,-73.64931636673472L53.48908249714591,-80.23118838114897z" style="fill:rgb(15,67,129)"/><path d="M-100.43868108764329,-41.012717233543555L-101.33404212664932,-32.09728614706042L-94.29554813123123,-44.47714485087279z" style="fill:rgb(83,212,212)"/><path d="M58.139196761587975,-69.95165831179175L53.48908249714591,-80.23118838114897L56.32051104769399,-73.64931636673472z" style="fill:rgb(11,74,120)"/><path d="M-101.33404212664932,-32.09728614706042L-100.43868108764329,-41.012717233543555L-103.36274319921625,-35.897587380301964z" style="fill:rgb(83,212,212)"/><path d="M-82.75192931743581,-34.2364871011493L-88.47995476688797,-44.293428569580705L-86.37715653282675,-40.538774274502615z" style="fill:rgb(238,190,121)"/><path d="M-94.29554813123123,-44.47714485087279L-95.48835363541488,-31.870005185524146L-88.47995476688797,-44.293428569580705zM-82.75192931743581,-34.2364871011493L-83.2033608206304,22.340513578456076L-78.6673974250395,-83.93483800472505zM72.24085489247955,-126.79824479806354L78.47617494443526,-82.50997094535745L74.85879732110554,-126.69717206433306zM70.41085015765888,-126.86888922333623L76.14684031422772,-77.36202361704652L72.24085489247955,-126.79824479806354z" style="fill:rgb(83,212,212)"/><path d="M53.48908249714591,-80.23118838114897L58.139196761587975,-69.95165831179175L55.30530324581482,-76.54238841032243z" style="fill:rgb(11,74,120)"/><path d="M74.85879732110554,-126.69717206433306L79.90446334812953,-83.31990379716358L76.29031365554731,-126.64190492396033z" style="fill:rgb(83,212,212)"/><path d="M-82.75192931743581,-34.2364871011493L-89.27112142785174,-35.38007476392965L-85.61515248513572,-29.08390569348683z" style="fill:rgb(238,121,190)"/><path d="M-94.29554813123123,-44.47714485087279L-101.33404212664932,-32.09728614706042L-95.48835363541488,-31.870005185524146z" style="fill:rgb(83,212,212)"/><path d="M-95.48835363541488,-31.870005185524146L-97.61883193096644,-25.83933265741381L-91.79484063383993,-25.592341461670916z" style="fill:rgb(81,32,199)"/><path d="M76.29031365554731,-126.64190492396033L84.7954274241707,-86.09340103406264L81.10030835557633,-127.71032321700947z" style="fill:rgb(83,212,212)"/><path d="M-89.27112142785174,-35.38007476392965L-82.75192931743581,-34.2364871011493L-86.37715653282675,-40.538774274502615z" style="fill:rgb(238,121,190)"/><path d="M-88.47995476688797,-44.293428569580705L-89.27112142785174,-35.38007476392965L-86.37715653282675,-40.538774274502615z" style="fill:rgb(83,212,212)"/><path d="M-97.61883193096644,-25.83933265741381L-95.48835363541488,-31.870005185524146L-101.33404212664932,-32.09728614706042z" style="fill:rgb(81,32,199)"/><path d="M-89.27112142785174,-35.38007476392965L-91.79484063383993,-25.592341461670916L-85.61515248513572,-29.08390569348683z" style="fill:rgb(173,56,222)"/><path d="M81.10030835557633,-127.71032321700947L86.52967850575568,-86.08143419151318L82.72524689350614,-128.0712603882039zM-88.47995476688797,-44.293428569580705L-95.48835363541488,-31.870005185524146L-89.27112142785174,-35.38007476392965zM82.72524689350614,-128.0712603882039L91.45781875873716,-86.04743305151716L87.22868839488552,-130.2110976163407z" style="fill:rgb(83,212,212)"/><path d="M-91.79484063383993,-25.592341461670916L-89.27112142785174,-35.38007476392965L-95.48835363541488,-31.870005185524146z" style="fill:rgb(173,56,222)"/><path d="M87.22868839488552,-130.2110976163407L93.4269850697733,-83.73592329736142L88.81796529380462,-130.96625108400642zM88.81796529380462,-130.96625108400642L94.59218878429174,-82.36813761111829L89.72508844126926,-131.69912059093866zM40.39669163365306,-51.51155272015255L21.562365791317546,-146.50136864787518L23.95781596018531,-47.11494860294988zM-68.05384827517318,-120.32986031224863L-52.66684509803297,41.980657108677605L-49.28702858340544,-27.52550887580856zM36.34290600841446,-150.81788704958606L73.24735829618363,10.467553526995669L63.048842654604044,-135.94863188928315zM-106.98471090624442,26.751981466855355L-99.97118827560396,-81.5060656518535L-111.76582493380658,31.709136433784714zM-102.95822635378039,-110.13638683068638L-116.85545143310796,58.04542336631106L-114.63749113206771,37.18291167330406zM-105.09451231146197,25.565885382372663L-96.33528570030676,-79.54533673542419L-106.98471090624442,26.751981466855355zM-99.65447688696396,-29.649093446199966L-102.39879737905527,23.874339588506913L-97.61883193096644,-25.83933265741381zM-111.76582493380658,31.709136433784714L-101.67245103612747,-84.76844802312111L-114.63749113206771,37.18291167330406zM-102.39879737905527,23.874339588506913L-96.30623681481639,-25.78366630240556L-97.61883193096644,-25.83933265741381zM94.85842037781445,-167.90675038288344L118.23635549156482,-0.7920411147276342L99.10235212013347,-169.146144363185zM-83.8102778080366,-32.33191798870445L-87.28383993179817,20.905323492985485L-82.75192931743581,-34.2364871011493zM-96.30623681481639,-25.78366630240556L-96.0373885466354,21.34287527814026L-91.79484063383993,-25.592341461670916zM-91.79484063383993,-25.592341461670916L-94.38618550284956,20.799697397527098L-90.18171766255387,-26.503764557763102zM-85.61515248513572,-29.08390569348683L-88.20629602380892,20.580879657151463L-83.8102778080366,-32.33191798870445zM79.90446334812953,-83.31990379716358L74.85879732110554,-126.69717206433306L78.47617494443526,-82.50997094535745zM84.7954274241707,-86.09340103406264L76.29031365554731,-126.64190492396033L79.90446334812953,-83.31990379716358zM63.33226719706682,-131.87960578588962L74.03310866246382,-15.975039037217403L65.89205195185805,-128.70482784564882zM-90.18171766255387,-26.503764557763102L-89.82149300217439,20.638070110945822L-85.61515248513572,-29.08390569348683zM86.52967850575568,-86.08143419151318L81.10030835557633,-127.71032321700947L84.7954274241707,-86.09340103406264zM78.47617494443526,-82.50997094535745L72.24085489247955,-126.79824479806354L76.14684031422772,-77.36202361704652zM-116.85545143310796,58.04542336631106L-102.95822635378039,-110.13638683068638L-121.6915074493448,59.25576376096157zM65.89205195185805,-128.70482784564882L78.56104530326041,-21.042902194806818L70.41085015765888,-126.86888922333623zM91.45781875873716,-86.04743305151716L82.72524689350614,-128.0712603882039L86.52967850575568,-86.08143419151318zM-80.05665800225752,25.86906402999369L-74.642212795829,-87.08312860741893L-83.2033608206304,22.340513578456076zM93.4269850697733,-83.73592329736142L87.22868839488552,-130.2110976163407L91.45781875873716,-86.04743305151716zM-69.86215158363211,-95.86303106121335L-80.05665800225752,25.86906402999369L-79.21743376918029,30.716450936382905zM94.59218878429174,-82.36813761111829L88.81796529380462,-130.96625108400642L93.4269850697733,-83.73592329736142zM97.48503712654079,-143.7276814592293L118.23635549156482,-0.7920411147276342L94.85842037781445,-167.90675038288344zM89.72508844126926,-131.69912059093866L104.97378438110124,-26.05078994781955L93.71474904358163,-134.92238543110687zM96.73770262855233,-139.38329678739385L111.16576973391896,-17.79102587540297L97.48503712654079,-143.7276814592293zM93.71474904358163,-134.92238543110687L109.26515582860428,-22.609555483146977L96.73770262855233,-139.38329678739385zM-102.39879737905527,23.874339588506913L-99.65447688696396,-29.649093446199966L-105.09451231146197,25.565885382372663zM-96.30623681481639,-25.78366630240556L-102.39879737905527,23.874339588506913L-100.92890463781599,22.951985520849476zM-52.66684509803297,41.980657108677605L-68.05384827517318,-120.32986031224863L-80.56601411547375,48.96310273395639zM-96.0373885466354,21.34287527814026L-96.30623681481639,-25.78366630240556L-100.92890463781599,22.951985520849476zM-94.38618550284956,20.799697397527098L-91.79484063383993,-25.592341461670916L-96.0373885466354,21.34287527814026z" style="fill:rgb(83,212,212)"/><path d="M143.89596543161093,75.51334061954377L133.5098810808369,-110.97112053748788L111.88648805294878,-172.87961373323216z" style="fill:rgb(247,158,158)"/><path d="M-89.82149300217439,20.638070110945822L-90.18171766255387,-26.503764557763102L-94.38618550284956,20.799697397527098zM-87.28383993179817,20.905323492985485L-83.8102778080366,-32.33191798870445L-88.20629602380892,20.580879657151463zM-88.20629602380892,20.580879657151463L-85.61515248513572,-29.08390569348683L-89.82149300217439,20.638070110945822zM-83.2033608206304,22.340513578456076L-82.75192931743581,-34.2364871011493L-87.28383993179817,20.905323492985485zM40.39669163365306,-51.51155272015255L73.24735829618363,10.467553526995669L36.34290600841446,-150.81788704958606zM70.41085015765888,-126.86888922333623L80.49935371929995,-22.274314926077352L76.14684031422772,-77.36202361704652z" style="fill:rgb(83,212,212)"/><path d="M79.20281630454207,-73.63385922472108L73.34383599617297,-84.1813357766565L76.14684031422772,-77.36202361704652z" style="fill:rgb(16,64,133)"/><path d="M-122.08619069002538,-104.5502632692135L-130.4847436345818,138.7669455295633L-121.6915074493448,59.25576376096157zM75.69841929418956,-89.33351082557684L83.14186203372455,-80.39999828960357L82.05694179524441,-92.93642142384523zM76.40363494274598,-80.46658329737352L75.69841929418956,-89.33351082557684L73.34383599617297,-84.1813357766565zM82.05694179524441,-92.93642142384523L89.57976976182762,-84.05232888491162L88.75031868334334,-92.91412966369691z" style="fill:rgb(83,212,212)"/><path d="M73.34383599617297,-84.1813357766565L79.20281630454207,-73.63385922472108L76.40363494274598,-80.46658329737352z" style="fill:rgb(16,64,133)"/><path d="M94.59218878429174,-82.36813761111829L104.97378438110124,-26.05078994781955L89.72508844126926,-131.69912059093866z" style="fill:rgb(83,212,212)"/><path d="M94.59218878429174,-82.36813761111829L89.57976976182762,-84.05232888491162L92.30735204278473,-77.17598673384933z" style="fill:rgb(238,121,190)"/><path d="M75.69841929418956,-89.33351082557684L76.40363494274598,-80.46658329737352L83.14186203372455,-80.39999828960357z" style="fill:rgb(83,212,212)"/><path d="M83.14186203372455,-80.39999828960357L79.20281630454207,-73.63385922472108L85.90970338995167,-73.54367238614046z" style="fill:rgb(81,32,199)"/><path d="M89.57976976182762,-84.05232888491162L94.59218878429174,-82.36813761111829L91.8894911368782,-89.24879525769005z" style="fill:rgb(238,121,190)"/><path d="M99.10235212013347,-169.146144363185L143.89596543161093,75.51334061954377L111.88648805294878,-172.87961373323216zM88.75031868334334,-92.91412966369691L89.57976976182762,-84.05232888491162L91.8894911368782,-89.24879525769005zM82.05694179524441,-92.93642142384523L83.14186203372455,-80.39999828960357L89.57976976182762,-84.05232888491162z" style="fill:rgb(83,212,212)"/><path d="M79.20281630454207,-73.63385922472108L83.14186203372455,-80.39999828960357L76.40363494274598,-80.46658329737352z" style="fill:rgb(81,32,199)"/><path d="M89.57976976182762,-84.05232888491162L85.90970338995167,-73.54367238614046L92.30735204278473,-77.17598673384933zM85.90970338995167,-73.54367238614046L89.57976976182762,-84.05232888491162L83.14186203372455,-80.39999828960357z" style="fill:rgb(173,56,222)"/><path d="M78.56104530326041,-21.042902194806818L65.89205195185805,-128.70482784564882L74.03310866246382,-15.975039037217403zM76.14684031422772,-77.36202361704652L83.26359123237332,-24.030440781898577L79.20281630454207,-73.63385922472108zM80.49935371929995,-22.274314926077352L70.41085015765888,-126.86888922333623L78.56104530326041,-21.042902194806818zM74.03310866246382,-15.975039037217403L63.33226719706682,-131.87960578588962L71.79117676718762,-10.438287229105613zM79.20281630454207,-73.63385922472108L84.77081942542571,-24.987988992377893L80.71422002188453,-73.61353418899783zM93.74772805223989,-80.44915395500884L100.01760158760217,-27.378325201806877L94.59218878429174,-82.36813761111829zM80.71422002188453,-73.61353418899783L90.067304615131,-26.717960653560365L85.90970338995167,-73.54367238614046zM85.90970338995167,-73.54367238614046L91.85531256355469,-27.30197022289428L87.57973728155046,-74.49185038523481zM92.30735204278473,-77.17598673384933L98.89741850625227,-27.678371765518726L93.74772805223989,-80.44915395500884zM87.57973728155046,-74.49185038523481L97.05668500593856,-27.579984695953943L92.30735204278473,-77.17598673384933zM-130.4847436345818,138.7669455295633L-122.08619069002538,-104.5502632692135L-154.52629766550282,144.30929383727994zM-115.19793523827985,42.454545960446715L-114.44670640128884,57.442574182168286L-113.33936869206511,46.8133813765989z" style="fill:rgb(83,212,212)"/><path d="M-154.52629766550282,144.30929383727994L-125.57783912737513,-110.6305876397996L-159.17011186330703,138.27593460538162z" style="fill:rgb(247,158,158)"/><path d="M109.26515582860428,-22.609555483146977L93.71474904358163,-134.92238543110687L104.97378438110124,-26.05078994781955zM-125.57783912737513,-110.6305876397996L-168.75677996336233,140.5034938261878L-159.17011186330703,138.27593460538162zM-114.44670640128884,57.442574182168286L-115.19793523827985,42.454545960446715L-116.85545143310796,58.04542336631106zM-114.44670640128884,57.442574182168286L-109.27893172053673,49.65176577933885L-113.33936869206511,46.8133813765989zM111.16576973391896,-17.79102587540297L96.73770262855233,-139.38329678739385L109.26515582860428,-22.609555483146977zM-109.94662200163536,56.31632125189955L-103.54725904985422,50.55665380834583L-109.27893172053673,49.65176577933885zM-109.27893172053673,49.65176577933885L-114.44670640128884,57.442574182168286L-109.94662200163536,56.31632125189955zM-80.83471468963056,36.23891244078807L-80.56601411547375,48.96310273395639L-79.21743376918029,30.716450936382905zM-103.54725904985422,50.55665380834583L-109.94662200163536,56.31632125189955L-103.9512497017782,54.81582815324662zM-85.38054799646365,50.168057831387465L-80.83471468963056,36.23891244078807L-84.71644070757912,41.679827510546346zM83.26359123237332,-24.030440781898577L76.14684031422772,-77.36202361704652L80.49935371929995,-22.274314926077352zM-103.54725904985422,50.55665380834583L-97.26080768825865,53.14138637137374L-96.9265780612696,49.38104877823675zM-97.26080768825865,53.14138637137374L-103.54725904985422,50.55665380834583L-103.9512497017782,54.81582815324662zM-96.9265780612696,49.38104877823675L-90.77661147071487,51.51855426463897L-90.34115911833632,46.27721970347851zM-90.34115911833632,46.27721970347851L-85.38054799646365,50.168057831387465L-84.71644070757912,41.679827510546346zM84.77081942542571,-24.987988992377893L79.20281630454207,-73.63385922472108L83.26359123237332,-24.030440781898577zM90.067304615131,-26.717960653560365L80.71422002188453,-73.61353418899783L84.77081942542571,-24.987988992377893zM-90.77661147071487,51.51855426463897L-96.9265780612696,49.38104877823675L-97.26080768825865,53.14138637137374zM-80.83471468963056,36.23891244078807L-85.38054799646365,50.168057831387465L-81.81283233168816,49.27515221605206zM-80.56601411547375,48.96310273395639L-80.83471468963056,36.23891244078807L-81.81283233168816,49.27515221605206zM91.85531256355469,-27.30197022289428L85.90970338995167,-73.54367238614046L90.067304615131,-26.717960653560365zM-85.38054799646365,50.168057831387465L-90.34115911833632,46.27721970347851L-90.77661147071487,51.51855426463897zM97.05668500593856,-27.579984695953943L87.57973728155046,-74.49185038523481L91.85531256355469,-27.30197022289428zM100.01760158760217,-27.378325201806877L93.74772805223989,-80.44915395500884L98.89741850625227,-27.678371765518726zM98.89741850625227,-27.678371765518726L92.30735204278473,-77.17598673384933L97.05668500593856,-27.579984695953943zM104.97378438110124,-26.05078994781955L94.59218878429174,-82.36813761111829L100.01760158760217,-27.378325201806877zM118.23635549156482,-0.7920411147276342L97.48503712654079,-143.7276814592293L113.1506693523324,0.48077466648133216z" style="fill:rgb(83,212,212)"/><path d="M-121.94376552683248,200.3490180428795L-102.31554165010168,176.91944521699642L-134.71534691283142,184.02189123259316z" style="fill:rgb(127,37,217)"/><path d="M73.24735829618363,10.467553526995669L40.39669163365306,-51.51155272015255L43.2333783163851,17.979284856605418z" style="fill:rgb(83,212,212)"/><path d="M133.5098810808369,-110.97112053748788L143.89596543161093,75.51334061954377L169.2373680711828,137.93752773407715z" style="fill:rgb(247,158,158)"/><path d="M-102.31554165010168,176.91944521699642L-121.94376552683248,200.3490180428795L169.2373680711828,137.93752773407715zM-130.4847436345818,138.7669455295633L-134.71534691283142,184.02189123259316L-102.31554165010168,176.91944521699642z" style="fill:rgb(127,37,217)"/><path d="M72.15887890015917,-5.159327403483584L75.89487357119958,9.804947408728511L75.12535997539491,-0.8505540302683523zM75.89487357119958,9.804947408728511L72.15887890015917,-5.159327403483584L73.24735829618363,10.467553526995669zM75.12535997539491,-0.8505540302683523L80.84144956574387,8.566946093742825L80.32686857309801,1.8853835454352075zM80.84144956574387,8.566946093742825L75.12535997539491,-0.8505540302683523L75.89487357119958,9.804947408728511zM111.7791056264048,0.8240432511866365L111.16576973391896,-17.79102587540297L110.37828805910006,-12.233574969257052zM80.32686857309801,1.8853835454352075L87.43253235017949,6.91736588893802L87.07631212530771,2.6474270305134406z" style="fill:rgb(83,212,212)"/><path d="M-134.71534691283142,184.02189123259316L-154.52629766550282,144.30929383727994L-164.06046381051195,146.50723040453235z" style="fill:rgb(127,37,217)"/><path d="M87.43253235017949,6.91736588893802L80.32686857309801,1.8853835454352075L80.84144956574387,8.566946093742825zM87.07631212530771,2.6474270305134406L94.78889755550752,5.076256431990528L94.44737961398917,1.306889967552421zM106.97513350455979,-6.698332030706299L111.7791056264048,0.8240432511866365L110.37828805910006,-12.233574969257052z" style="fill:rgb(83,212,212)"/><path d="M-154.52629766550282,144.30929383727994L-134.71534691283142,184.02189123259316L-130.4847436345818,138.7669455295633z" style="fill:rgb(127,37,217)"/><path d="M94.78889755550752,5.076256431990528L87.07631212530771,2.6474270305134406L87.43253235017949,6.91736588893802zM94.44737961398917,1.306889967552421L101.91965605251198,3.291610836646614L101.40705445999596,-1.9612072242437792zM101.40705445999596,-1.9612072242437792L107.85463998893633,1.8062367072336603L106.97513350455979,-6.698332030706299zM111.16576973391896,-17.79102587540297L111.7791056264048,0.8240432511866365L113.1506693523324,0.48077466648133216zM101.91965605251198,3.291610836646614L94.44737961398917,1.306889967552421L94.78889755550752,5.076256431990528zM107.85463998893633,1.8062367072336603L101.40705445999596,-1.9612072242437792L101.91965605251198,3.291610836646614zM111.7791056264048,0.8240432511866365L106.97513350455979,-6.698332030706299L107.85463998893633,1.8062367072336603zM143.89596543161093,75.51334061954377L99.10235212013347,-169.146144363185L127.34243115269945,79.32946526763537z" style="fill:rgb(83,212,212)"/><path d="M-102.31554165010168,176.91944521699642L169.2373680711828,137.93752773407715L161.57823498555211,119.07058649505086zM-159.17011186330703,138.27593460538162L-164.06046381051195,146.50723040453235L-154.52629766550282,144.30929383727994zM-164.06046381051195,146.50723040453235L-159.17011186330703,138.27593460538162L-168.75677996336233,140.5034938261878zM143.89596543161093,75.51334061954377L145.7015685682252,122.55094497310523L161.57823498555211,119.07058649505086zM145.7015685682252,122.55094497310523L143.89596543161093,75.51334061954377L127.34243115269945,79.32946526763537z" style="fill:rgb(127,37,217)"/></svg>
