<?xml version="1.0" encoding="UTF-8"?>
<!-- Generated by jsxcad -->
<!DOCTYPE svg PUBLIC "-//W3C//DTD SVG 1.1 Tiny//EN" "http://www.w3.org/Graphics/SVG/1.1/DTD/svg11-tiny.dtd">
<svg viewBox="-250 -250 500 500" width="500" height="500" xmlns="http://www.w3.org/2000/svg"><path d="M-33.019913170033185,-96.17163022275612L-17.186380345742243,-51.52384790166372L-12.055512854389898,-54.25933687635878z" style="fill:rgb(168,53,222)"/><path d="M-27.584795360555983,-98.8042100906945L-12.055512854389898,-54.25933687635878L-6.817071481667227,-56.78774565823662z" style="fill:rgb(161,49,222)"/><path d="M-38.349149424128186,-93.3357064553842L-22.19266757212332,-48.590271954776064L-17.186380345742243,-51.52384790166372z" style="fill:rgb(175,57,222)"/><path d="M-22.061562327706586,-101.22469558201193L-6.817071481667227,-56.78774565823662L-1.4883349436704074,-59.1005984936989z" style="fill:rgb(154,46,222)"/><path d="M-43.555007551573624,-90.30567612919582L-27.057656624707842,-45.46810558090864L-22.19266757212332,-48.590271954776064z" style="fill:rgb(182,61,221)"/><path d="M-16.46822786742172,-103.42486162978857L-1.4883349436704074,-59.1005984936989L3.913155258602122,-61.189954935846636z" style="fill:rgb(146,43,221)"/><path d="M-27.057656624707842,-45.46810558090864L-53.52797670125013,-83.70264771868568L-31.764930095532844,-42.1673587148557z" style="fill:rgb(189,66,220)"/><path d="M-10.823050264969643,-105.39697656019484L3.913155258602122,-61.189954935846636L9.36960964639567,-63.04839652405395z" style="fill:rgb(139,40,220)"/><path d="M-31.764930095532844,-42.1673587148557L-58.261517321783266,-80.15056223356942L-36.29838974162841,-38.698541457924776z" style="fill:rgb(196,71,219)"/><path d="M-5.144520337974953,-107.13383765046636L9.36960964639567,-63.04839652405395L14.863002120609352,-64.66906136407478z" style="fill:rgb(131,38,218)"/><path d="M-36.29838974162841,-38.698541457924776L-62.80457601510979,-76.44616879646465L-40.642284607312725,-35.072664288557675z" style="fill:rgb(202,76,217)"/><path d="M0.5486512419232928,-108.62879220088931L14.863002120609352,-64.66906136407478L20.375082827805905,-66.04564704098294z" style="fill:rgb(123,36,216)"/><path d="M-40.642284607312725,-35.072664288557675L-67.14118693610727,-72.60114783162179L-44.78121969363719,-31.30124349848266z" style="fill:rgb(208,81,214)"/><path d="M6.237544656828432,-109.87572477153218L20.375082827805905,-66.04564704098294L25.88739324810221,-67.17243703674251z" style="fill:rgb(115,34,214)"/><path d="M-44.78121969363719,-31.30124349848266L-71.25574382981597,-68.62763393313783L-48.70018559398605,-27.396290346080374z" style="fill:rgb(213,86,212)"/><path d="M11.903046098574757,-110.86911793739525L25.88739324810221,-67.17243703674251L31.381282226946126,-68.04432197384408z" style="fill:rgb(108,33,211)"/><path d="M-48.70018559398605,-27.396290346080374L-75.13305492497489,-64.53826502269875L-52.38459587109279,-23.370310384768487z" style="fill:rgb(218,92,209)"/><path d="M-130.81780610339754,-93.81431132019976L-90.71313136483838,-105.79845809360523L-130.76713712664673,-94.18122500003098z" style="fill:rgb(83,212,212)"/><path d="M17.52586558295343,-111.60404343691867L31.381282226946126,-68.04432197384408L36.837926335270375,-68.65681115349297z" style="fill:rgb(100,32,208)"/><path d="M-101.76201849833095,-100.52084126090364L-130.81780610339754,-93.81431132019976L-131.063138808269,-92.03777024844037z" style="fill:rgb(83,212,212)"/><path d="M-52.38459587109279,-23.370310384768487L-78.75835193254595,-60.346162323904515L-55.82031717959826,-19.236313646428556z" style="fill:rgb(223,98,206)"/><path d="M-12.055512854389898,-54.25933687635878L-27.584795360555983,-98.8042100906945L-33.019913170033185,-96.17163022275612z" style="fill:rgb(161,49,222)"/><path d="M-17.186380345742243,-51.52384790166372L-33.019913170033185,-96.17163022275612L-38.349149424128186,-93.3357064553842z" style="fill:rgb(168,53,222)"/><path d="M23.08655414572693,-112.07621197594189L36.837926335270375,-68.65681115349297L42.23834293314868,-69.0060762461739z" style="fill:rgb(93,32,205)"/><path d="M-6.817071481667227,-56.78774565823662L-22.061562327706586,-101.22469558201193L-27.584795360555983,-98.8042100906945z" style="fill:rgb(154,46,222)"/><path d="M-22.19266757212332,-48.590271954776064L-38.349149424128186,-93.3357064553842L-43.555007551573624,-90.30567612919582z" style="fill:rgb(175,57,222)"/><path d="M-130.81780610339754,-93.81431132019976L-101.76201849833095,-100.52084126090364L-96.45454720757225,-103.77791414852054zM-105.94184960165393,-96.45040828023626L-131.063138808269,-92.03777024844037L-131.47191867123738,-89.07762894213971zM-90.71313136483838,-105.79845809360523L-130.81780610339754,-93.81431132019976L-96.45454720757225,-103.77791414852054z" style="fill:rgb(83,212,212)"/><path d="M-1.4883349436704074,-59.1005984936989L-16.46822786742172,-103.42486162978857L-22.061562327706586,-101.22469558201193z" style="fill:rgb(146,43,221)"/><path d="M-27.057656624707842,-45.46810558090864L-43.555007551573624,-90.30567612919582L-48.62026255347195,-87.0912506434798z" style="fill:rgb(182,61,221)"/><path d="M-53.52797670125013,-83.70264771868568L-27.057656624707842,-45.46810558090864L-48.62026255347195,-87.0912506434798z" style="fill:rgb(189,66,220)"/><path d="M3.913155258602122,-61.189954935846636L-10.823050264969643,-105.39697656019484L-16.46822786742172,-103.42486162978857z" style="fill:rgb(139,40,220)"/><path d="M-55.82031717959826,-19.236313646428556L-82.11732287561581,-56.064925271084896L-58.993700480854784,-15.007796883953299z" style="fill:rgb(227,104,202)"/><path d="M-131.063138808269,-92.03777024844037L-105.94184960165393,-96.45040828023626L-101.76201849833095,-100.52084126090364z" style="fill:rgb(83,212,212)"/><path d="M-58.261517321783266,-80.15056223356942L-31.764930095532844,-42.1673587148557L-53.52797670125013,-83.70264771868568z" style="fill:rgb(196,71,219)"/><path d="M9.36960964639567,-63.04839652405395L-5.144520337974953,-107.13383765046636L-10.823050264969643,-105.39697656019484z" style="fill:rgb(131,38,218)"/><path d="M28.565536255681724,-112.28198317959612L42.23834293314868,-69.0060762461739L47.56343682787621,-69.08896284095265z" style="fill:rgb(86,32,201)"/><path d="M-131.99136575543946,-85.31611956867019L-105.94184960165393,-96.45040828023626L-131.47191867123738,-89.07762894213971z" style="fill:rgb(83,212,212)"/><path d="M-62.80457601510979,-76.44616879646465L-36.29838974162841,-38.698541457924776L-58.261517321783266,-80.15056223356942z" style="fill:rgb(202,76,217)"/><path d="M14.863002120609352,-64.66906136407478L0.5486512419232928,-108.62879220088931L-5.144520337974953,-107.13383765046636z" style="fill:rgb(123,36,216)"/><path d="M-58.993700480854784,-15.007796883953299L-85.196181333974,-51.70863323644718L-61.89163413005407,-10.6987445275835z" style="fill:rgb(231,110,198)"/><path d="M-67.14118693610727,-72.60114783162179L-40.642284607312725,-35.072664288557675L-62.80457601510979,-76.44616879646465z" style="fill:rgb(208,81,214)"/><path d="M33.9431267637117,-112.21842408621711L47.56343682787621,-69.08896284095265L52.7940032385386,-68.9030537523747z" style="fill:rgb(79,32,197)"/><path d="M20.375082827805905,-66.04564704098294L6.237544656828432,-109.87572477153218L0.5486512419232928,-108.62879220088931z" style="fill:rgb(115,34,214)"/><path d="M-105.94184960165393,-96.45040828023626L-131.99136575543946,-85.31611956867019L-108.43784283463036,-92.0963558791295z" style="fill:rgb(83,212,212)"/><path d="M-71.25574382981597,-68.62763393313783L-44.78121969363719,-31.30124349848266L-67.14118693610727,-72.60114783162179z" style="fill:rgb(213,86,212)"/><path d="M25.88739324810221,-67.17243703674251L11.903046098574757,-110.86911793739525L6.237544656828432,-109.87572477153218z" style="fill:rgb(108,33,211)"/><path d="M-61.89163413005407,-10.6987445275835L-87.98169983309164,-47.29183908039344L-64.50158741695202,-6.323622639053833z" style="fill:rgb(235,116,194)"/><path d="M-108.9020516410911,-88.0337188054545L-131.99136575543946,-85.31611956867019L-132.55301036542437,-81.2490335117503z" style="fill:rgb(83,212,212)"/><path d="M39.19957481126655,-111.88333194960434L52.7940032385386,-68.9030537523747L57.91078308810192,-68.4466584573855z" style="fill:rgb(72,33,193)"/><path d="M-131.99136575543946,-85.31611956867019L-108.9020516410911,-88.0337188054545L-108.43784283463036,-92.0963558791295z" style="fill:rgb(83,212,212)"/><path d="M-75.13305492497489,-64.53826502269875L-48.70018559398605,-27.396290346080374L-71.25574382981597,-68.62763393313783z" style="fill:rgb(218,92,209)"/><path d="M31.381282226946126,-68.04432197384408L17.52586558295343,-111.60404343691867L11.903046098574757,-110.86911793739525z" style="fill:rgb(100,32,208)"/><path d="M62.89449166803301,-67.7188945542478L39.19957481126655,-111.88333194960434L57.91078308810192,-68.4466584573855z" style="fill:rgb(65,34,188)"/><path d="M-64.50158741695202,-6.323622639053833L-90.46126247051377,-42.829559108629866L-66.81166105698448,-1.8973672950701412z" style="fill:rgb(238,122,189)"/><path d="M-78.75835193254595,-60.346162323904515L-52.38459587109279,-23.370310384768487L-75.13305492497489,-64.53826502269875z" style="fill:rgb(223,98,206)"/><path d="M112.93464385903877,-164.86431239257618L-129.65010399203848,-102.2701023973916L-130.76713712664673,-94.18122500003098z" style="fill:rgb(83,212,212)"/><path d="M36.837926335270375,-68.65681115349297L23.08655414572693,-112.07621197594189L17.52586558295343,-111.60404343691867z" style="fill:rgb(93,32,205)"/><path d="M-107.24707120230244,-84.81195896251344L-132.55301036542437,-81.2490335117503L-133.08105149770464,-77.42527508467403zM-132.55301036542437,-81.2490335117503L-107.24707120230244,-84.81195896251344L-108.9020516410911,-88.0337188054545z" style="fill:rgb(83,212,212)"/><path d="M-82.11732287561581,-56.064925271084896L-55.82031717959826,-19.236313646428556L-78.75835193254595,-60.346162323904515z" style="fill:rgb(227,104,202)"/><path d="M67.72587076047799,-66.71969988579158L44.315102845677345,-111.27526784020081L62.89449166803301,-67.7188945542478z" style="fill:rgb(58,35,183)"/><path d="M-66.81166105698448,-1.8973672950701412L-92.62293283845129,-38.33725908816062L-68.81065232188186,2.564630324135916z" style="fill:rgb(241,128,185)"/><path d="M42.23834293314868,-69.0060762461739L28.565536255681724,-112.28198317959612L23.08655414572693,-112.07621197594189z" style="fill:rgb(86,32,201)"/><path d="M-103.67049272395874,-82.88063545039728L-133.08105149770464,-77.42527508467403L-133.50253710503716,-74.37314278886844z" style="fill:rgb(83,212,212)"/><path d="M-85.196181333974,-51.70863323644718L-58.993700480854784,-15.007796883953299L-82.11732287561581,-56.064925271084896z" style="fill:rgb(231,110,198)"/><path d="M47.56343682787621,-69.08896284095265L33.9431267637117,-112.21842408621711L28.565536255681724,-112.28198317959612z" style="fill:rgb(79,32,197)"/><path d="M-133.08105149770464,-77.42527508467403L-103.67049272395874,-82.88063545039728L-107.24707120230244,-84.81195896251344z" style="fill:rgb(83,212,212)"/><path d="M72.38574095611573,-65.44988913798029L49.26994610859011,-110.39361269687797L67.72587076047799,-66.71969988579158z" style="fill:rgb(52,37,178)"/><path d="M-68.81065232188186,2.564630324135916L-94.45551639579428,-33.83084022788657L-70.48811493798439,7.046540406806215z" style="fill:rgb(243,134,180)"/><path d="M-133.75805168524923,-72.52285459017732L-103.67049272395874,-82.88063545039728L-133.50253710503716,-74.37314278886844zM-88.88678537716574,-105.97218605432619L71.7931811593651,-152.9316701369208L-90.71313136483838,-105.79845809360523zM-85.28709037699048,-106.31458481862279L65.63826124579467,-150.77661413523634L-88.88678537716574,-105.97218605432619zM-78.12838249361197,-102.7214434590308L-12.667506524293529,-123.10092942227537L-79.35933649630861,-103.8458632961072z" style="fill:rgb(83,212,212)"/><path d="M-87.98169983309164,-47.29183908039344L-61.89163413005407,-10.6987445275835L-85.196181333974,-51.70863323644718z" style="fill:rgb(235,116,194)"/><path d="M-83.36387518915554,-105.84736035632102L63.4311349132381,-149.40900122013693L-85.28709037699048,-106.31458481862279zM-78.11263382077222,-102.64384708384208L-18.15928219618093,-120.01318046214814L-78.12838249361197,-102.7214434590308z" style="fill:rgb(83,212,212)"/><path d="M52.7940032385386,-68.9030537523747L39.19957481126655,-111.88333194960434L33.9431267637117,-112.21842408621711z" style="fill:rgb(72,33,193)"/><path d="M-92.84681103622658,-83.79867167342901L-133.75805168524923,-72.52285459017732L-133.81106544669458,-72.13896141646529zM-80.89345965104317,-105.2472042382645L60.21273977852415,-147.41477158653936L-83.36387518915554,-105.84736035632102z" style="fill:rgb(83,212,212)"/><path d="M76.85505793061553,-63.911182150823514L54.04441367542489,-109.23858474433534L72.38574095611573,-65.44988913798029z" style="fill:rgb(46,40,173)"/><path d="M-77.38544363233714,-99.05938602120729L-18.463660404765076,-119.84204318712995L-78.11263382077222,-102.64384708384208zM-103.67049272395874,-82.88063545039728L-133.75805168524923,-72.52285459017732L-98.64190401427224,-82.52132823128683z" style="fill:rgb(83,212,212)"/><path d="M-70.48811493798439,7.046540406806215L-95.9486069235747,-29.326617550831056L-71.83440370220461,11.532118625911588z" style="fill:rgb(245,140,174)"/><path d="M-90.46126247051377,-42.829559108629866L-64.50158741695202,-6.323622639053833L-87.98169983309164,-47.29183908039344z" style="fill:rgb(238,122,189)"/><path d="M-79.59328185664211,-104.05955622164589L58.389651516324726,-145.5253836330342L-80.89345965104317,-105.2472042382645zM-133.75805168524923,-72.52285459017732L-92.84681103622658,-83.79867167342901L-98.64190401427224,-82.52132823128683zM-79.35933649630861,-103.8458632961072L56.2252772955181,-143.28231959328278L-79.59328185664211,-104.05955622164589z" style="fill:rgb(83,212,212)"/><path d="M39.19957481126655,-111.88333194960434L62.89449166803301,-67.7188945542478L44.315102845677345,-111.27526784020081z" style="fill:rgb(65,34,188)"/><path d="M-12.667506524293529,-123.10092942227537L-78.12838249361197,-102.7214434590308L-18.15928219618093,-120.01318046214814zM-18.15928219618093,-120.01318046214814L-78.11263382077222,-102.64384708384208L-18.463660404765076,-119.84204318712995z" style="fill:rgb(83,212,212)"/><path d="M81.1149773116125,-62.10625475080704L58.61894522961211,-107.81132167464783L76.85505793061553,-63.911182150823514z" style="fill:rgb(41,42,168)"/><path d="M-71.83440370220461,11.532118625911588L-97.09271366400752,-24.841287023988546L-72.84079577182906,16.0047325370856z" style="fill:rgb(246,146,169)"/><path d="M-92.62293283845129,-38.33725908816062L-66.81166105698448,-1.8973672950701412L-90.46126247051377,-42.829559108629866z" style="fill:rgb(241,128,185)"/><path d="M-18.619546769037914,-112.06383705990292L-77.38544363233714,-99.05938602120729L-78.76228163083162,-94.83874817974296zM-18.463660404765076,-119.84204318712995L-77.38544363233714,-99.05938602120729L-20.938151742070612,-115.28050002579499z" style="fill:rgb(83,212,212)"/><path d="M44.315102845677345,-111.27526784020081L67.72587076047799,-66.71969988579158L49.26994610859011,-110.39361269687797z" style="fill:rgb(58,35,183)"/><path d="M-18.315958962338932,-112.06597644154436L-78.76228163083162,-94.83874817974296L-78.79234736736409,-94.74660170418109zM-129.65010399203848,-102.2701023973916L112.93464385903877,-164.86431239257618L111.91044264558006,-172.81103411000342z" style="fill:rgb(83,212,212)"/><path d="M85.14693364154857,-60.03876927765223L62.97417396881061,-106.11389512992561L81.1149773116125,-62.10625475080704z" style="fill:rgb(36,45,162)"/><path d="M-72.84079577182906,16.0047325370856L-97.8792789544754,-20.39189796029644L-73.49951515757607,20.447396825224974z" style="fill:rgb(247,152,164)"/><path d="M-94.45551639579428,-33.83084022788657L-68.81065232188186,2.564630324135916L-92.62293283845129,-38.33725908816062z" style="fill:rgb(243,134,180)"/><path d="M-12.81924121067484,-112.10469788092963L-78.79234736736409,-94.74660170418109L-80.29402196736228,-92.80679126435021zM-77.38544363233714,-99.05938602120729L-18.619546769037914,-112.06383705990292L-20.938151742070612,-115.28050002579499zM71.7931811593651,-152.9316701369208L-88.88678537716574,-105.97218605432619L65.63826124579467,-150.77661413523634zM65.63826124579467,-150.77661413523634L-85.28709037699048,-106.31458481862279L63.4311349132381,-149.40900122013693z" style="fill:rgb(83,212,212)"/><path d="M49.26994610859011,-110.39361269687797L72.38574095611573,-65.44988913798029L54.04441367542489,-109.23858474433534z" style="fill:rgb(52,37,178)"/><path d="M63.4311349132381,-149.40900122013693L-83.36387518915554,-105.84736035632102L60.21273977852415,-147.41477158653936zM60.21273977852415,-147.41477158653936L-80.89345965104317,-105.2472042382645L58.389651516324726,-145.5253836330342z" style="fill:rgb(83,212,212)"/><path d="M-95.9486069235747,-29.326617550831056L-70.48811493798439,7.046540406806215L-94.45551639579428,-33.83084022788657z" style="fill:rgb(245,140,174)"/><path d="M-78.76228163083162,-94.83874817974296L-18.315958962338932,-112.06597644154436L-18.619546769037914,-112.06383705990292z" style="fill:rgb(83,212,212)"/><path d="M88.93271789687844,-57.713434234361515L67.09101280025503,-104.14937767635459L85.14693364154857,-60.03876927765223z" style="fill:rgb(31,48,156)"/><path d="M-73.49951515757607,20.447396825224974L-98.3008283148709,-15.995812481496237L-73.80384023479667,24.842813979438642z" style="fill:rgb(247,158,158)"/><path d="M-78.79234736736409,-94.74660170418109L-12.81924121067484,-112.10469788092963L-18.315958962338932,-112.06597644154436zM58.389651516324726,-145.5253836330342L-79.59328185664211,-104.05955622164589L56.2252772955181,-143.28231959328278zM56.2252772955181,-143.28231959328278L-79.35933649630861,-103.8458632961072L56.07022924106338,-142.9466908045004z" style="fill:rgb(83,212,212)"/><path d="M54.04441367542489,-109.23858474433534L76.85505793061553,-63.911182150823514L58.61894522961211,-107.81132167464783z" style="fill:rgb(46,40,173)"/><path d="M-28.274188267516656,-86.1340117284778L-30.509368339250443,-76.87351599881003L-25.122869826066506,-79.83692426550256z" style="fill:rgb(171,54,222)"/><path d="M-22.692746486081674,-88.80559718535307L-25.122869826066506,-79.83692426550256L-19.5719323677615,-82.4922490727447z" style="fill:rgb(160,49,222)"/><path d="M-33.691581447389765,-83.15523458652179L-35.69064200583882,-73.62421976986836L-30.509368339250443,-76.87351599881003z" style="fill:rgb(181,61,221)"/><path d="M56.94685483065174,-131.75978684081866L-80.29402196736228,-92.80679126435021L-80.58052276844987,-92.43670155552736zM-6.898766691239726,-123.17647163994634L56.07022924106338,-142.9466908045004L-12.667506524293529,-123.10092942227537z" style="fill:rgb(83,212,212)"/><path d="M-16.989274215999025,-91.14961660965206L-19.5719323677615,-82.4922490727447L-13.898383607296605,-84.81922066929238z" style="fill:rgb(149,44,221)"/><path d="M-98.3008283148709,-15.995812481496237L-73.74818240840914,29.17342151257292L-73.80384023479667,24.842813979438642z" style="fill:rgb(247,164,152)"/><path d="M-18.619546769037914,-112.06383705990292L-24.064724152038707,-121.77402878420386L-20.938151742070612,-115.28050002579499z" style="fill:rgb(16,64,133)"/><path d="M-97.09271366400752,-24.841287023988546L-71.83440370220461,11.532118625911588L-95.9486069235747,-29.326617550831056z" style="fill:rgb(246,146,169)"/><path d="M-35.69064200583882,-73.62421976986836L-43.87147024264401,-76.36713185014004L-40.62709396872275,-70.11310369115981z" style="fill:rgb(191,67,220)"/><path d="M-11.206675132918454,-93.1477400305436L-13.898383607296605,-84.81922066929238L-8.144942106788132,-86.79962397129833z" style="fill:rgb(138,40,220)"/><path d="M59.35089303504601,-130.78168705786942L-80.58052276844987,-92.43670155552736L-82.17926587130819,-90.37150449582447z" style="fill:rgb(83,212,212)"/><path d="M92.45457262621264,-55.13602924185505L70.95073370622121,-101.92185751885381L88.93271789687844,-57.713434234361515z" style="fill:rgb(27,52,150)"/><path d="M-25.122869826066506,-79.83692426550256L-22.692746486081674,-88.80559718535307L-28.274188267516656,-86.1340117284778z" style="fill:rgb(160,49,222)"/><path d="M-30.509368339250443,-76.87351599881003L-28.274188267516656,-86.1340117284778L-33.691581447389765,-83.15523458652179z" style="fill:rgb(171,54,222)"/><path d="M-19.5719323677615,-82.4922490727447L-16.989274215999025,-91.14961660965206L-22.692746486081674,-88.80559718535307z" style="fill:rgb(149,44,221)"/><path d="M-35.69064200583882,-73.62421976986836L-33.691581447389765,-83.15523458652179L-38.90393811712012,-79.89155712142934z" style="fill:rgb(181,61,221)"/><path d="M-40.62709396872275,-70.11310369115981L-48.555725537250225,-72.60789425861877L-45.28049334474122,-66.36602685486721z" style="fill:rgb(200,74,217)"/><path d="M-5.388580557327995,-94.78372912535865L-8.144942106788132,-86.79962397129833L-2.3550548355013796,-88.41734572774848z" style="fill:rgb(127,37,217)"/><path d="M-5.7563977507029085,-121.65478628902551L55.209636048866216,-141.08377399322103L-6.898766691239726,-123.17647163994634z" style="fill:rgb(83,212,212)"/><path d="M-43.87147024264401,-76.36713185014004L-35.69064200583882,-73.62421976986836L-38.90393811712012,-79.89155712142934z" style="fill:rgb(191,67,220)"/><path d="M-13.898383607296605,-84.81922066929238L-11.206675132918454,-93.1477400305436L-16.989274215999025,-91.14961660965206z" style="fill:rgb(138,40,220)"/><path d="M61.38926091732396,-129.95236724319219L-82.17926587130819,-90.37150449582447L-84.9347345441416,-88.22370039931018zM-21.565093650887757,-126.33762135335144L-15.925141184510082,-118.63274000467078L-15.735589565929093,-129.61275323376387zM-21.74819199854807,-118.57069299285334L-21.565093650887757,-126.33762135335144L-24.064724152038707,-121.77402878420386z" style="fill:rgb(83,212,212)"/><path d="M58.61894522961211,-107.81132167464783L81.1149773116125,-62.10625475080704L62.97417396881061,-106.11389512992561z" style="fill:rgb(41,42,168)"/><path d="M-48.555725537250225,-72.60789425861877L-40.62709396872275,-70.11310369115981L-43.87147024264401,-76.36713185014004z" style="fill:rgb(200,74,217)"/><path d="M-8.144942106788132,-86.79962397129833L-5.388580557327995,-94.78372912535865L-11.206675132918454,-93.1477400305436z" style="fill:rgb(127,37,217)"/><path d="M-15.735589565929093,-129.61275323376387L-10.028963976272859,-121.94867550921022L-9.944286202858365,-129.70950721155032zM64.82421429269813,-129.82524506889533L-84.9347345441416,-88.22370039931018L-87.09096098019342,-86.5429869721857z" style="fill:rgb(83,212,212)"/><path d="M-45.28049334474122,-66.36602685486721L-52.91978945857382,-68.64149628587413L-49.61412551820548,-62.41057368151665z" style="fill:rgb(209,82,214)"/><path d="M0.4208061246595089,-96.04354524370527L-2.3550548355013796,-88.41734572774848L3.4272559628791486,-89.65848245564541z" style="fill:rgb(116,34,214)"/><path d="M-24.064724152038707,-121.77402878420386L-18.619546769037914,-112.06383705990292L-21.74819199854807,-118.57069299285334z" style="fill:rgb(16,64,133)"/><path d="M-98.35100699356373,-11.670653277984869L-73.32816580010042,33.42144671240881L-73.74818240840914,29.17342151257292z" style="fill:rgb(246,169,146)"/><path d="M67.18930501552585,-129.73772414449886L-87.09096098019342,-86.5429869721857L-90.90647393376733,-84.72380068123162zM-4.514255740976627,-120.00020096037395L54.208477415589016,-138.9165960894197L-5.7563977507029085,-121.65478628902551z" style="fill:rgb(83,212,212)"/><path d="M-97.8792789544754,-20.39189796029644L-72.84079577182906,16.0047325370856L-97.09271366400752,-24.841287023988546z" style="fill:rgb(247,152,164)"/><path d="M73.5529132276071,-131.161261360218L-90.90647393376733,-84.72380068123162L-92.84681103622658,-83.79867167342901z" style="fill:rgb(83,212,212)"/><path d="M-52.91978945857382,-68.64149628587413L-45.28049334474122,-66.36602685486721L-48.555725537250225,-72.60789425861877z" style="fill:rgb(209,82,214)"/><path d="M-2.3550548355013796,-88.41734572774848L0.4208061246595089,-96.04354524370527L-5.388580557327995,-94.78372912535865z" style="fill:rgb(116,34,214)"/><path d="M-80.29402196736228,-92.80679126435021L56.94685483065174,-131.75978684081866L-12.81924121067484,-112.10469788092963z" style="fill:rgb(83,212,212)"/><path d="M-4.514255740976627,-120.00020096037395L-10.028963976272859,-121.94867550921022L-6.957180755972591,-115.40397805895157z" style="fill:rgb(238,121,190)"/><path d="M95.69527383401248,-52.3134368816713L74.53504902427255,-99.43652936923563L92.45457262621264,-55.13602924185505z" style="fill:rgb(23,56,144)"/><path d="M-21.565093650887757,-126.33762135335144L-21.74819199854807,-118.57069299285334L-15.925141184510082,-118.63274000467078z" style="fill:rgb(83,212,212)"/><path d="M-49.61412551820548,-62.41057368151665L-56.92844425430622,-64.49721403488725L-53.592995185677985,-58.27596109480185z" style="fill:rgb(217,90,210)"/><path d="M-15.925141184510082,-118.63274000467078L-18.619546769037914,-112.06383705990292L-12.81924121067484,-112.10469788092963z" style="fill:rgb(81,32,199)"/><path d="M6.176881746550638,-96.91545065939182L3.4272559628791486,-89.65848245564541L9.157564289302966,-90.51144125472523z" style="fill:rgb(105,33,210)"/><path d="M56.07022924106338,-142.9466908045004L-6.898766691239726,-123.17647163994634L55.209636048866216,-141.08377399322103z" style="fill:rgb(83,212,212)"/><path d="M-10.028963976272859,-121.94867550921022L-4.514255740976627,-120.00020096037395L-7.561084199242997,-126.5469733041621z" style="fill:rgb(238,121,190)"/><path d="M-9.944286202858365,-129.70950721155032L-10.028963976272859,-121.94867550921022L-7.561084199242997,-126.5469733041621zM-15.735589565929093,-129.61275323376387L-15.925141184510082,-118.63274000467078L-10.028963976272859,-121.94867550921022z" style="fill:rgb(83,212,212)"/><path d="M-18.619546769037914,-112.06383705990292L-15.925141184510082,-118.63274000467078L-21.74819199854807,-118.57069299285334z" style="fill:rgb(81,32,199)"/><path d="M-10.028963976272859,-121.94867550921022L-12.81924121067484,-112.10469788092963L-6.957180755972591,-115.40397805895157z" style="fill:rgb(173,56,222)"/><path d="M-56.92844425430622,-64.49721403488725L-49.61412551820548,-62.41057368151665L-52.91978945857382,-68.64149628587413z" style="fill:rgb(217,90,210)"/><path d="M3.4272559628791486,-89.65848245564541L6.176881746550638,-96.91545065939182L0.4208061246595089,-96.04354524370527z" style="fill:rgb(105,33,210)"/><path d="M62.97417396881061,-106.11389512992561L85.14693364154857,-60.03876927765223L67.09101280025503,-104.14937767635459z" style="fill:rgb(36,45,162)"/><path d="M54.450164179282474,-134.8941657737765L-4.514255740976627,-120.00020096037395L-5.781685520344847,-117.61560379436362zM55.209636048866216,-141.08377399322103L-5.7563977507029085,-121.65478628902551L54.208477415589016,-138.9165960894197z" style="fill:rgb(83,212,212)"/><path d="M-53.592995185677985,-58.27596109480185L-60.54838187749028,-60.20588668155322L-57.18401795164065,-53.992980870782254z" style="fill:rgb(224,99,205)"/><path d="M11.834827022485944,-97.3901460106296L9.157564289302966,-90.51144125472523L14.791226213463768,-90.96707678004721z" style="fill:rgb(94,32,205)"/><path d="M-98.02467175072563,-7.434253851395764L-72.5407226710653,37.56896420122714L-73.32816580010042,33.42144671240881z" style="fill:rgb(245,175,140)"/><path d="M-12.81924121067484,-112.10469788092963L-10.028963976272859,-121.94867550921022L-15.925141184510082,-118.63274000467078z" style="fill:rgb(173,56,222)"/><path d="M-98.3008283148709,-15.995812481496237L-73.49951515757607,20.447396825224974L-97.8792789544754,-20.39189796029644z" style="fill:rgb(247,158,158)"/><path d="M-133.81106544669458,-72.13896141646529L-13.46435980979295,-65.35287078209714L-92.84681103622658,-83.79867167342901z" style="fill:rgb(83,212,212)"/><path d="M-60.54838187749028,-60.20588668155322L-53.592995185677985,-58.27596109480185L-56.92844425430622,-64.49721403488725z" style="fill:rgb(224,99,205)"/><path d="M55.68436292950832,-133.34472963000619L-5.781685520344847,-117.61560379436362L-6.957180755972591,-115.40397805895157z" style="fill:rgb(83,212,212)"/><path d="M9.157564289302966,-90.51144125472523L11.834827022485944,-97.3901460106296L6.176881746550638,-96.91545065939182z" style="fill:rgb(94,32,205)"/><path d="M98.63824515858673,-49.25369241008847L77.82623770711174,-96.69968766075375L95.69527383401248,-52.3134368816713z" style="fill:rgb(19,60,138)"/><path d="M54.208477415589016,-138.9165960894197L-4.514255740976627,-120.00020096037395L54.32905200845178,-136.90985442837157zM56.75343716815524,-132.00260591297484L-6.957180755972591,-115.40397805895157L-12.81924121067484,-112.10469788092963z" style="fill:rgb(83,212,212)"/><path d="M-57.18401795164065,-53.992980870782254L-63.74842298676464,-55.79980379141435L-60.35624286508796,-49.593865373737074z" style="fill:rgb(230,107,200)"/><path d="M17.349810913247165,-97.46087176371597L14.791226213463768,-90.96707678004721L20.283582756000087,-91.01879178105234z" style="fill:rgb(83,32,200)"/><path d="M67.09101280025503,-104.14937767635459L88.93271789687844,-57.713434234361515L70.95073370622121,-101.92185751885381z" style="fill:rgb(31,48,156)"/><path d="M-4.514255740976627,-120.00020096037395L54.450164179282474,-134.8941657737765L54.32905200845178,-136.90985442837157z" style="fill:rgb(83,212,212)"/><path d="M-63.74842298676464,-55.79980379141435L-57.18401795164065,-53.992980870782254L-60.54838187749028,-60.20588668155322z" style="fill:rgb(230,107,200)"/><path d="M14.791226213463768,-90.96707678004721L17.349810913247165,-97.46087176371597L11.834827022485944,-97.3901460106296z" style="fill:rgb(83,32,200)"/><path d="M-80.58052276844987,-92.43670155552736L59.35089303504601,-130.78168705786942L56.94685483065174,-131.75978684081866zM77.8761829890925,-153.59477878572716L112.93464385903877,-164.86431239257618L71.7931811593651,-152.9316701369208z" style="fill:rgb(83,212,212)"/><path d="M-97.31803304336756,-3.3045914803012297L-71.38414857680051,41.597977753692824L-72.5407226710653,37.56896420122714z" style="fill:rgb(243,180,134)"/><path d="M-5.781685520344847,-117.61560379436362L55.68436292950832,-133.34472963000619L54.450164179282474,-134.8941657737765zM-82.17926587130819,-90.37150449582447L61.38926091732396,-129.95236724319219L59.35089303504601,-130.78168705786942z" style="fill:rgb(83,212,212)"/><path d="M-60.35624286508796,-49.593865373737074L-66.49975549471063,-51.312603950874575L-63.08108587595711,-45.112227982521325z" style="fill:rgb(235,116,194)"/><path d="M22.67721760277441,-97.12352563696147L20.283582756000087,-91.01879178105234L25.590190795404464,-90.6626537713744z" style="fill:rgb(73,33,194)"/><path d="M101.26766310755721,-45.96599330585717L80.80722300667568,-93.71878677832062L98.63824515858673,-49.25369241008847z" style="fill:rgb(16,65,132)"/><path d="M-73.74818240840914,29.17342151257292L-98.3008283148709,-15.995812481496237L-98.35100699356373,-11.670653277984869z" style="fill:rgb(247,164,152)"/><path d="M83.08632676985675,-152.66722719446574L113.07262499510763,-163.79373873408986L77.8761829890925,-153.59477878572716z" style="fill:rgb(83,212,212)"/><path d="M-66.49975549471063,-51.312603950874575L-60.35624286508796,-49.593865373737074L-63.74842298676464,-55.79980379141435z" style="fill:rgb(235,116,194)"/><path d="M20.283582756000087,-91.01879178105234L22.67721760277441,-97.12352563696147L17.349810913247165,-97.46087176371597z" style="fill:rgb(73,33,194)"/><path d="M-84.9347345441416,-88.22370039931018L64.82421429269813,-129.82524506889533L61.38926091732396,-129.95236724319219zM-6.957180755972591,-115.40397805895157L56.75343716815524,-132.00260591297484L55.68436292950832,-133.34472963000619z" style="fill:rgb(83,212,212)"/><path d="M70.95073370622121,-101.92185751885381L92.45457262621264,-55.13602924185505L74.53504902427255,-99.43652936923563z" style="fill:rgb(27,52,150)"/><path d="M112.93464385903877,-164.86431239257618L77.8761829890925,-153.59477878572716L113.07262499510763,-163.79373873408986z" style="fill:rgb(83,212,212)"/><path d="M30.66706829661791,-89.89756373764413L22.67721760277441,-97.12352563696147L25.590190795404464,-90.6626537713744z" style="fill:rgb(63,34,187)"/><path d="M-12.81924121067484,-112.10469788092963L56.94685483065174,-131.75978684081866L56.75343716815524,-132.00260591297484zM-87.09096098019342,-86.5429869721857L67.18930501552585,-129.73772414449886L64.82421429269813,-129.82524506889533z" style="fill:rgb(83,212,212)"/><path d="M-63.08108587595711,-45.112227982521325L-68.77617556298195,-46.779137191082306L-65.33258644728923,-40.582882835969386z" style="fill:rgb(239,125,187)"/><path d="M-96.22868229532023,0.7002808922584323L-69.8582375188388,45.49048724700824L-71.38414857680051,41.597977753692824z" style="fill:rgb(241,185,128)"/><path d="M-90.90647393376733,-84.72380068123162L73.5529132276071,-131.161261360218L67.18930501552585,-129.73772414449886z" style="fill:rgb(83,212,212)"/><path d="M-68.77617556298195,-46.779137191082306L-63.08108587595711,-45.112227982521325L-66.49975549471063,-51.312603950874575z" style="fill:rgb(239,125,187)"/><path d="M86.72048340150829,-150.25463923862327L113.37766641594051,-161.42693413254835L83.08632676985675,-152.66722719446574zM113.07262499510763,-163.79373873408986L83.08632676985675,-152.66722719446574L113.37766641594051,-161.42693413254835z" style="fill:rgb(83,212,212)"/><path d="M103.56858708346014,-42.4607335518687L83.46171174787868,-90.5024770848143L101.26766310755721,-45.96599330585717z" style="fill:rgb(13,69,126)"/><path d="M-73.32816580010042,33.42144671240881L-98.35100699356373,-11.670653277984869L-98.02467175072563,-7.434253851395764z" style="fill:rgb(246,169,146)"/><path d="M-13.46435980979295,-65.35287078209714L-133.81106544669458,-72.13896141646529L-139.5260461488767,-30.754577572826705z" style="fill:rgb(83,212,212)"/><path d="M22.67721760277441,-97.12352563696147L30.66706829661791,-89.89756373764413L27.77289830721532,-96.37683299711985z" style="fill:rgb(63,34,187)"/><path d="M35.47098201098052,-88.72537144543554L27.77289830721532,-96.37683299711985L30.66706829661791,-89.89756373764413z" style="fill:rgb(54,37,180)"/><path d="M74.53504902427255,-99.43652936923563L95.69527383401248,-52.3134368816713L77.82623770711174,-96.69968766075375z" style="fill:rgb(23,56,144)"/><path d="M-65.33258644728923,-40.582882835969386L-70.55438262487439,-42.2353341812904L-67.08767532271209,-36.04173465592285zM-70.55438262487439,-42.2353341812904L-65.33258644728923,-40.582882835969386L-68.77617556298195,-46.779137191082306z" style="fill:rgb(243,134,180)"/><path d="M-94.75574714531558,4.562317010325926L-67.96431426733326,49.22858636854829L-69.8582375188388,45.49048724700824z" style="fill:rgb(238,189,122)"/><path d="M113.37766641594051,-161.42693413254835L86.72048340150829,-150.25463923862327L113.81083810440636,-158.06599243022958zM88.26770718312572,-146.66271421641332L113.81083810440636,-158.06599243022958L86.72048340150829,-150.25463923862327z" style="fill:rgb(83,212,212)"/><path d="M27.77289830721532,-96.37683299711985L35.47098201098052,-88.72537144543554L32.593455534046136,-95.22246354733873z" style="fill:rgb(54,37,180)"/><path d="M105.52703429653042,-38.74950584720488L85.77428381922574,-87.06062858066504L103.56858708346014,-42.4607335518687z" style="fill:rgb(11,74,120)"/><path d="M-72.5407226710653,37.56896420122714L-98.02467175072563,-7.434253851395764L-97.31803304336756,-3.3045914803012297z" style="fill:rgb(245,175,140)"/><path d="M39.959758241931645,-87.15100796467401L32.593455534046136,-95.22246354733873L35.47098201098052,-88.72537144543554z" style="fill:rgb(45,40,172)"/><path d="M77.82623770711174,-96.69968766075375L98.63824515858673,-49.25369241008847L80.80722300667568,-93.71878677832062z" style="fill:rgb(19,60,138)"/><path d="M-67.08767532271209,-36.04173465592285L-71.8142562229895,-37.7180170780057L-68.32647051957403,-31.52558531612611zM-71.8142562229895,-37.7180170780057L-67.08767532271209,-36.04173465592285L-70.55438262487439,-42.2353341812904z" style="fill:rgb(245,143,172)"/><path d="M-92.84681103622658,-83.79867167342901L-13.46435980979295,-65.35287078209714L73.5529132276071,-131.161261360218zM-139.77552614632992,-28.947994176501705L-98.39033395933406,-42.044489418941254L-139.5260461488767,-30.754577572826705zM113.81083810440636,-158.06599243022958L88.26770718312572,-146.66271421641332L114.31579089011284,-154.14808880447742z" style="fill:rgb(83,212,212)"/><path d="M32.593455534046136,-95.22246354733873L39.959758241931645,-87.15100796467401L37.09655589632559,-93.66516589492265z" style="fill:rgb(45,40,172)"/><path d="M107.13016560794172,-34.845119722629384L87.7305591611852,-83.40434299001478L105.52703429653042,-38.74950584720488z" style="fill:rgb(9,79,114)"/><path d="M-71.38414857680051,41.597977753692824L-97.31803304336756,-3.3045914803012297L-96.22868229532023,0.7002808922584323z" style="fill:rgb(243,180,134)"/><path d="M44.092625711833655,-85.1826074364169L37.09655589632559,-93.66516589492265L39.959758241931645,-87.15100796467401z" style="fill:rgb(37,44,164)"/><path d="M114.82524460412527,-150.19528218719685L88.26770718312572,-146.66271421641332L87.48835317537443,-142.36646771269724z" style="fill:rgb(83,212,212)"/><path d="M80.80722300667568,-93.71878677832062L101.26766310755721,-45.96599330585717L83.46171174787868,-90.5024770848143z" style="fill:rgb(16,65,132)"/><path d="M-68.32647051957403,-31.52558531612611L-72.53917645259098,-33.26469667412342L-69.03257359288556,-27.071930709568587z" style="fill:rgb(247,151,164)"/><path d="M88.26770718312572,-146.66271421641332L114.82524460412527,-150.19528218719685L114.31579089011284,-154.14808880447742z" style="fill:rgb(83,212,212)"/><path d="M-72.53917645259098,-33.26469667412342L-68.32647051957403,-31.52558531612611L-71.8142562229895,-37.7180170780057z" style="fill:rgb(247,151,164)"/><path d="M-107.34628326186758,-33.576063879625586L-139.77552614632992,-28.947994176501705L-140.38151754789246,-24.55977580540521zM-98.39033395933406,-42.044489418941254L-139.77552614632992,-28.947994176501705L-104.44842152676262,-38.62798441677512z" style="fill:rgb(83,212,212)"/><path d="M37.09655589632559,-93.66516589492265L44.092625711833655,-85.1826074364169L41.2412743275702,-91.71289128424428z" style="fill:rgb(37,44,164)"/><path d="M-139.77552614632992,-28.947994176501705L-107.34628326186758,-33.576063879625586L-104.44842152676262,-38.62798441677512z" style="fill:rgb(83,212,212)"/><path d="M-72.53917645259098,-33.26469667412342L-69.19336892270661,-22.71871949895215L-69.03257359288556,-27.071930709568587z" style="fill:rgb(247,160,156)"/><path d="M47.830590884124454,-82.83162110642527L41.2412743275702,-91.71289128424428L44.092625711833655,-85.1826074364169z" style="fill:rgb(30,49,155)"/><path d="M115.26957008097442,-146.74778391944432L87.48835317537443,-142.36646771269724L84.46250372254572,-137.9516405038991z" style="fill:rgb(83,212,212)"/><path d="M-69.8582375188388,45.49048724700824L-96.22868229532023,0.7002808922584323L-94.75574714531558,4.562317010325926z" style="fill:rgb(241,185,128)"/><path d="M-140.99278662675684,-20.133341891196785L-107.34628326186758,-33.576063879625586L-140.38151754789246,-24.55977580540521zM87.48835317537443,-142.36646771269724L115.26957008097442,-146.74778391944432L114.82524460412527,-150.19528218719685z" style="fill:rgb(83,212,212)"/><path d="M83.46171174787868,-90.5024770848143L103.56858708346014,-42.4607335518687L85.77428381922574,-87.06062858066504z" style="fill:rgb(13,69,126)"/><path d="M115.58659639724755,-144.28799349393174L84.46250372254572,-137.9516405038991L79.59264965574758,-134.03293417033575z" style="fill:rgb(83,212,212)"/><path d="M-69.19336892270661,-22.71871949895215L-72.53917645259098,-33.26469667412342L-72.716300359513,-28.913330932045852z" style="fill:rgb(247,160,156)"/><path d="M41.2412743275702,-91.71289128424428L47.830590884124454,-82.83162110642527L44.988471705885566,-89.37691093955488z" style="fill:rgb(30,49,155)"/><path d="M115.73113820545774,-143.1665097759084L79.59264965574758,-134.03293417033575L73.5529132276071,-131.161261360218z" style="fill:rgb(83,212,212)"/><path d="M-72.716300359513,-28.913330932045852L-68.80034878074049,-18.504086899768637L-69.19336892270661,-22.71871949895215z" style="fill:rgb(246,168,147)"/><path d="M51.13684544505977,-80.11292154652185L44.988471705885566,-89.37691093955488L47.830590884124454,-82.83162110642527z" style="fill:rgb(24,54,147)"/><path d="M84.46250372254572,-137.9516405038991L115.58659639724755,-144.28799349393174L115.26957008097442,-146.74778391944432z" style="fill:rgb(83,212,212)"/><path d="M-67.96431426733326,49.22858636854829L-94.75574714531558,4.562317010325926L-92.8999295527208,8.263565279971148z" style="fill:rgb(238,189,122)"/><path d="M-107.34628326186758,-33.576063879625586L-140.99278662675684,-20.133341891196785L-105.36632685653181,-29.81799483276863zM-99.61723314218322,-29.586346149889113L-140.99278662675684,-20.133341891196785L-141.24754449632763,-18.28854152244185z" style="fill:rgb(83,212,212)"/><path d="M85.77428381922574,-87.06062858066504L105.52703429653042,-38.74950584720488L87.7305591611852,-83.40434299001478z" style="fill:rgb(11,74,120)"/><path d="M79.59264965574758,-134.03293417033575L115.73113820545774,-143.1665097759084L115.58659639724755,-144.28799349393174z" style="fill:rgb(83,212,212)"/><path d="M-96.34108567982567,-48.18073374563996L-90.6182383646585,-38.14164097038405L-92.67024303950957,-41.85533069847468z" style="fill:rgb(238,190,121)"/><path d="M-68.80034878074049,-18.504086899768637L-72.716300359513,-28.913330932045852L-72.33690786104454,-24.702058725691487z" style="fill:rgb(246,168,147)"/><path d="M-140.99278662675684,-20.133341891196785L-99.61723314218322,-29.586346149889113L-105.36632685653181,-29.81799483276863z" style="fill:rgb(83,212,212)"/><path d="M44.988471705885566,-89.37691093955488L51.13684544505977,-80.11292154652185L48.30120362862493,-86.67192132248192z" style="fill:rgb(24,54,147)"/><path d="M-72.33690786104454,-24.702058725691487L-67.84940772620756,-14.466047998011556L-68.80034878074049,-18.504086899768637z" style="fill:rgb(244,176,138)"/><path d="M-92.67024303950957,-41.85533069847468L-13.46435980979295,-65.35287078209714L-98.39033395933406,-42.044489418941254z" style="fill:rgb(83,212,212)"/><path d="M53.97719926450573,-77.04486353713537L48.30120362862493,-86.67192132248192L51.13684544505977,-80.11292154652185z" style="fill:rgb(19,60,138)"/><path d="M-108.17682659128562,-44.91564830773066L-103.36274319921674,-35.897587380302134L-102.08230580060697,-48.350044655096276z" style="fill:rgb(83,212,212)"/><path d="M87.7305591611852,-83.40434299001478L107.13016560794172,-34.845119722629384L89.31731413225721,-79.54597812559794z" style="fill:rgb(9,79,114)"/><path d="M-109.13308040865303,-36.1095033168735L-108.17682659128562,-44.91564830773066L-111.10570323235368,-39.8579417082349z" style="fill:rgb(83,212,212)"/><path d="M-90.6182383646585,-38.14164097038405L-96.34108567982567,-48.18073374563996L-94.29554813123167,-44.477144850873z" style="fill:rgb(238,190,121)"/><path d="M-102.08230580060697,-48.350044655096276L-103.36274319921674,-35.897587380302134L-96.34108567982567,-48.18073374563996z" style="fill:rgb(83,212,212)"/><path d="M-67.84940772620756,-14.466047998011556L-72.33690786104454,-24.702058725691487L-71.39669557265512,-20.66889262421975z" style="fill:rgb(244,176,138)"/><path d="M48.30120362862493,-86.67192132248192L53.97719926450573,-77.04486353713537L51.145152501436414,-83.61610965858694z" style="fill:rgb(19,60,138)"/><path d="M-90.6182383646585,-38.14164097038405L-97.19529693437171,-39.376837007151785L-93.48709504774325,-33.0472297276408z" style="fill:rgb(238,121,190)"/><path d="M-71.39669557265512,-20.66889262421975L-66.3411197666501,-10.642143031095381L-67.84940772620756,-14.466047998011556z" style="fill:rgb(241,183,129)"/><path d="M56.32051104769426,-73.64931636673506L51.145152501436414,-83.61610965858694L53.97719926450573,-77.04486353713537z" style="fill:rgb(15,67,129)"/><path d="M-108.17682659128562,-44.91564830773066L-109.13308040865303,-36.1095033168735L-103.36274319921674,-35.897587380302134z" style="fill:rgb(83,212,212)"/><path d="M-103.36274319921674,-35.897587380302134L-105.36632685653181,-29.81799483276863L-99.61723314218322,-29.586346149889113z" style="fill:rgb(81,32,199)"/><path d="M-97.19529693437171,-39.376837007151785L-90.6182383646585,-38.14164097038405L-94.29554813123167,-44.477144850873z" style="fill:rgb(238,121,190)"/><path d="M-96.34108567982567,-48.18073374563996L-97.19529693437171,-39.376837007151785L-94.29554813123167,-44.477144850873z" style="fill:rgb(83,212,212)"/><path d="M-105.36632685653181,-29.81799483276863L-103.36274319921674,-35.897587380302134L-109.13308040865303,-36.1095033168735z" style="fill:rgb(81,32,199)"/><path d="M-97.19529693437171,-39.376837007151785L-99.61723314218322,-29.586346149889113L-93.48709504774325,-33.0472297276408z" style="fill:rgb(173,56,222)"/><path d="M-96.34108567982567,-48.18073374563996L-103.36274319921674,-35.897587380302134L-97.19529693437171,-39.376837007151785z" style="fill:rgb(83,212,212)"/><path d="M-99.61723314218322,-29.586346149889113L-97.19529693437171,-39.376837007151785L-103.36274319921674,-35.897587380302134z" style="fill:rgb(173,56,222)"/><path d="M-66.3411197666501,-10.642143031095381L-71.39669557265512,-20.66889262421975L-69.89605810645588,-16.851363589014962z" style="fill:rgb(241,183,129)"/><path d="M51.145152501436414,-83.61610965858694L56.32051104769426,-73.64931636673506L53.48908249714616,-80.23118838114934z" style="fill:rgb(15,67,129)"/><path d="M58.139196761588245,-69.95165831179206L53.48908249714616,-80.23118838114934L56.32051104769426,-73.64931636673506z" style="fill:rgb(11,74,120)"/><path d="M-90.6182383646585,-38.14164097038405L68.92806143685442,-86.1349415280026L-92.67024303950957,-41.85533069847468z" style="fill:rgb(83,212,212)"/><path d="M53.48908249714616,-80.23118838114934L58.139196761588245,-69.95165831179206L55.30530324581508,-76.5423884103228z" style="fill:rgb(11,74,120)"/><path d="M73.5529132276071,-131.161261360218L121.00353941037338,-102.25829335386818L115.73113820545774,-143.1665097759084zM73.5529132276071,-131.161261360218L-13.46435980979295,-65.35287078209714L75.19555149453538,-89.68604957011063zM-13.46435980979295,-65.35287078209714L-92.67024303950957,-41.85533069847468L68.92806143685442,-86.1349415280026zM69.56069570211972,-77.36994553826803L-90.6182383646585,-38.14164097038405L-93.48709504774325,-33.0472297276408z" style="fill:rgb(83,212,212)"/><path d="M111.91044264558006,-172.81103411000342L169.23736807118374,137.93752773407792L133.50988108083746,-110.97112053748835z" style="fill:rgb(247,158,158)"/><path d="M76.1749816171709,-77.29356676178122L-93.48709504774325,-33.0472297276408L-99.61723314218322,-29.586346149889113zM73.5529132276071,-131.161261360218L75.19555149453538,-89.68604957011063L121.00353941037338,-102.25829335386818zM68.92806143685442,-86.1349415280026L-90.6182383646585,-38.14164097038405L66.58162965000906,-81.04611197484846zM-13.46435980979295,-65.35287078209714L68.92806143685442,-86.1349415280026L75.19555149453538,-89.68604957011063zM-90.6182383646585,-38.14164097038405L69.56069570211972,-77.36994553826803L66.58162965000906,-81.04611197484846zM-93.48709504774325,-33.0472297276408L76.1749816171709,-77.29356676178122L69.56069570211972,-77.36994553826803zM-141.24754449632763,-18.28854152244185L128.52998037928012,-43.861143887897775L-99.61723314218322,-29.586346149889113zM81.76674616695533,-89.65287445428838L121.00353941037338,-102.25829335386818L75.19555149453538,-89.68604957011063zM-109.02196039145497,18.351359540304824L-147.63053995600413,27.93320105190185L-147.69512355753488,28.40087478384285zM-115.02983287330579,22.114801382324558L-147.69512355753488,28.40087478384285L-148.00791694239442,30.665933923166975z" style="fill:rgb(83,212,212)"/><path d="M69.56069570211972,-77.36994553826803L63.71662259599885,-87.8967426773339L66.58162965000906,-81.04611197484846z" style="fill:rgb(16,64,133)"/><path d="M84.82291716710175,-86.02470434007918L121.23435535709166,-100.46740779265652L81.76674616695533,-89.65287445428838zM121.00353941037338,-102.25829335386818L81.76674616695533,-89.65287445428838L121.23435535709166,-100.46740779265652zM-148.52944037148174,34.44248585800072L-115.02983287330579,22.114801382324558L-148.00791694239442,30.665933923166975zM-147.69512355753488,28.40087478384285L-115.02983287330579,22.114801382324558L-109.02196039145497,18.351359540304824zM-147.63053995600413,27.93320105190185L-109.02196039145497,18.351359540304824L-102.54653983456613,16.212567174946535zM66.08856374878587,-92.989602916443L73.34383599617335,-84.18133577665691L72.39507729900693,-96.56002426160343zM66.69885776046591,-84.23413516472452L66.08856374878587,-92.989602916443L63.71662259599885,-87.8967426773339zM72.39507729900693,-96.56002426160343L79.72843127585769,-87.80028592564305L78.9966270623043,-96.55050158025874z" style="fill:rgb(83,212,212)"/><path d="M63.71662259599885,-87.8967426773339L69.56069570211972,-77.36994553826803L66.69885776046591,-84.23413516472452z" style="fill:rgb(16,64,133)"/><path d="M128.52998037928012,-43.861143887897775L-141.24754449632763,-18.28854152244185L-147.63053995600413,27.93320105190185zM121.23435535709166,-100.46740779265652L84.82291716710175,-86.02470434007918L121.79524076358081,-96.11553527146606zM-115.02983287330579,22.114801382324558L-148.52944037148174,34.44248585800072L-119.78837974816221,27.01685066488833z" style="fill:rgb(83,212,212)"/><path d="M84.82291716710175,-86.02470434007918L79.72843127585769,-87.80028592564305L82.5195788838734,-80.89267275112675z" style="fill:rgb(238,121,190)"/><path d="M66.08856374878587,-92.989602916443L66.69885776046591,-84.23413516472452L73.34383599617335,-84.18133577665691z" style="fill:rgb(83,212,212)"/><path d="M73.34383599617335,-84.18133577665691L69.56069570211972,-77.36994553826803L76.1749816171709,-77.29356676178122z" style="fill:rgb(81,32,199)"/><path d="M79.72843127585769,-87.80028592564305L84.82291716710175,-86.02470434007918L82.05694179524482,-92.9364214238457z" style="fill:rgb(238,121,190)"/><path d="M-122.66588066749173,32.42379534110196L-148.52944037148174,34.44248585800072L-149.19276003026133,39.24583803882588zM78.9966270623043,-96.55050158025874L79.72843127585769,-87.80028592564305L82.05694179524482,-92.9364214238457zM122.36134011542747,-91.72320809542836L84.82291716710175,-86.02470434007918L82.5195788838734,-80.89267275112675zM72.39507729900693,-96.56002426160343L73.34383599617335,-84.18133577665691L79.72843127585769,-87.80028592564305z" style="fill:rgb(83,212,212)"/><path d="M69.56069570211972,-77.36994553826803L73.34383599617335,-84.18133577665691L66.69885776046591,-84.23413516472452z" style="fill:rgb(81,32,199)"/><path d="M79.72843127585769,-87.80028592564305L76.1749816171709,-77.29356676178122L82.5195788838734,-80.89267275112675z" style="fill:rgb(173,56,222)"/><path d="M-148.52944037148174,34.44248585800072L-122.66588066749173,32.42379534110196L-119.78837974816221,27.01685066488833zM84.82291716710175,-86.02470434007918L122.36134011542747,-91.72320809542836L121.79524076358081,-96.11553527146606zM122.59737049729294,-89.89186639102249L82.5195788838734,-80.89267275112675L76.1749816171709,-77.29356676178122z" style="fill:rgb(83,212,212)"/><path d="M76.1749816171709,-77.29356676178122L79.72843127585769,-87.80028592564305L73.34383599617335,-84.18133577665691z" style="fill:rgb(173,56,222)"/><path d="M-99.61723314218322,-29.586346149889113L128.52998037928012,-43.861143887897775L76.1749816171709,-77.29356676178122zM-123.26023222618952,37.625408554845826L-149.19276003026133,39.24583803882588L-149.91073110512517,44.44494915624834zM-149.19276003026133,39.24583803882588L-123.26023222618952,37.625408554845826L-122.66588066749173,32.42379534110196zM82.5195788838734,-80.89267275112675L122.59737049729294,-89.89186639102249L122.36134011542747,-91.72320809542836zM-121.45977156813584,41.92038037478487L-149.91073110512517,44.44494915624834L-150.58647364696802,49.338260232123005zM-149.91073110512517,44.44494915624834L-121.45977156813584,41.92038037478487L-123.26023222618952,37.625408554845826zM-117.47438405690674,44.71001418389183L-150.58647364696802,49.338260232123005L-151.12636004170207,53.24778896250409zM-150.58647364696802,49.338260232123005L-117.47438405690674,44.71001418389183L-121.45977156813584,41.92038037478487zM-100.4932532696616,16.135111653416484L81.595772598138,-31.659506166335422L-102.54653983456613,16.212567174946535zM-96.44490976614311,15.982395779194317L74.58931525140707,-29.36142561912787L-100.4932532696616,16.135111653416484zM-111.82472975187332,45.58848783834012L-151.12636004170207,53.24778896250409L-151.4538720918367,55.619428204077444zM-94.29026184638381,16.737084003839822L72.08366840872678,-27.772669529718307L-96.44490976614311,15.982395779194317zM-105.28159165003619,44.41293445069218L-151.4538720918367,55.619428204077444L-151.52184511817464,56.1116472050644zM-151.12636004170207,53.24778896250409L-111.82472975187332,45.58848783834012L-117.47438405690674,44.71001418389183zM-91.52121165445857,17.70696981860944L68.4296685119437,-25.45577731989679L-94.29026184638381,16.737084003839822zM-90.07478998336094,19.339951192083173L66.36710777342388,-23.16568337992255L-91.52121165445857,17.70696981860944zM-151.4538720918367,55.619428204077444L-105.28159165003619,44.41293445069218L-111.82472975187332,45.58848783834012zM76.1749816171709,-77.29356676178122L128.52998037928012,-43.861143887897775L122.59737049729294,-89.89186639102249zM-88.4441720157173,21.180877683698657L63.917679372985965,-20.44604776514151L-90.07478998336094,19.339951192083173zM-88.05754340925733,23.52340490137482L62.829370210832984,-17.816188850266897L-88.4441720157173,21.180877683698657zM-87.65525328280143,25.96088682878117L61.655241586266165,-14.978946740838149L-88.05754340925733,23.52340490137482zM81.595772598138,-31.659506166335422L-100.4932532696616,16.135111653416484L74.58931525140707,-29.36142561912787zM74.58931525140707,-29.36142561912787L-96.44490976614311,15.982395779194317L72.08366840872678,-27.772669529718307zM61.96808320917762,-9.772273255364231L-87.65525328280143,25.96088682878117L-88.48798899092475,28.727613608027948zM72.08366840872678,-27.772669529718307L-94.29026184638381,16.737084003839822L68.4296685119437,-25.45577731989679zM68.4296685119437,-25.45577731989679L-91.52121165445857,17.70696981860944L66.36710777342388,-23.16568337992255zM63.457856653827974,-7.580043981257245L-88.48798899092475,28.727613608027948L-89.2960030778928,31.412168812589673zM66.36710777342388,-23.16568337992255L-90.07478998336094,19.339951192083173L63.917679372985965,-20.44604776514151zM64.8518474149159,-5.5287631588000234L-89.2960030778928,31.412168812589673L-91.34123591856674,34.24990444283359zM63.917679372985965,-20.44604776514151L-88.4441720157173,21.180877683698657L62.829370210832984,-17.816188850266897zM67.6117500759821,-4.075133657143477L-91.34123591856674,34.24990444283359L-93.17051376803951,36.78801215038474zM62.829370210832984,-17.816188850266897L-88.05754340925733,23.52340490137482L61.655241586266165,-14.978946740838149zM69.95327036380259,-2.8418637576138863L-93.17051376803951,36.78801215038474L-96.30486326301046,39.33914064865041zM73.88813014278794,-2.4057469880341364L-96.30486326301046,39.33914064865041L-98.7580435301154,41.33585354699544zM61.655241586266165,-14.978946740838149L-87.65525328280143,25.96088682878117L61.81126655866506,-12.382197709082083zM76.59870797353743,-2.105322611465085L-98.7580435301154,41.33585354699544L-103.08250445180921,43.375651787542665zM83.87648967643719,-3.443755727092128L-103.08250445180921,43.375651787542665L-105.28159165003619,44.41293445069218zM-87.65525328280143,25.96088682878117L61.96808320917762,-9.772273255364231L61.81126655866506,-12.382197709082083zM-88.48798899092475,28.727613608027948L63.457856653827974,-7.580043981257245L61.96808320917762,-9.772273255364231zM-164.01334962588606,146.56746268080542L-105.28159165003619,44.41293445069218L-151.52184511817464,56.1116472050644zM-89.2960030778928,31.412168812589673L64.8518474149159,-5.5287631588000234L63.457856653827974,-7.580043981257245zM-91.34123591856674,34.24990444283359L67.6117500759821,-4.075133657143477L64.8518474149159,-5.5287631588000234zM88.54159053966538,-32.045639896416944L128.52998037928012,-43.861143887897775L81.595772598138,-31.659506166335422zM-93.17051376803951,36.78801215038474L69.95327036380259,-2.8418637576138863L67.6117500759821,-4.075133657143477zM94.51564449998796,-30.45251523789739L128.7087303780077,-42.47422970267593L88.54159053966538,-32.045639896416944zM-96.30486326301046,39.33914064865041L73.88813014278794,-2.4057469880341364L69.95327036380259,-2.8418637576138863zM128.52998037928012,-43.861143887897775L88.54159053966538,-32.045639896416944L128.7087303780077,-42.47422970267593zM-98.7580435301154,41.33585354699544L76.59870797353743,-2.105322611465085L73.88813014278794,-2.4057469880341364zM-103.08250445180921,43.375651787542665L83.87648967643719,-3.443755727092128L76.59870797353743,-2.105322611465085zM98.71216833448882,-27.06647766237948L129.10411695779837,-39.40645642694539L94.51564449998796,-30.45251523789739zM128.7087303780077,-42.47422970267593L94.51564449998796,-30.45251523789739L129.10411695779837,-39.40645642694539zM129.10411695779837,-39.40645642694539L98.71216833448882,-27.06647766237948L129.666089938101,-35.04614306895116zM100.53855535159946,-22.31702088487433L129.666089938101,-35.04614306895116L98.71216833448882,-27.06647766237948zM129.666089938101,-35.04614306895116L100.53855535159946,-22.31702088487433L130.32194047502298,-29.9574399789914zM130.98445931868986,-24.817000386219956L100.53855535159946,-22.31702088487433L99.70830208142533,-16.833395115750584z" style="fill:rgb(83,212,212)"/><path d="M169.23736807118374,137.93752773407792L111.91044264558006,-172.81103411000342L143.92444976691098,75.58351300817569z" style="fill:rgb(247,158,158)"/><path d="M100.53855535159946,-22.31702088487433L130.98445931868986,-24.817000386219956L130.32194047502298,-29.9574399789914zM131.56295794175077,-20.328466849978756L99.70830208142533,-16.833395115750584L96.30054212085015,-11.366450103188765zM99.70830208142533,-16.833395115750584L131.56295794175077,-20.328466849978756L130.98445931868986,-24.817000386219956zM131.97610318485044,-17.12290290379518L96.30054212085015,-11.366450103188765L90.76712147980585,-6.682205066300442zM132.16457520125167,-15.660564818599454L90.76712147980585,-6.682205066300442L83.87648967643719,-3.443755727092128zM96.30054212085015,-11.366450103188765L131.97610318485044,-17.12290290379518L131.56295794175077,-20.328466849978756zM90.76712147980585,-6.682205066300442L132.16457520125167,-15.660564818599454L131.97610318485044,-17.12290290379518zM-105.28159165003619,44.41293445069218L143.92444976691098,75.58351300817569L83.87648967643719,-3.443755727092128zM-105.28159165003619,44.41293445069218L-164.01334962588606,146.56746268080542L143.92444976691098,75.58351300817569z" style="fill:rgb(83,212,212)"/><path d="M-121.9437655268331,200.34901804288052L143.92444976691098,75.58351300817569L-164.01334962588606,146.56746268080542zM143.92444976691098,75.58351300817569L-121.9437655268331,200.34901804288052L169.23736807118374,137.93752773407792z" style="fill:rgb(127,37,217)"/><path d="M83.87648967643719,-3.443755727092128L143.92444976691098,75.58351300817569L132.16457520125167,-15.660564818599454z" style="fill:rgb(83,212,212)"/></svg>
