<?xml version="1.0" encoding="UTF-8"?>
<!-- Generated by jsxcad -->
<!DOCTYPE svg PUBLIC "-//W3C//DTD SVG 1.1 Tiny//EN" "http://www.w3.org/Graphics/SVG/1.1/DTD/svg11-tiny.dtd">
<svg viewBox="-250 -250 500 500" width="500" height="500" xmlns="http://www.w3.org/2000/svg"><path d="M-33.019913170033185,-96.17163022275612L-17.186380345742243,-51.52384790166372L-12.055512854389898,-54.25933687635878z" style="fill:rgb(168,53,222)"/><path d="M-27.584795360555983,-98.8042100906945L-12.055512854389898,-54.25933687635878L-6.817071481667227,-56.78774565823662z" style="fill:rgb(161,49,222)"/><path d="M-38.349149424128186,-93.3357064553842L-22.19266757212332,-48.590271954776064L-17.186380345742243,-51.52384790166372z" style="fill:rgb(175,57,222)"/><path d="M-22.061562327706586,-101.22469558201193L-6.817071481667227,-56.78774565823662L-1.4883349436704074,-59.1005984936989z" style="fill:rgb(154,46,222)"/><path d="M-43.555007551573624,-90.30567612919582L-27.057656624707842,-45.46810558090864L-22.19266757212332,-48.590271954776064z" style="fill:rgb(182,61,221)"/><path d="M-16.46822786742172,-103.42486162978857L-1.4883349436704074,-59.1005984936989L3.913155258602122,-61.189954935846636z" style="fill:rgb(146,43,221)"/><path d="M-27.057656624707842,-45.46810558090864L-53.52797670125013,-83.70264771868568L-31.764930095532844,-42.1673587148557z" style="fill:rgb(189,66,220)"/><path d="M-10.823050264969643,-105.39697656019484L3.913155258602122,-61.189954935846636L9.36960964639567,-63.04839652405395z" style="fill:rgb(139,40,220)"/><path d="M-31.764930095532844,-42.1673587148557L-58.261517321783266,-80.15056223356942L-36.29838974162841,-38.698541457924776z" style="fill:rgb(196,71,219)"/><path d="M-5.144520337974953,-107.13383765046636L9.36960964639567,-63.04839652405395L14.863002120609352,-64.66906136407478z" style="fill:rgb(131,38,218)"/><path d="M-36.29838974162841,-38.698541457924776L-62.80457601510979,-76.44616879646465L-40.642284607312725,-35.072664288557675z" style="fill:rgb(202,76,217)"/><path d="M0.5486512419232928,-108.62879220088931L14.863002120609352,-64.66906136407478L20.375082827805905,-66.04564704098294z" style="fill:rgb(123,36,216)"/><path d="M-40.642284607312725,-35.072664288557675L-67.14118693610727,-72.60114783162179L-44.78121969363719,-31.30124349848266z" style="fill:rgb(208,81,214)"/><path d="M6.237544656828432,-109.87572477153218L20.375082827805905,-66.04564704098294L25.88739324810221,-67.17243703674251z" style="fill:rgb(115,34,214)"/><path d="M-44.78121969363719,-31.30124349848266L-71.25574382981597,-68.62763393313783L-48.70018559398605,-27.396290346080374z" style="fill:rgb(213,86,212)"/><path d="M11.903046098574757,-110.86911793739525L25.88739324810221,-67.17243703674251L31.381282226946126,-68.04432197384408z" style="fill:rgb(108,33,211)"/><path d="M-48.70018559398605,-27.396290346080374L-75.13305492497489,-64.53826502269875L-52.38459587109279,-23.370310384768487z" style="fill:rgb(218,92,209)"/><path d="M17.52586558295343,-111.60404343691867L31.381282226946126,-68.04432197384408L36.837926335270375,-68.65681115349297z" style="fill:rgb(100,32,208)"/><path d="M-52.38459587109279,-23.370310384768487L-78.75835193254595,-60.346162323904515L-55.82031717959826,-19.236313646428556z" style="fill:rgb(223,98,206)"/><path d="M-12.055512854389898,-54.25933687635878L-27.584795360555983,-98.8042100906945L-33.019913170033185,-96.17163022275612z" style="fill:rgb(161,49,222)"/><path d="M-17.186380345742243,-51.52384790166372L-33.019913170033185,-96.17163022275612L-38.349149424128186,-93.3357064553842z" style="fill:rgb(168,53,222)"/><path d="M23.08655414572693,-112.07621197594189L36.837926335270375,-68.65681115349297L42.23834293314868,-69.0060762461739z" style="fill:rgb(93,32,205)"/><path d="M-6.817071481667227,-56.78774565823662L-22.061562327706586,-101.22469558201193L-27.584795360555983,-98.8042100906945z" style="fill:rgb(154,46,222)"/><path d="M-22.19266757212332,-48.590271954776064L-38.349149424128186,-93.3357064553842L-43.555007551573624,-90.30567612919582z" style="fill:rgb(175,57,222)"/><path d="M-1.4883349436704074,-59.1005984936989L-16.46822786742172,-103.42486162978857L-22.061562327706586,-101.22469558201193z" style="fill:rgb(146,43,221)"/><path d="M-27.057656624707842,-45.46810558090864L-43.555007551573624,-90.30567612919582L-48.62026255347195,-87.0912506434798z" style="fill:rgb(182,61,221)"/><path d="M-53.52797670125013,-83.70264771868568L-27.057656624707842,-45.46810558090864L-48.62026255347195,-87.0912506434798z" style="fill:rgb(189,66,220)"/><path d="M3.913155258602122,-61.189954935846636L-10.823050264969643,-105.39697656019484L-16.46822786742172,-103.42486162978857z" style="fill:rgb(139,40,220)"/><path d="M-55.82031717959826,-19.236313646428556L-82.11732287561581,-56.064925271084896L-58.993700480854784,-15.007796883953299z" style="fill:rgb(227,104,202)"/><path d="M-58.261517321783266,-80.15056223356942L-31.764930095532844,-42.1673587148557L-53.52797670125013,-83.70264771868568z" style="fill:rgb(196,71,219)"/><path d="M9.36960964639567,-63.04839652405395L-5.144520337974953,-107.13383765046636L-10.823050264969643,-105.39697656019484z" style="fill:rgb(131,38,218)"/><path d="M28.565536255681724,-112.28198317959612L42.23834293314868,-69.0060762461739L47.56343682787621,-69.08896284095265z" style="fill:rgb(86,32,201)"/><path d="M-62.80457601510979,-76.44616879646465L-36.29838974162841,-38.698541457924776L-58.261517321783266,-80.15056223356942z" style="fill:rgb(202,76,217)"/><path d="M14.863002120609352,-64.66906136407478L0.5486512419232928,-108.62879220088931L-5.144520337974953,-107.13383765046636z" style="fill:rgb(123,36,216)"/><path d="M-58.993700480854784,-15.007796883953299L-85.196181333974,-51.70863323644718L-61.89163413005407,-10.6987445275835z" style="fill:rgb(231,110,198)"/><path d="M-67.14118693610727,-72.60114783162179L-40.642284607312725,-35.072664288557675L-62.80457601510979,-76.44616879646465z" style="fill:rgb(208,81,214)"/><path d="M33.9431267637117,-112.21842408621711L47.56343682787621,-69.08896284095265L52.7940032385386,-68.9030537523747z" style="fill:rgb(79,32,197)"/><path d="M20.375082827805905,-66.04564704098294L6.237544656828432,-109.87572477153218L0.5486512419232928,-108.62879220088931z" style="fill:rgb(115,34,214)"/><path d="M-71.25574382981597,-68.62763393313783L-44.78121969363719,-31.30124349848266L-67.14118693610727,-72.60114783162179z" style="fill:rgb(213,86,212)"/><path d="M25.88739324810221,-67.17243703674251L11.903046098574757,-110.86911793739525L6.237544656828432,-109.87572477153218z" style="fill:rgb(108,33,211)"/><path d="M-61.89163413005407,-10.6987445275835L-87.98169983309164,-47.29183908039344L-64.50158741695202,-6.323622639053833z" style="fill:rgb(235,116,194)"/><path d="M39.19957481126655,-111.88333194960434L52.7940032385386,-68.9030537523747L57.91078308810192,-68.4466584573855z" style="fill:rgb(72,33,193)"/><path d="M-75.13305492497489,-64.53826502269875L-48.70018559398605,-27.396290346080374L-71.25574382981597,-68.62763393313783z" style="fill:rgb(218,92,209)"/><path d="M31.381282226946126,-68.04432197384408L17.52586558295343,-111.60404343691867L11.903046098574757,-110.86911793739525z" style="fill:rgb(100,32,208)"/><path d="M62.89449166803301,-67.7188945542478L39.19957481126655,-111.88333194960434L57.91078308810192,-68.4466584573855z" style="fill:rgb(65,34,188)"/><path d="M-64.50158741695202,-6.323622639053833L-90.46126247051377,-42.829559108629866L-66.81166105698448,-1.8973672950701412z" style="fill:rgb(238,122,189)"/><path d="M-78.75835193254595,-60.346162323904515L-52.38459587109279,-23.370310384768487L-75.13305492497489,-64.53826502269875z" style="fill:rgb(223,98,206)"/><path d="M36.837926335270375,-68.65681115349297L23.08655414572693,-112.07621197594189L17.52586558295343,-111.60404343691867z" style="fill:rgb(93,32,205)"/><path d="M-82.11732287561581,-56.064925271084896L-55.82031717959826,-19.236313646428556L-78.75835193254595,-60.346162323904515z" style="fill:rgb(227,104,202)"/><path d="M67.72587076047799,-66.71969988579158L44.315102845677345,-111.27526784020081L62.89449166803301,-67.7188945542478z" style="fill:rgb(58,35,183)"/><path d="M-66.81166105698448,-1.8973672950701412L-92.62293283845129,-38.33725908816062L-68.81065232188186,2.564630324135916z" style="fill:rgb(241,128,185)"/><path d="M42.23834293314868,-69.0060762461739L28.565536255681724,-112.28198317959612L23.08655414572693,-112.07621197594189z" style="fill:rgb(86,32,201)"/><path d="M-85.196181333974,-51.70863323644718L-58.993700480854784,-15.007796883953299L-82.11732287561581,-56.064925271084896z" style="fill:rgb(231,110,198)"/><path d="M47.56343682787621,-69.08896284095265L33.9431267637117,-112.21842408621711L28.565536255681724,-112.28198317959612z" style="fill:rgb(79,32,197)"/><path d="M72.38574095611573,-65.44988913798029L49.26994610859011,-110.39361269687797L67.72587076047799,-66.71969988579158z" style="fill:rgb(52,37,178)"/><path d="M-68.81065232188186,2.564630324135916L-94.45551639579428,-33.83084022788657L-70.48811493798439,7.046540406806215z" style="fill:rgb(243,134,180)"/><path d="M-87.98169983309164,-47.29183908039344L-61.89163413005407,-10.6987445275835L-85.196181333974,-51.70863323644718z" style="fill:rgb(235,116,194)"/><path d="M52.7940032385386,-68.9030537523747L39.19957481126655,-111.88333194960434L33.9431267637117,-112.21842408621711z" style="fill:rgb(72,33,193)"/><path d="M76.85505793061553,-63.911182150823514L54.04441367542489,-109.23858474433534L72.38574095611573,-65.44988913798029z" style="fill:rgb(46,40,173)"/><path d="M-70.48811493798439,7.046540406806215L-95.9486069235747,-29.326617550831056L-71.83440370220461,11.532118625911588z" style="fill:rgb(245,140,174)"/><path d="M-90.46126247051377,-42.829559108629866L-64.50158741695202,-6.323622639053833L-87.98169983309164,-47.29183908039344z" style="fill:rgb(238,122,189)"/><path d="M39.19957481126655,-111.88333194960434L62.89449166803301,-67.7188945542478L44.315102845677345,-111.27526784020081z" style="fill:rgb(65,34,188)"/><path d="M81.1149773116125,-62.10625475080704L58.61894522961211,-107.81132167464783L76.85505793061553,-63.911182150823514z" style="fill:rgb(41,42,168)"/><path d="M-71.83440370220461,11.532118625911588L-97.09271366400752,-24.841287023988546L-72.84079577182906,16.0047325370856z" style="fill:rgb(246,146,169)"/><path d="M-92.62293283845129,-38.33725908816062L-66.81166105698448,-1.8973672950701412L-90.46126247051377,-42.829559108629866z" style="fill:rgb(241,128,185)"/><path d="M44.315102845677345,-111.27526784020081L67.72587076047799,-66.71969988579158L49.26994610859011,-110.39361269687797z" style="fill:rgb(58,35,183)"/><path d="M85.14693364154857,-60.03876927765223L62.97417396881061,-106.11389512992561L81.1149773116125,-62.10625475080704z" style="fill:rgb(36,45,162)"/><path d="M-72.84079577182906,16.0047325370856L-97.8792789544754,-20.39189796029644L-73.49951515757607,20.447396825224974z" style="fill:rgb(247,152,164)"/><path d="M-94.45551639579428,-33.83084022788657L-68.81065232188186,2.564630324135916L-92.62293283845129,-38.33725908816062z" style="fill:rgb(243,134,180)"/><path d="M49.26994610859011,-110.39361269687797L72.38574095611573,-65.44988913798029L54.04441367542489,-109.23858474433534z" style="fill:rgb(52,37,178)"/><path d="M-95.9486069235747,-29.326617550831056L-70.48811493798439,7.046540406806215L-94.45551639579428,-33.83084022788657z" style="fill:rgb(245,140,174)"/><path d="M88.93271789687844,-57.713434234361515L67.09101280025503,-104.14937767635459L85.14693364154857,-60.03876927765223z" style="fill:rgb(31,48,156)"/><path d="M-73.49951515757607,20.447396825224974L-98.3008283148709,-15.995812481496237L-73.80384023479667,24.842813979438642z" style="fill:rgb(247,158,158)"/><path d="M54.04441367542489,-109.23858474433534L76.85505793061553,-63.911182150823514L58.61894522961211,-107.81132167464783z" style="fill:rgb(46,40,173)"/><path d="M-28.274188267516656,-86.1340117284778L-30.509368339250443,-76.87351599881003L-25.122869826066506,-79.83692426550256z" style="fill:rgb(171,54,222)"/><path d="M-22.692746486081674,-88.80559718535307L-25.122869826066506,-79.83692426550256L-19.5719323677615,-82.4922490727447z" style="fill:rgb(160,49,222)"/><path d="M-33.691581447389765,-83.15523458652179L-35.69064200583882,-73.62421976986836L-30.509368339250443,-76.87351599881003z" style="fill:rgb(181,61,221)"/><path d="M-16.989274215999025,-91.14961660965206L-19.5719323677615,-82.4922490727447L-13.898383607296605,-84.81922066929238z" style="fill:rgb(149,44,221)"/><path d="M-98.3008283148709,-15.995812481496237L-73.74818240840914,29.17342151257292L-73.80384023479667,24.842813979438642z" style="fill:rgb(247,164,152)"/><path d="M-97.09271366400752,-24.841287023988546L-71.83440370220461,11.532118625911588L-95.9486069235747,-29.326617550831056z" style="fill:rgb(246,146,169)"/><path d="M-35.69064200583882,-73.62421976986836L-43.87147024264401,-76.36713185014004L-40.62709396872275,-70.11310369115981z" style="fill:rgb(191,67,220)"/><path d="M-11.206675132918454,-93.1477400305436L-13.898383607296605,-84.81922066929238L-8.144942106788132,-86.79962397129833z" style="fill:rgb(138,40,220)"/><path d="M92.45457262621264,-55.13602924185505L70.95073370622121,-101.92185751885381L88.93271789687844,-57.713434234361515z" style="fill:rgb(27,52,150)"/><path d="M-25.122869826066506,-79.83692426550256L-22.692746486081674,-88.80559718535307L-28.274188267516656,-86.1340117284778z" style="fill:rgb(160,49,222)"/><path d="M-30.509368339250443,-76.87351599881003L-28.274188267516656,-86.1340117284778L-33.691581447389765,-83.15523458652179z" style="fill:rgb(171,54,222)"/><path d="M-19.5719323677615,-82.4922490727447L-16.989274215999025,-91.14961660965206L-22.692746486081674,-88.80559718535307z" style="fill:rgb(149,44,221)"/><path d="M-35.69064200583882,-73.62421976986836L-33.691581447389765,-83.15523458652179L-38.90393811712012,-79.89155712142934z" style="fill:rgb(181,61,221)"/><path d="M-40.62709396872275,-70.11310369115981L-48.555725537250225,-72.60789425861877L-45.28049334474122,-66.36602685486721z" style="fill:rgb(200,74,217)"/><path d="M-5.388580557327995,-94.78372912535865L-8.144942106788132,-86.79962397129833L-2.3550548355013796,-88.41734572774848z" style="fill:rgb(127,37,217)"/><path d="M-43.87147024264401,-76.36713185014004L-35.69064200583882,-73.62421976986836L-38.90393811712012,-79.89155712142934z" style="fill:rgb(191,67,220)"/><path d="M-13.898383607296605,-84.81922066929238L-11.206675132918454,-93.1477400305436L-16.989274215999025,-91.14961660965206z" style="fill:rgb(138,40,220)"/><path d="M58.61894522961211,-107.81132167464783L81.1149773116125,-62.10625475080704L62.97417396881061,-106.11389512992561z" style="fill:rgb(41,42,168)"/><path d="M-48.555725537250225,-72.60789425861877L-40.62709396872275,-70.11310369115981L-43.87147024264401,-76.36713185014004z" style="fill:rgb(200,74,217)"/><path d="M-8.144942106788132,-86.79962397129833L-5.388580557327995,-94.78372912535865L-11.206675132918454,-93.1477400305436z" style="fill:rgb(127,37,217)"/><path d="M-45.28049334474122,-66.36602685486721L-52.91978945857382,-68.64149628587413L-49.61412551820548,-62.41057368151665z" style="fill:rgb(209,82,214)"/><path d="M0.4208061246595089,-96.04354524370527L-2.3550548355013796,-88.41734572774848L3.4272559628791486,-89.65848245564541z" style="fill:rgb(116,34,214)"/><path d="M-98.35100699356373,-11.670653277984869L-73.32816580010042,33.42144671240881L-73.74818240840914,29.17342151257292z" style="fill:rgb(246,169,146)"/><path d="M-97.8792789544754,-20.39189796029644L-72.84079577182906,16.0047325370856L-97.09271366400752,-24.841287023988546z" style="fill:rgb(247,152,164)"/><path d="M-52.91978945857382,-68.64149628587413L-45.28049334474122,-66.36602685486721L-48.555725537250225,-72.60789425861877z" style="fill:rgb(209,82,214)"/><path d="M-2.3550548355013796,-88.41734572774848L0.4208061246595089,-96.04354524370527L-5.388580557327995,-94.78372912535865z" style="fill:rgb(116,34,214)"/><path d="M95.69527383401248,-52.3134368816713L74.53504902427255,-99.43652936923563L92.45457262621264,-55.13602924185505z" style="fill:rgb(23,56,144)"/><path d="M-49.61412551820548,-62.41057368151665L-56.92844425430622,-64.49721403488725L-53.592995185677985,-58.27596109480185z" style="fill:rgb(217,90,210)"/><path d="M6.176881746550638,-96.91545065939182L3.4272559628791486,-89.65848245564541L9.157564289302966,-90.51144125472523z" style="fill:rgb(105,33,210)"/><path d="M-56.92844425430622,-64.49721403488725L-49.61412551820548,-62.41057368151665L-52.91978945857382,-68.64149628587413z" style="fill:rgb(217,90,210)"/><path d="M3.4272559628791486,-89.65848245564541L6.176881746550638,-96.91545065939182L0.4208061246595089,-96.04354524370527z" style="fill:rgb(105,33,210)"/><path d="M62.97417396881061,-106.11389512992561L85.14693364154857,-60.03876927765223L67.09101280025503,-104.14937767635459z" style="fill:rgb(36,45,162)"/><path d="M-53.592995185677985,-58.27596109480185L-60.54838187749028,-60.20588668155322L-57.18401795164065,-53.992980870782254z" style="fill:rgb(224,99,205)"/><path d="M11.834827022485944,-97.3901460106296L9.157564289302966,-90.51144125472523L14.791226213463768,-90.96707678004721z" style="fill:rgb(94,32,205)"/><path d="M-98.02467175072563,-7.434253851395764L-72.5407226710653,37.56896420122714L-73.32816580010042,33.42144671240881z" style="fill:rgb(245,175,140)"/><path d="M-98.3008283148709,-15.995812481496237L-73.49951515757607,20.447396825224974L-97.8792789544754,-20.39189796029644z" style="fill:rgb(247,158,158)"/><path d="M-60.54838187749028,-60.20588668155322L-53.592995185677985,-58.27596109480185L-56.92844425430622,-64.49721403488725z" style="fill:rgb(224,99,205)"/><path d="M9.157564289302966,-90.51144125472523L11.834827022485944,-97.3901460106296L6.176881746550638,-96.91545065939182z" style="fill:rgb(94,32,205)"/><path d="M98.63824515858673,-49.25369241008847L77.82623770711174,-96.69968766075375L95.69527383401248,-52.3134368816713z" style="fill:rgb(19,60,138)"/><path d="M-57.18401795164065,-53.992980870782254L-63.74842298676464,-55.79980379141435L-60.35624286508796,-49.593865373737074z" style="fill:rgb(230,107,200)"/><path d="M17.349810913247165,-97.46087176371597L14.791226213463768,-90.96707678004721L20.283582756000087,-91.01879178105234z" style="fill:rgb(83,32,200)"/><path d="M67.09101280025503,-104.14937767635459L88.93271789687844,-57.713434234361515L70.95073370622121,-101.92185751885381z" style="fill:rgb(31,48,156)"/><path d="M-63.74842298676464,-55.79980379141435L-57.18401795164065,-53.992980870782254L-60.54838187749028,-60.20588668155322z" style="fill:rgb(230,107,200)"/><path d="M14.791226213463768,-90.96707678004721L17.349810913247165,-97.46087176371597L11.834827022485944,-97.3901460106296z" style="fill:rgb(83,32,200)"/><path d="M-97.31803304336756,-3.3045914803012297L-71.38414857680051,41.597977753692824L-72.5407226710653,37.56896420122714z" style="fill:rgb(243,180,134)"/><path d="M-60.35624286508796,-49.593865373737074L-66.49975549471063,-51.312603950874575L-63.08108587595711,-45.112227982521325z" style="fill:rgb(235,116,194)"/><path d="M22.67721760277441,-97.12352563696147L20.283582756000087,-91.01879178105234L25.590190795404464,-90.6626537713744z" style="fill:rgb(73,33,194)"/><path d="M101.26766310755721,-45.96599330585717L80.80722300667568,-93.71878677832062L98.63824515858673,-49.25369241008847z" style="fill:rgb(16,65,132)"/><path d="M-73.74818240840914,29.17342151257292L-98.3008283148709,-15.995812481496237L-98.35100699356373,-11.670653277984869z" style="fill:rgb(247,164,152)"/><path d="M-66.49975549471063,-51.312603950874575L-60.35624286508796,-49.593865373737074L-63.74842298676464,-55.79980379141435z" style="fill:rgb(235,116,194)"/><path d="M20.283582756000087,-91.01879178105234L22.67721760277441,-97.12352563696147L17.349810913247165,-97.46087176371597z" style="fill:rgb(73,33,194)"/><path d="M70.95073370622121,-101.92185751885381L92.45457262621264,-55.13602924185505L74.53504902427255,-99.43652936923563z" style="fill:rgb(27,52,150)"/><path d="M30.66706829661791,-89.89756373764413L22.67721760277441,-97.12352563696147L25.590190795404464,-90.6626537713744z" style="fill:rgb(63,34,187)"/><path d="M-63.08108587595711,-45.112227982521325L-68.77617556298195,-46.779137191082306L-65.33258644728923,-40.582882835969386z" style="fill:rgb(239,125,187)"/><path d="M-96.22868229532023,0.7002808922584323L-69.8582375188388,45.49048724700824L-71.38414857680051,41.597977753692824z" style="fill:rgb(241,185,128)"/><path d="M-68.77617556298195,-46.779137191082306L-63.08108587595711,-45.112227982521325L-66.49975549471063,-51.312603950874575z" style="fill:rgb(239,125,187)"/><path d="M103.56858708346014,-42.4607335518687L83.46171174787868,-90.5024770848143L101.26766310755721,-45.96599330585717z" style="fill:rgb(13,69,126)"/><path d="M-73.32816580010042,33.42144671240881L-98.35100699356373,-11.670653277984869L-98.02467175072563,-7.434253851395764z" style="fill:rgb(246,169,146)"/><path d="M22.67721760277441,-97.12352563696147L30.66706829661791,-89.89756373764413L27.77289830721532,-96.37683299711985z" style="fill:rgb(63,34,187)"/><path d="M35.47098201098052,-88.72537144543554L27.77289830721532,-96.37683299711985L30.66706829661791,-89.89756373764413z" style="fill:rgb(54,37,180)"/><path d="M74.53504902427255,-99.43652936923563L95.69527383401248,-52.3134368816713L77.82623770711174,-96.69968766075375z" style="fill:rgb(23,56,144)"/><path d="M-65.33258644728923,-40.582882835969386L-70.55438262487439,-42.2353341812904L-67.08767532271209,-36.04173465592285zM-70.55438262487439,-42.2353341812904L-65.33258644728923,-40.582882835969386L-68.77617556298195,-46.779137191082306z" style="fill:rgb(243,134,180)"/><path d="M-94.75574714531558,4.562317010325926L-67.96431426733326,49.22858636854829L-69.8582375188388,45.49048724700824z" style="fill:rgb(238,189,122)"/><path d="M27.77289830721532,-96.37683299711985L35.47098201098052,-88.72537144543554L32.593455534046136,-95.22246354733873z" style="fill:rgb(54,37,180)"/><path d="M105.52703429653042,-38.74950584720488L85.77428381922574,-87.06062858066504L103.56858708346014,-42.4607335518687z" style="fill:rgb(11,74,120)"/><path d="M-72.5407226710653,37.56896420122714L-98.02467175072563,-7.434253851395764L-97.31803304336756,-3.3045914803012297z" style="fill:rgb(245,175,140)"/><path d="M39.959758241931645,-87.15100796467401L32.593455534046136,-95.22246354733873L35.47098201098052,-88.72537144543554z" style="fill:rgb(45,40,172)"/><path d="M77.82623770711174,-96.69968766075375L98.63824515858673,-49.25369241008847L80.80722300667568,-93.71878677832062z" style="fill:rgb(19,60,138)"/><path d="M-67.08767532271209,-36.04173465592285L-71.8142562229895,-37.7180170780057L-68.32647051957403,-31.52558531612611zM-71.8142562229895,-37.7180170780057L-67.08767532271209,-36.04173465592285L-70.55438262487439,-42.2353341812904z" style="fill:rgb(245,143,172)"/><path d="M32.593455534046136,-95.22246354733873L39.959758241931645,-87.15100796467401L37.09655589632559,-93.66516589492265z" style="fill:rgb(45,40,172)"/><path d="M107.13016560794172,-34.845119722629384L87.7305591611852,-83.40434299001478L105.52703429653042,-38.74950584720488z" style="fill:rgb(9,79,114)"/><path d="M-71.38414857680051,41.597977753692824L-97.31803304336756,-3.3045914803012297L-96.22868229532023,0.7002808922584323z" style="fill:rgb(243,180,134)"/><path d="M44.092625711833655,-85.1826074364169L37.09655589632559,-93.66516589492265L39.959758241931645,-87.15100796467401z" style="fill:rgb(37,44,164)"/><path d="M80.80722300667568,-93.71878677832062L101.26766310755721,-45.96599330585717L83.46171174787868,-90.5024770848143z" style="fill:rgb(16,65,132)"/><path d="M-68.32647051957403,-31.52558531612611L-72.53917645259098,-33.26469667412342L-69.03257359288556,-27.071930709568587zM-72.53917645259098,-33.26469667412342L-68.32647051957403,-31.52558531612611L-71.8142562229895,-37.7180170780057z" style="fill:rgb(247,151,164)"/><path d="M37.09655589632559,-93.66516589492265L44.092625711833655,-85.1826074364169L41.2412743275702,-91.71289128424428z" style="fill:rgb(37,44,164)"/><path d="M-72.53917645259098,-33.26469667412342L-69.19336892270661,-22.71871949895215L-69.03257359288556,-27.071930709568587z" style="fill:rgb(247,160,156)"/><path d="M47.830590884124454,-82.83162110642527L41.2412743275702,-91.71289128424428L44.092625711833655,-85.1826074364169z" style="fill:rgb(30,49,155)"/><path d="M-69.8582375188388,45.49048724700824L-96.22868229532023,0.7002808922584323L-94.75574714531558,4.562317010325926z" style="fill:rgb(241,185,128)"/><path d="M83.46171174787868,-90.5024770848143L103.56858708346014,-42.4607335518687L85.77428381922574,-87.06062858066504z" style="fill:rgb(13,69,126)"/><path d="M-69.19336892270661,-22.71871949895215L-72.53917645259098,-33.26469667412342L-72.716300359513,-28.913330932045852z" style="fill:rgb(247,160,156)"/><path d="M41.2412743275702,-91.71289128424428L47.830590884124454,-82.83162110642527L44.988471705885566,-89.37691093955488z" style="fill:rgb(30,49,155)"/><path d="M-72.716300359513,-28.913330932045852L-68.80034878074049,-18.504086899768637L-69.19336892270661,-22.71871949895215z" style="fill:rgb(246,168,147)"/><path d="M51.13684544505977,-80.11292154652185L44.988471705885566,-89.37691093955488L47.830590884124454,-82.83162110642527z" style="fill:rgb(24,54,147)"/><path d="M-67.96431426733326,49.22858636854829L-94.75574714531558,4.562317010325926L-92.8999295527208,8.263565279971148z" style="fill:rgb(238,189,122)"/><path d="M85.77428381922574,-87.06062858066504L105.52703429653042,-38.74950584720488L87.7305591611852,-83.40434299001478z" style="fill:rgb(11,74,120)"/><path d="M-68.80034878074049,-18.504086899768637L-72.716300359513,-28.913330932045852L-72.33690786104454,-24.702058725691487z" style="fill:rgb(246,168,147)"/><path d="M44.988471705885566,-89.37691093955488L51.13684544505977,-80.11292154652185L48.30120362862493,-86.67192132248192z" style="fill:rgb(24,54,147)"/><path d="M-72.33690786104454,-24.702058725691487L-67.84940772620756,-14.466047998011556L-68.80034878074049,-18.504086899768637z" style="fill:rgb(244,176,138)"/><path d="M53.97719926450573,-77.04486353713537L48.30120362862493,-86.67192132248192L51.13684544505977,-80.11292154652185z" style="fill:rgb(19,60,138)"/><path d="M87.7305591611852,-83.40434299001478L107.13016560794172,-34.845119722629384L89.31731413225721,-79.54597812559794z" style="fill:rgb(9,79,114)"/><path d="M-67.84940772620756,-14.466047998011556L-72.33690786104454,-24.702058725691487L-71.39669557265512,-20.66889262421975z" style="fill:rgb(244,176,138)"/><path d="M48.30120362862493,-86.67192132248192L53.97719926450573,-77.04486353713537L51.145152501436414,-83.61610965858694z" style="fill:rgb(19,60,138)"/><path d="M-71.39669557265512,-20.66889262421975L-66.3411197666501,-10.642143031095381L-67.84940772620756,-14.466047998011556z" style="fill:rgb(241,183,129)"/><path d="M56.32051104769426,-73.64931636673506L51.145152501436414,-83.61610965858694L53.97719926450573,-77.04486353713537z" style="fill:rgb(15,67,129)"/><path d="M-66.3411197666501,-10.642143031095381L-71.39669557265512,-20.66889262421975L-69.89605810645588,-16.851363589014962z" style="fill:rgb(241,183,129)"/><path d="M51.145152501436414,-83.61610965858694L56.32051104769426,-73.64931636673506L53.48908249714616,-80.23118838114934z" style="fill:rgb(15,67,129)"/><path d="M58.139196761588245,-69.95165831179206L53.48908249714616,-80.23118838114934L56.32051104769426,-73.64931636673506zM53.48908249714616,-80.23118838114934L58.139196761588245,-69.95165831179206L55.30530324581508,-76.5423884103228z" style="fill:rgb(11,74,120)"/><path d="M-133.21060793650958,-108.38768927721092L141.05522241250813,68.51566273731152L109.50121498940163,-179.70873590666264z" style="fill:rgb(83,212,212)"/><path d="M141.05522241250813,68.51566273731152L133.50988108083746,-110.97112053748835L109.50121498940163,-179.70873590666264z" style="fill:rgb(247,158,158)"/><path d="M141.05522241250813,68.51566273731152L-133.21060793650958,-108.38768927721092L-168.75677996336324,140.50349382618856z" style="fill:rgb(83,212,212)"/><path d="M133.50988108083746,-110.97112053748835L141.05522241250813,68.51566273731152L169.23736807118374,137.93752773407792z" style="fill:rgb(247,158,158)"/><path d="M-121.9437655268331,200.34901804288052L141.05522241250813,68.51566273731152L-168.75677996336324,140.50349382618856zM141.05522241250813,68.51566273731152L-121.9437655268331,200.34901804288052L169.23736807118374,137.93752773407792z" style="fill:rgb(127,37,217)"/></svg>
