<?xml version="1.0" encoding="UTF-8"?>
<!-- Generated by jsxcad -->
<!DOCTYPE svg PUBLIC "-//W3C//DTD SVG 1.1 Tiny//EN" "http://www.w3.org/Graphics/SVG/1.1/DTD/svg11-tiny.dtd">
<svg viewBox="-250 -250 500 500" width="500" height="500" xmlns="http://www.w3.org/2000/svg"><path d="M-33.01991317003317,-96.17163022275608L-17.186380345742236,-51.52384790166371L-12.055512854389896,-54.25933687635877z" style="fill:rgb(168,53,222)"/><path d="M-27.58479536055598,-98.80421009069448L-12.055512854389896,-54.25933687635877L-6.8170714816672255,-56.7877456582366z" style="fill:rgb(161,49,222)"/><path d="M-38.34914942412818,-93.33570645538418L-22.192667572123312,-48.59027195477606L-17.186380345742236,-51.52384790166371z" style="fill:rgb(175,57,222)"/><path d="M-22.061562327706582,-101.2246955820119L-6.8170714816672255,-56.7877456582366L-1.4883349436704072,-59.10059849369888z" style="fill:rgb(154,46,222)"/><path d="M-43.55500755157362,-90.3056761291958L-27.057656624707835,-45.468105580908635L-22.192667572123312,-48.59027195477606z" style="fill:rgb(182,61,221)"/><path d="M-16.468227867421717,-103.42486162978855L-1.4883349436704072,-59.10059849369888L3.913155258602121,-61.18995493584662z" style="fill:rgb(146,43,221)"/><path d="M-27.057656624707835,-45.468105580908635L-53.52797670125011,-83.70264771868564L-31.764930095532836,-42.167358714855695z" style="fill:rgb(189,66,220)"/><path d="M-10.823050264969641,-105.39697656019482L3.913155258602121,-61.18995493584662L9.369609646395668,-63.048396524053935z" style="fill:rgb(139,40,220)"/><path d="M-31.764930095532836,-42.167358714855695L-58.26151732178326,-80.15056223356939L-36.2983897416284,-38.69854145792476z" style="fill:rgb(196,71,219)"/><path d="M-5.144520337974952,-107.13383765046633L9.369609646395668,-63.048396524053935L14.863002120609348,-64.66906136407476z" style="fill:rgb(131,38,218)"/><path d="M-36.2983897416284,-38.69854145792476L-62.804576015109774,-76.44616879646463L-40.64228460731272,-35.07266428855767z" style="fill:rgb(202,76,217)"/><path d="M0.5486512419232927,-108.62879220088928L14.863002120609348,-64.66906136407476L20.3750828278059,-66.04564704098293z" style="fill:rgb(123,36,216)"/><path d="M-40.64228460731272,-35.07266428855767L-67.14118693610726,-72.60114783162177L-44.78121969363718,-31.301243498482652z" style="fill:rgb(208,81,214)"/><path d="M6.237544656828431,-109.87572477153215L20.3750828278059,-66.04564704098293L25.887393248102203,-67.1724370367425z" style="fill:rgb(115,34,214)"/><path d="M-44.78121969363718,-31.301243498482652L-71.25574382981596,-68.62763393313782L-48.700185593986035,-27.396290346080367z" style="fill:rgb(213,86,212)"/><path d="M11.903046098574755,-110.86911793739522L25.887393248102203,-67.1724370367425L31.38128222694612,-68.04432197384406z" style="fill:rgb(108,33,211)"/><path d="M-48.700185593986035,-27.396290346080367L-75.13305492497486,-64.53826502269872L-52.384595871092785,-23.370310384768484z" style="fill:rgb(218,92,209)"/><path d="M17.525865582953422,-111.60404343691863L31.38128222694612,-68.04432197384406L36.83792633527037,-68.65681115349295z" style="fill:rgb(100,32,208)"/><path d="M-52.384595871092785,-23.370310384768484L-78.75835193254593,-60.3461623239045L-55.82031717959824,-19.23631364642855z" style="fill:rgb(223,98,206)"/><path d="M-12.055512854389896,-54.25933687635877L-27.58479536055598,-98.80421009069448L-33.01991317003317,-96.17163022275608z" style="fill:rgb(161,49,222)"/><path d="M-17.186380345742236,-51.52384790166371L-33.01991317003317,-96.17163022275608L-38.34914942412818,-93.33570645538418z" style="fill:rgb(168,53,222)"/><path d="M23.08655414572692,-112.07621197594186L36.83792633527037,-68.65681115349295L42.23834293314867,-69.00607624617388z" style="fill:rgb(93,32,205)"/><path d="M-6.8170714816672255,-56.7877456582366L-22.061562327706582,-101.2246955820119L-27.58479536055598,-98.80421009069448z" style="fill:rgb(154,46,222)"/><path d="M-22.192667572123312,-48.59027195477606L-38.34914942412818,-93.33570645538418L-43.55500755157362,-90.3056761291958z" style="fill:rgb(175,57,222)"/><path d="M-1.4883349436704072,-59.10059849369888L-16.468227867421717,-103.42486162978855L-22.061562327706582,-101.2246955820119z" style="fill:rgb(146,43,221)"/><path d="M-27.057656624707835,-45.468105580908635L-43.55500755157362,-90.3056761291958L-48.620262553471946,-87.09125064347977z" style="fill:rgb(182,61,221)"/><path d="M-53.52797670125011,-83.70264771868564L-27.057656624707835,-45.468105580908635L-48.620262553471946,-87.09125064347977z" style="fill:rgb(189,66,220)"/><path d="M3.913155258602121,-61.18995493584662L-10.823050264969641,-105.39697656019482L-16.468227867421717,-103.42486162978855z" style="fill:rgb(139,40,220)"/><path d="M-55.82031717959824,-19.23631364642855L-82.11732287561578,-56.06492527108488L-58.99370048085477,-15.007796883953295z" style="fill:rgb(227,104,202)"/><path d="M-58.26151732178326,-80.15056223356939L-31.764930095532836,-42.167358714855695L-53.52797670125011,-83.70264771868564z" style="fill:rgb(196,71,219)"/><path d="M9.369609646395668,-63.048396524053935L-5.144520337974952,-107.13383765046633L-10.823050264969641,-105.39697656019482z" style="fill:rgb(131,38,218)"/><path d="M28.565536255681717,-112.28198317959611L42.23834293314867,-69.00607624617388L47.5634368278762,-69.08896284095263z" style="fill:rgb(86,32,201)"/><path d="M-62.804576015109774,-76.44616879646463L-36.2983897416284,-38.69854145792476L-58.26151732178326,-80.15056223356939z" style="fill:rgb(202,76,217)"/><path d="M14.863002120609348,-64.66906136407476L0.5486512419232927,-108.62879220088928L-5.144520337974952,-107.13383765046633z" style="fill:rgb(123,36,216)"/><path d="M-58.99370048085477,-15.007796883953295L-85.19618133397397,-51.708633236447156L-61.89163413005406,-10.698744527583498z" style="fill:rgb(231,110,198)"/><path d="M-67.14118693610726,-72.60114783162177L-40.64228460731272,-35.07266428855767L-62.804576015109774,-76.44616879646463z" style="fill:rgb(208,81,214)"/><path d="M33.94312676371169,-112.21842408621707L47.5634368278762,-69.08896284095263L52.794003238538586,-68.90305375237469z" style="fill:rgb(79,32,197)"/><path d="M20.3750828278059,-66.04564704098293L6.237544656828431,-109.87572477153215L0.5486512419232927,-108.62879220088928z" style="fill:rgb(115,34,214)"/><path d="M-71.25574382981596,-68.62763393313782L-44.78121969363718,-31.301243498482652L-67.14118693610726,-72.60114783162177z" style="fill:rgb(213,86,212)"/><path d="M25.887393248102203,-67.1724370367425L11.903046098574755,-110.86911793739522L6.237544656828431,-109.87572477153215z" style="fill:rgb(108,33,211)"/><path d="M-61.89163413005406,-10.698744527583498L-87.98169983309161,-47.29183908039343L-64.501587416952,-6.323622639053832z" style="fill:rgb(235,116,194)"/><path d="M39.19957481126654,-111.8833319496043L52.794003238538586,-68.90305375237469L57.91078308810191,-68.44665845738548z" style="fill:rgb(72,33,193)"/><path d="M-75.13305492497486,-64.53826502269872L-48.700185593986035,-27.396290346080367L-71.25574382981596,-68.62763393313782z" style="fill:rgb(218,92,209)"/><path d="M31.38128222694612,-68.04432197384406L17.525865582953422,-111.60404343691863L11.903046098574755,-110.86911793739522z" style="fill:rgb(100,32,208)"/><path d="M-18.463660404765072,-119.84204318712992L-131.51184010762682,-88.78855042883026L-131.73346077762,-87.18370935881832zM-131.51184010762682,-88.78855042883026L111.91044264558003,-172.8110341100034L-129.65010399203845,-102.27010239739157z" style="fill:rgb(83,212,212)"/><path d="M62.894491668033,-67.71889455424778L39.19957481126654,-111.8833319496043L57.91078308810191,-68.44665845738548z" style="fill:rgb(65,34,188)"/><path d="M-64.501587416952,-6.323622639053832L-90.46126247051374,-42.82955910862985L-66.81166105698446,-1.8973672950701408z" style="fill:rgb(238,122,189)"/><path d="M-78.75835193254593,-60.3461623239045L-52.384595871092785,-23.370310384768484L-75.13305492497486,-64.53826502269872z" style="fill:rgb(223,98,206)"/><path d="M36.83792633527037,-68.65681115349295L23.08655414572692,-112.07621197594186L17.525865582953422,-111.60404343691863z" style="fill:rgb(93,32,205)"/><path d="M-20.938151742070605,-115.28050002579498L-131.73346077762,-87.18370935881832L-132.27159185673904,-83.28689388196536z" style="fill:rgb(83,212,212)"/><path d="M-82.11732287561578,-56.06492527108488L-55.82031717959824,-19.23631364642855L-78.75835193254593,-60.3461623239045z" style="fill:rgb(227,104,202)"/><path d="M67.72587076047797,-66.71969988579157L44.31510284567734,-111.27526784020078L62.894491668033,-67.71889455424778z" style="fill:rgb(58,35,183)"/><path d="M-66.81166105698446,-1.8973672950701408L-92.62293283845128,-38.337259088160614L-68.81065232188185,2.564630324135915z" style="fill:rgb(241,128,185)"/><path d="M42.23834293314867,-69.00607624617388L28.565536255681717,-112.28198317959611L23.08655414572692,-112.07621197594186z" style="fill:rgb(86,32,201)"/><path d="M-85.19618133397397,-51.708633236447156L-58.99370048085477,-15.007796883953295L-82.11732287561578,-56.06492527108488z" style="fill:rgb(231,110,198)"/><path d="M47.5634368278762,-69.08896284095263L33.94312676371169,-112.21842408621707L28.565536255681717,-112.28198317959611z" style="fill:rgb(79,32,197)"/><path d="M72.38574095611571,-65.44988913798028L49.269946108590105,-110.39361269687794L67.72587076047797,-66.71969988579157z" style="fill:rgb(52,37,178)"/><path d="M-18.619546769037907,-112.0638370599029L-132.27159185673904,-83.28689388196536L-132.81413749937917,-79.35811084159455z" style="fill:rgb(83,212,212)"/><path d="M-68.81065232188185,2.564630324135915L-94.45551639579423,-33.830840227886554L-70.48811493798438,7.046540406806213z" style="fill:rgb(243,134,180)"/><path d="M-87.98169983309161,-47.29183908039343L-61.89163413005406,-10.698744527583498L-85.19618133397397,-51.708633236447156z" style="fill:rgb(235,116,194)"/><path d="M-133.04017287546407,-77.72130117565592L-18.619546769037907,-112.0638370599029L-132.81413749937917,-79.35811084159455zM-131.51184010762682,-88.78855042883026L-18.463660404765072,-119.84204318712992L-12.667506524293525,-123.10092942227534z" style="fill:rgb(83,212,212)"/><path d="M52.794003238538586,-68.90305375237469L39.19957481126654,-111.8833319496043L33.94312676371169,-112.21842408621707z" style="fill:rgb(72,33,193)"/><path d="M76.8550579306155,-63.91118215082349L54.04441367542488,-109.23858474433531L72.38574095611571,-65.44988913798028z" style="fill:rgb(46,40,173)"/><path d="M-70.48811493798438,7.046540406806213L-95.94860692357469,-29.32661755083105L-71.8344037022046,11.532118625911586z" style="fill:rgb(245,140,174)"/><path d="M-131.73346077762,-87.18370935881832L-20.938151742070605,-115.28050002579498L-18.463660404765072,-119.84204318712992z" style="fill:rgb(83,212,212)"/><path d="M-90.46126247051374,-42.82955910862985L-64.501587416952,-6.323622639053832L-87.98169983309161,-47.29183908039343z" style="fill:rgb(238,122,189)"/><path d="M39.19957481126654,-111.8833319496043L62.894491668033,-67.71889455424778L44.31510284567734,-111.27526784020078z" style="fill:rgb(65,34,188)"/><path d="M81.11497731161249,-62.106254750807025L58.61894522961209,-107.81132167464779L76.8550579306155,-63.91118215082349z" style="fill:rgb(41,42,168)"/><path d="M-71.8344037022046,11.532118625911586L-97.0927136640075,-24.841287023988542L-72.84079577182905,16.004732537085598z" style="fill:rgb(246,146,169)"/><path d="M-132.27159185673904,-83.28689388196536L-18.619546769037907,-112.0638370599029L-20.938151742070605,-115.28050002579498z" style="fill:rgb(83,212,212)"/><path d="M-92.62293283845128,-38.337259088160614L-66.81166105698446,-1.8973672950701408L-90.46126247051374,-42.82955910862985z" style="fill:rgb(241,128,185)"/><path d="M44.31510284567734,-111.27526784020078L67.72587076047797,-66.71969988579157L49.269946108590105,-110.39361269687794z" style="fill:rgb(58,35,183)"/><path d="M85.14693364154853,-60.03876927765221L62.9741739688106,-106.11389512992558L81.11497731161249,-62.106254750807025z" style="fill:rgb(36,45,162)"/><path d="M-72.84079577182905,16.004732537085598L-97.87927895447537,-20.391897960296436L-73.49951515757606,20.44739682522497z" style="fill:rgb(247,152,164)"/><path d="M-94.45551639579423,-33.830840227886554L-68.81065232188185,2.564630324135915L-92.62293283845128,-38.337259088160614z" style="fill:rgb(243,134,180)"/><path d="M-18.619546769037907,-112.0638370599029L-133.04017287546407,-77.72130117565592L-12.819241210674836,-112.10469788092962z" style="fill:rgb(83,212,212)"/><path d="M49.269946108590105,-110.39361269687794L72.38574095611571,-65.44988913798028L54.04441367542488,-109.23858474433531z" style="fill:rgb(52,37,178)"/><path d="M-95.94860692357469,-29.32661755083105L-70.48811493798438,7.046540406806213L-94.45551639579423,-33.830840227886554z" style="fill:rgb(245,140,174)"/><path d="M88.93271789687842,-57.7134342343615L67.09101280025502,-104.14937767635458L85.14693364154853,-60.03876927765221z" style="fill:rgb(31,48,156)"/><path d="M-73.49951515757606,20.44739682522497L-98.30082831487087,-15.995812481496234L-73.80384023479665,24.84281397943864z" style="fill:rgb(247,158,158)"/><path d="M111.91044264558003,-172.8110341100034L-131.51184010762682,-88.78855042883026L113.61806217238892,-159.5617280358124z" style="fill:rgb(83,212,212)"/><path d="M54.04441367542488,-109.23858474433531L76.8550579306155,-63.91118215082349L58.61894522961209,-107.81132167464779z" style="fill:rgb(46,40,173)"/><path d="M-28.274188267516642,-86.13401172847777L-30.50936833925044,-76.87351599881002L-25.122869826066502,-79.83692426550255z" style="fill:rgb(171,54,222)"/><path d="M-22.69274648608167,-88.80559718535304L-25.122869826066502,-79.83692426550255L-19.571932367761498,-82.49224907274468z" style="fill:rgb(160,49,222)"/><path d="M-33.69158144738976,-83.15523458652176L-35.69064200583881,-73.62421976986835L-30.50936833925044,-76.87351599881002z" style="fill:rgb(181,61,221)"/><path d="M-16.98927421599902,-91.14961660965204L-19.571932367761498,-82.49224907274468L-13.898383607296601,-84.81922066929236z" style="fill:rgb(149,44,221)"/><path d="M-98.30082831487087,-15.995812481496234L-73.74818240840912,29.17342151257291L-73.80384023479665,24.84281397943864z" style="fill:rgb(247,164,152)"/><path d="M-18.619546769037907,-112.0638370599029L-24.064724152038703,-121.77402878420384L-20.938151742070605,-115.28050002579498z" style="fill:rgb(16,64,133)"/><path d="M-97.0927136640075,-24.841287023988542L-71.8344037022046,11.532118625911586L-95.94860692357469,-29.32661755083105z" style="fill:rgb(246,146,169)"/><path d="M-35.69064200583881,-73.62421976986835L-43.871470242644,-76.36713185014003L-40.62709396872273,-70.1131036911598z" style="fill:rgb(191,67,220)"/><path d="M-11.206675132918448,-93.14774003054356L-13.898383607296601,-84.81922066929236L-8.14494210678813,-86.79962397129832z" style="fill:rgb(138,40,220)"/><path d="M92.45457262621261,-55.136029241855034L70.9507337062212,-101.9218575188538L88.93271789687842,-57.7134342343615z" style="fill:rgb(27,52,150)"/><path d="M-25.122869826066502,-79.83692426550255L-22.69274648608167,-88.80559718535304L-28.274188267516642,-86.13401172847777z" style="fill:rgb(160,49,222)"/><path d="M-30.50936833925044,-76.87351599881002L-28.274188267516642,-86.13401172847777L-33.69158144738976,-83.15523458652176z" style="fill:rgb(171,54,222)"/><path d="M-19.571932367761498,-82.49224907274468L-16.98927421599902,-91.14961660965204L-22.69274648608167,-88.80559718535304z" style="fill:rgb(149,44,221)"/><path d="M-21.565093650887754,-126.33762135335141L-21.748191998548062,-118.57069299285331L-15.73558956592909,-129.61275323376384z" style="fill:rgb(83,212,212)"/><path d="M-35.69064200583881,-73.62421976986835L-33.69158144738976,-83.15523458652176L-38.90393811712011,-79.89155712142933z" style="fill:rgb(181,61,221)"/><path d="M-40.62709396872273,-70.1131036911598L-48.55572553725021,-72.60789425861876L-45.28049334474121,-66.3660268548672z" style="fill:rgb(200,74,217)"/><path d="M-5.388580557327993,-94.7837291253586L-8.14494210678813,-86.79962397129832L-2.3550548355013787,-88.41734572774844z" style="fill:rgb(127,37,217)"/><path d="M-43.871470242644,-76.36713185014003L-35.69064200583881,-73.62421976986835L-38.90393811712011,-79.89155712142933z" style="fill:rgb(191,67,220)"/><path d="M-13.898383607296601,-84.81922066929236L-11.206675132918448,-93.14774003054356L-16.98927421599902,-91.14961660965204z" style="fill:rgb(138,40,220)"/><path d="M-21.748191998548062,-118.57069299285331L-21.565093650887754,-126.33762135335141L-24.064724152038703,-121.77402878420384z" style="fill:rgb(83,212,212)"/><path d="M58.61894522961209,-107.81132167464779L81.11497731161249,-62.106254750807025L62.9741739688106,-106.11389512992558z" style="fill:rgb(41,42,168)"/><path d="M-48.55572553725021,-72.60789425861876L-40.62709396872273,-70.1131036911598L-43.871470242644,-76.36713185014003z" style="fill:rgb(200,74,217)"/><path d="M-8.14494210678813,-86.79962397129832L-5.388580557327993,-94.7837291253586L-11.206675132918448,-93.14774003054356z" style="fill:rgb(127,37,217)"/><path d="M-15.73558956592909,-129.61275323376384L-10.028963976272857,-121.94867550921019L-9.944286202858361,-129.7095072115503z" style="fill:rgb(83,212,212)"/><path d="M-45.28049334474121,-66.3660268548672L-52.9197894585738,-68.64149628587411L-49.614125518205476,-62.410573681516645z" style="fill:rgb(209,82,214)"/><path d="M0.4208061246595088,-96.04354524370522L-2.3550548355013787,-88.41734572774844L3.4272559628791477,-89.65848245564538z" style="fill:rgb(116,34,214)"/><path d="M-24.064724152038703,-121.77402878420384L-18.619546769037907,-112.0638370599029L-21.748191998548062,-118.57069299285331z" style="fill:rgb(16,64,133)"/><path d="M-98.3510069935637,-11.670653277984867L-73.32816580010041,33.4214467124088L-73.74818240840912,29.17342151257291z" style="fill:rgb(246,169,146)"/><path d="M-6.898766691239725,-123.17647163994631L113.61806217238892,-159.5617280358124L-12.667506524293525,-123.10092942227534z" style="fill:rgb(83,212,212)"/><path d="M-97.87927895447537,-20.391897960296436L-72.84079577182905,16.004732537085598L-97.0927136640075,-24.841287023988542z" style="fill:rgb(247,152,164)"/><path d="M-52.9197894585738,-68.64149628587411L-45.28049334474121,-66.3660268548672L-48.55572553725021,-72.60789425861876z" style="fill:rgb(209,82,214)"/><path d="M-2.3550548355013787,-88.41734572774844L0.4208061246595088,-96.04354524370522L-5.388580557327993,-94.7837291253586z" style="fill:rgb(116,34,214)"/><path d="M-4.514255740976625,-120.0002009603739L-10.028963976272857,-121.94867550921019L-6.95718075597259,-115.40397805895154z" style="fill:rgb(238,121,190)"/><path d="M95.69527383401247,-52.31343688167129L74.53504902427254,-99.43652936923561L92.45457262621261,-55.136029241855034z" style="fill:rgb(23,56,144)"/><path d="M-15.73558956592909,-129.61275323376384L-21.748191998548062,-118.57069299285331L-15.925141184510078,-118.63274000467077z" style="fill:rgb(83,212,212)"/><path d="M-49.614125518205476,-62.410573681516645L-56.9284442543062,-64.49721403488722L-53.59299518567797,-58.27596109480184z" style="fill:rgb(217,90,210)"/><path d="M-15.925141184510078,-118.63274000467077L-18.619546769037907,-112.0638370599029L-12.819241210674836,-112.10469788092962z" style="fill:rgb(81,32,199)"/><path d="M6.176881746550637,-96.91545065939181L3.4272559628791477,-89.65848245564538L9.157564289302963,-90.5114412547252z" style="fill:rgb(105,33,210)"/><path d="M-10.028963976272857,-121.94867550921019L-4.514255740976625,-120.0002009603739L-7.561084199242994,-126.54697330416204z" style="fill:rgb(238,121,190)"/><path d="M-9.944286202858361,-129.7095072115503L-10.028963976272857,-121.94867550921019L-7.561084199242994,-126.54697330416204zM-15.73558956592909,-129.61275323376384L-15.925141184510078,-118.63274000467077L-10.028963976272857,-121.94867550921019z" style="fill:rgb(83,212,212)"/><path d="M-18.619546769037907,-112.0638370599029L-15.925141184510078,-118.63274000467077L-21.748191998548062,-118.57069299285331z" style="fill:rgb(81,32,199)"/><path d="M-10.028963976272857,-121.94867550921019L-12.819241210674836,-112.10469788092962L-6.95718075597259,-115.40397805895154z" style="fill:rgb(173,56,222)"/><path d="M-56.9284442543062,-64.49721403488722L-49.614125518205476,-62.410573681516645L-52.9197894585738,-68.64149628587411z" style="fill:rgb(217,90,210)"/><path d="M3.4272559628791477,-89.65848245564538L6.176881746550637,-96.91545065939181L0.4208061246595088,-96.04354524370522z" style="fill:rgb(105,33,210)"/><path d="M62.9741739688106,-106.11389512992558L85.14693364154853,-60.03876927765221L67.09101280025502,-104.14937767635458z" style="fill:rgb(36,45,162)"/><path d="M-4.514255740976625,-120.0002009603739L113.82153848486288,-157.98296030595398L-6.898766691239725,-123.17647163994631z" style="fill:rgb(83,212,212)"/><path d="M-53.59299518567797,-58.27596109480184L-60.54838187749027,-60.2058866815532L-57.184017951640634,-53.99298087078224z" style="fill:rgb(224,99,205)"/><path d="M11.834827022485939,-97.39014601062956L9.157564289302963,-90.5114412547252L14.791226213463764,-90.96707678004718z" style="fill:rgb(94,32,205)"/><path d="M-98.02467175072559,-7.43425385139576L-72.54072267106528,37.56896420122713L-73.32816580010041,33.4214467124088z" style="fill:rgb(245,175,140)"/><path d="M-12.819241210674836,-112.10469788092962L-10.028963976272857,-121.94867550921019L-15.925141184510078,-118.63274000467077z" style="fill:rgb(173,56,222)"/><path d="M-98.30082831487087,-15.995812481496234L-73.49951515757606,20.44739682522497L-97.87927895447537,-20.391897960296436z" style="fill:rgb(247,158,158)"/><path d="M-60.54838187749027,-60.2058866815532L-53.59299518567797,-58.27596109480184L-56.9284442543062,-64.49721403488722z" style="fill:rgb(224,99,205)"/><path d="M9.157564289302963,-90.5114412547252L11.834827022485939,-97.39014601062956L6.176881746550637,-96.91545065939181z" style="fill:rgb(94,32,205)"/><path d="M98.63824515858671,-49.253692410088455L77.82623770711173,-96.69968766075374L95.69527383401247,-52.31343688167129z" style="fill:rgb(19,60,138)"/><path d="M-57.184017951640634,-53.99298087078224L-63.748422986764616,-55.79980379141432L-60.35624286508794,-49.59386537373706z" style="fill:rgb(230,107,200)"/><path d="M17.34981091324716,-97.46087176371596L14.791226213463764,-90.96707678004718L20.283582756000083,-91.01879178105233z" style="fill:rgb(83,32,200)"/><path d="M67.09101280025502,-104.14937767635458L88.93271789687842,-57.7134342343615L70.9507337062212,-101.9218575188538z" style="fill:rgb(31,48,156)"/><path d="M-63.748422986764616,-55.79980379141432L-57.184017951640634,-53.99298087078224L-60.54838187749027,-60.2058866815532z" style="fill:rgb(230,107,200)"/><path d="M14.791226213463764,-90.96707678004718L17.34981091324716,-97.46087176371596L11.834827022485939,-97.39014601062956z" style="fill:rgb(83,32,200)"/><path d="M-97.31803304336755,-3.3045914803012293L-71.3841485768005,41.59797775369281L-72.54072267106528,37.56896420122713z" style="fill:rgb(243,180,134)"/><path d="M114.81435444492864,-150.27976738058587L-4.514255740976625,-120.0002009603739L-6.95718075597259,-115.40397805895154z" style="fill:rgb(83,212,212)"/><path d="M-60.35624286508794,-49.59386537373706L-66.49975549471061,-51.31260395087456L-63.08108587595709,-45.11222798252131z" style="fill:rgb(235,116,194)"/><path d="M22.6772176027744,-97.12352563696146L20.283582756000083,-91.01879178105233L25.59019079540446,-90.66265377137438z" style="fill:rgb(73,33,194)"/><path d="M101.2676631075572,-45.96599330585716L80.80722300667566,-93.71878677832058L98.63824515858671,-49.253692410088455z" style="fill:rgb(16,65,132)"/><path d="M-73.74818240840912,29.17342151257291L-98.30082831487087,-15.995812481496234L-98.3510069935637,-11.670653277984867z" style="fill:rgb(247,164,152)"/><path d="M-66.49975549471061,-51.31260395087456L-60.35624286508794,-49.59386537373706L-63.748422986764616,-55.79980379141432z" style="fill:rgb(235,116,194)"/><path d="M20.283582756000083,-91.01879178105233L22.6772176027744,-97.12352563696146L17.34981091324716,-97.46087176371596z" style="fill:rgb(73,33,194)"/><path d="M113.61806217238892,-159.5617280358124L-6.898766691239725,-123.17647163994631L113.82153848486288,-157.98296030595398zM115.02214230451408,-148.66754870692057L-6.95718075597259,-115.40397805895154L-12.819241210674836,-112.10469788092962z" style="fill:rgb(83,212,212)"/><path d="M70.9507337062212,-101.9218575188538L92.45457262621261,-55.136029241855034L74.53504902427254,-99.43652936923561z" style="fill:rgb(27,52,150)"/><path d="M30.667068296617902,-89.89756373764412L22.6772176027744,-97.12352563696146L25.59019079540446,-90.66265377137438z" style="fill:rgb(63,34,187)"/><path d="M-63.08108587595709,-45.11222798252131L-68.77617556298192,-46.779137191082285L-65.33258644728922,-40.58288283596938z" style="fill:rgb(239,125,187)"/><path d="M-96.2286822953202,0.7002808922584319L-69.85823751883879,45.490487247008225L-71.3841485768005,41.59797775369281z" style="fill:rgb(241,185,128)"/><path d="M-68.77617556298192,-46.779137191082285L-63.08108587595709,-45.11222798252131L-66.49975549471061,-51.31260395087456z" style="fill:rgb(239,125,187)"/><path d="M103.56858708346012,-42.46073355186869L83.46171174787864,-90.50247708481426L101.2676631075572,-45.96599330585716z" style="fill:rgb(13,69,126)"/><path d="M-73.32816580010041,33.4214467124088L-98.3510069935637,-11.670653277984867L-98.02467175072559,-7.43425385139576z" style="fill:rgb(246,169,146)"/><path d="M113.82153848486288,-157.98296030595398L-4.514255740976625,-120.0002009603739L114.31579089011281,-154.1480888044774z" style="fill:rgb(83,212,212)"/><path d="M22.6772176027744,-97.12352563696146L30.667068296617902,-89.89756373764412L27.772898307215314,-96.37683299711983z" style="fill:rgb(63,34,187)"/><path d="M35.470982010980514,-88.72537144543553L27.772898307215314,-96.37683299711983L30.667068296617902,-89.89756373764412z" style="fill:rgb(54,37,180)"/><path d="M74.53504902427254,-99.43652936923561L95.69527383401247,-52.31343688167129L77.82623770711173,-96.69968766075374z" style="fill:rgb(23,56,144)"/><path d="M119.4506175255266,-114.30731535887318L-133.04017287546407,-77.72130117565592L-137.84600511975606,-42.92040513005613z" style="fill:rgb(83,212,212)"/><path d="M-65.33258644728922,-40.58288283596938L-70.55438262487438,-42.23533418129039L-67.08767532271206,-36.04173465592283zM-70.55438262487438,-42.23533418129039L-65.33258644728922,-40.58288283596938L-68.77617556298192,-46.779137191082285z" style="fill:rgb(243,134,180)"/><path d="M-4.514255740976625,-120.0002009603739L114.81435444492864,-150.27976738058587L114.31579089011281,-154.1480888044774z" style="fill:rgb(83,212,212)"/><path d="M-94.75574714531557,4.562317010325926L-67.96431426733325,49.22858636854828L-69.85823751883879,45.490487247008225z" style="fill:rgb(238,189,122)"/><path d="M27.772898307215314,-96.37683299711983L35.470982010980514,-88.72537144543553L32.59345553404613,-95.22246354733872z" style="fill:rgb(54,37,180)"/><path d="M105.52703429653039,-38.74950584720487L85.77428381922572,-87.06062858066501L103.56858708346012,-42.46073355186869z" style="fill:rgb(11,74,120)"/><path d="M-72.54072267106528,37.56896420122713L-98.02467175072559,-7.43425385139576L-97.31803304336755,-3.3045914803012293z" style="fill:rgb(245,175,140)"/><path d="M39.959758241931624,-87.15100796467397L32.59345553404613,-95.22246354733872L35.470982010980514,-88.72537144543553z" style="fill:rgb(45,40,172)"/><path d="M77.82623770711173,-96.69968766075374L98.63824515858671,-49.253692410088455L80.80722300667566,-93.71878677832058z" style="fill:rgb(19,60,138)"/><path d="M-67.08767532271206,-36.04173465592283L-71.81425622298948,-37.718017078005694L-68.32647051957402,-31.525585316126108z" style="fill:rgb(245,143,172)"/><path d="M-6.95718075597259,-115.40397805895154L115.02214230451408,-148.66754870692057L114.81435444492864,-150.27976738058587z" style="fill:rgb(83,212,212)"/><path d="M-71.81425622298948,-37.718017078005694L-67.08767532271206,-36.04173465592283L-70.55438262487438,-42.23533418129039z" style="fill:rgb(245,143,172)"/><path d="M-104.44842152676257,-38.62798441677511L-139.52604614887667,-30.754577572826697L-139.7755261463299,-28.947994176501698zM-41.035466087067334,-57.785837760558486L-137.84600511975606,-42.92040513005613L-139.52604614887667,-30.754577572826697z" style="fill:rgb(83,212,212)"/><path d="M32.59345553404613,-95.22246354733872L39.959758241931624,-87.15100796467397L37.09655589632558,-93.66516589492262z" style="fill:rgb(45,40,172)"/><path d="M107.13016560794169,-34.84511972262938L87.73055916118516,-83.40434299001475L105.52703429653039,-38.74950584720487z" style="fill:rgb(9,79,114)"/><path d="M-71.3841485768005,41.59797775369281L-97.31803304336755,-3.3045914803012293L-96.2286822953202,0.7002808922584319z" style="fill:rgb(243,180,134)"/><path d="M44.09262571183365,-85.18260743641689L37.09655589632558,-93.66516589492262L39.959758241931624,-87.15100796467397z" style="fill:rgb(37,44,164)"/><path d="M-133.04017287546407,-77.72130117565592L119.4506175255266,-114.30731535887318L115.02214230451408,-148.66754870692057z" style="fill:rgb(83,212,212)"/><path d="M80.80722300667566,-93.71878677832058L101.2676631075572,-45.96599330585716L83.46171174787864,-90.50247708481426z" style="fill:rgb(16,65,132)"/><path d="M-68.32647051957402,-31.525585316126108L-72.53917645259095,-33.26469667412341L-69.03257359288553,-27.071930709568576z" style="fill:rgb(247,151,164)"/><path d="M-139.52604614887667,-30.754577572826697L-104.44842152676257,-38.62798441677511L-98.39033395933403,-42.04448941894123z" style="fill:rgb(83,212,212)"/><path d="M-72.53917645259095,-33.26469667412341L-68.32647051957402,-31.525585316126108L-71.81425622298948,-37.718017078005694z" style="fill:rgb(247,151,164)"/><path d="M-107.34628326186757,-33.57606387962558L-139.7755261463299,-28.947994176501698L-140.38151754789243,-24.559775805405206zM-137.84600511975606,-42.92040513005613L-41.035466087067334,-57.785837760558486L-40.529053508864536,-69.9209753608017z" style="fill:rgb(83,212,212)"/><path d="M37.09655589632558,-93.66516589492262L44.09262571183365,-85.18260743641689L41.241274327570196,-91.71289128424426z" style="fill:rgb(37,44,164)"/><path d="M-139.7755261463299,-28.947994176501698L-107.34628326186757,-33.57606387962558L-104.44842152676257,-38.62798441677511z" style="fill:rgb(83,212,212)"/><path d="M-72.53917645259095,-33.26469667412341L-69.1933689227066,-22.718719498952144L-69.03257359288553,-27.071930709568576z" style="fill:rgb(247,160,156)"/><path d="M47.83059088412445,-82.83162110642525L41.241274327570196,-91.71289128424426L44.09262571183365,-85.18260743641689z" style="fill:rgb(30,49,155)"/><path d="M-69.85823751883879,45.490487247008225L-96.2286822953202,0.7002808922584319L-94.75574714531557,4.562317010325926z" style="fill:rgb(241,185,128)"/><path d="M83.46171174787864,-90.50247708481426L103.56858708346012,-42.46073355186869L85.77428381922572,-87.06062858066501z" style="fill:rgb(13,69,126)"/><path d="M-105.36632685653177,-29.81799483276862L-140.38151754789243,-24.559775805405206L-140.9927866267568,-20.133341891196782z" style="fill:rgb(83,212,212)"/><path d="M-69.1933689227066,-22.718719498952144L-72.53917645259095,-33.26469667412341L-72.71630035951299,-28.91333093204585z" style="fill:rgb(247,160,156)"/><path d="M41.241274327570196,-91.71289128424426L47.83059088412445,-82.83162110642525L44.988471705885544,-89.37691093955485z" style="fill:rgb(30,49,155)"/><path d="M-140.38151754789243,-24.559775805405206L-105.36632685653177,-29.81799483276862L-107.34628326186757,-33.57606387962558z" style="fill:rgb(83,212,212)"/><path d="M-72.71630035951299,-28.91333093204585L-68.80034878074048,-18.504086899768634L-69.1933689227066,-22.718719498952144z" style="fill:rgb(246,168,147)"/><path d="M51.13684544505975,-80.11292154652182L44.988471705885544,-89.37691093955485L47.83059088412445,-82.83162110642525z" style="fill:rgb(24,54,147)"/><path d="M-67.96431426733325,49.22858636854828L-94.75574714531557,4.562317010325926L-92.89992955272076,8.263565279971145z" style="fill:rgb(238,189,122)"/><path d="M-37.20577028843902,-63.51485187196614L14.307691052499738,-85.13542477134929L-40.529053508864536,-69.9209753608017z" style="fill:rgb(127,37,217)"/><path d="M-99.6172331421832,-29.586346149889106L-140.9927866267568,-20.133341891196782L-141.2475444963276,-18.288541522441847z" style="fill:rgb(83,212,212)"/><path d="M85.77428381922572,-87.06062858066501L105.52703429653039,-38.74950584720487L87.73055916118516,-83.40434299001475z" style="fill:rgb(11,74,120)"/><path d="M-92.67024303950953,-41.85533069847467L-41.035466087067334,-57.785837760558486L-98.39033395933403,-42.04448941894123z" style="fill:rgb(83,212,212)"/><path d="M-96.34108567982565,-48.18073374563995L-90.61823836465848,-38.141640970384046L-92.67024303950953,-41.85533069847467z" style="fill:rgb(238,190,121)"/><path d="M-68.80034878074048,-18.504086899768634L-72.71630035951299,-28.91333093204585L-72.33690786104452,-24.702058725691483z" style="fill:rgb(246,168,147)"/><path d="M-140.9927866267568,-20.133341891196782L-99.6172331421832,-29.586346149889106L-105.36632685653177,-29.81799483276862z" style="fill:rgb(83,212,212)"/><path d="M14.307691052499738,-85.13542477134929L-37.20577028843902,-63.51485187196614L17.355835749996498,-78.55323622390404z" style="fill:rgb(127,37,217)"/><path d="M44.988471705885544,-89.37691093955485L51.13684544505975,-80.11292154652182L48.30120362862491,-86.6719213224819z" style="fill:rgb(24,54,147)"/><path d="M-72.33690786104452,-24.702058725691483L-67.84940772620755,-14.466047998011554L-68.80034878074048,-18.504086899768634z" style="fill:rgb(244,176,138)"/><path d="M53.97719926450572,-77.04486353713536L48.30120362862491,-86.6719213224819L51.13684544505975,-80.11292154652182z" style="fill:rgb(19,60,138)"/><path d="M-90.61823836465848,-38.141640970384046L-41.110692834260306,-55.983180711141145L-92.67024303950953,-41.85533069847467zM-108.17682659128559,-44.91564830773065L-103.36274319921671,-35.89758738030213L-102.08230580060696,-48.35004465509627z" style="fill:rgb(83,212,212)"/><path d="M87.73055916118516,-83.40434299001475L107.13016560794169,-34.84511972262938L89.3173141322572,-79.54597812559791z" style="fill:rgb(9,79,114)"/><path d="M-109.133080408653,-36.109503316873486L-108.17682659128559,-44.91564830773065L-111.10570323235366,-39.85794170823489z" style="fill:rgb(83,212,212)"/><path d="M-90.61823836465848,-38.141640970384046L-96.34108567982565,-48.18073374563995L-94.29554813123166,-44.477144850872996z" style="fill:rgb(238,190,121)"/><path d="M-102.08230580060696,-48.35004465509627L-97.19529693437167,-39.37683700715177L-96.34108567982565,-48.18073374563995zM-41.035466087067334,-57.785837760558486L-92.67024303950953,-41.85533069847467L-41.110692834260306,-55.983180711141145z" style="fill:rgb(83,212,212)"/><path d="M-67.84940772620755,-14.466047998011554L-72.33690786104452,-24.702058725691483L-71.3966955726551,-20.668892624219747z" style="fill:rgb(244,176,138)"/><path d="M-41.95282080955461,-35.803309870445766L-37.20577028843902,-63.51485187196614L-40.529053508864536,-69.9209753608017z" style="fill:rgb(247,158,158)"/><path d="M48.30120362862491,-86.6719213224819L53.97719926450572,-77.04486353713536L51.14515250143641,-83.61610965858692z" style="fill:rgb(19,60,138)"/><path d="M-90.61823836465848,-38.141640970384046L-97.19529693437167,-39.37683700715177L-93.48709504774322,-33.04722972764078z" style="fill:rgb(238,121,190)"/><path d="M-71.3966955726551,-20.668892624219747L-66.34111976665008,-10.64214303109538L-67.84940772620755,-14.466047998011554z" style="fill:rgb(241,183,129)"/><path d="M56.32051104769425,-73.64931636673505L51.14515250143641,-83.61610965858692L53.97719926450572,-77.04486353713536z" style="fill:rgb(15,67,129)"/><path d="M-108.17682659128559,-44.91564830773065L-109.133080408653,-36.109503316873486L-103.36274319921671,-35.89758738030213z" style="fill:rgb(83,212,212)"/><path d="M-103.36274319921671,-35.89758738030213L-105.36632685653177,-29.81799483276862L-99.6172331421832,-29.586346149889106z" style="fill:rgb(81,32,199)"/><path d="M-97.19529693437167,-39.37683700715177L-90.61823836465848,-38.141640970384046L-94.29554813123166,-44.477144850872996z" style="fill:rgb(238,121,190)"/><path d="M-96.34108567982565,-48.18073374563995L-97.19529693437167,-39.37683700715177L-94.29554813123166,-44.477144850872996zM-102.08230580060696,-48.35004465509627L-103.36274319921671,-35.89758738030213L-97.19529693437167,-39.37683700715177z" style="fill:rgb(83,212,212)"/><path d="M-105.36632685653177,-29.81799483276862L-103.36274319921671,-35.89758738030213L-109.133080408653,-36.109503316873486z" style="fill:rgb(81,32,199)"/><path d="M-97.19529693437167,-39.37683700715177L-99.6172331421832,-29.586346149889106L-93.48709504774322,-33.04722972764078z" style="fill:rgb(173,56,222)"/><path d="M-37.20577028843902,-63.51485187196614L-10.46483077885036,-36.86916017096554L17.355835749996498,-78.55323622390404zM-41.110692834260306,-55.983180711141145L-90.61823836465848,-38.141640970384046L-41.293447993593006,-51.60382778445964zM-41.477835285006385,-47.18536471090628L-90.61823836465848,-38.141640970384046L-93.48709504774322,-33.04722972764078z" style="fill:rgb(83,212,212)"/><path d="M-99.6172331421832,-29.586346149889106L-97.19529693437167,-39.37683700715177L-103.36274319921671,-35.89758738030213z" style="fill:rgb(173,56,222)"/><path d="M-66.34111976665008,-10.64214303109538L-71.3966955726551,-20.668892624219747L-69.89605810645585,-16.851363589014955z" style="fill:rgb(241,183,129)"/><path d="M51.14515250143641,-83.61610965858692L56.32051104769425,-73.64931636673505L53.48908249714615,-80.23118838114932z" style="fill:rgb(15,67,129)"/><path d="M-41.95282080955461,-35.803309870445766L-141.2475444963276,-18.288541522441847L-142.56680620665463,-8.735256149905249zM-41.554694185057805,-45.343600322331156L-93.48709504774322,-33.04722972764078L-99.6172331421832,-29.586346149889106z" style="fill:rgb(83,212,212)"/><path d="M58.13919676158824,-69.95165831179204L53.48908249714615,-80.23118838114932L56.32051104769425,-73.64931636673505z" style="fill:rgb(11,74,120)"/><path d="M-90.61823836465848,-38.141640970384046L-41.477835285006385,-47.18536471090628L-41.293447993593006,-51.60382778445964z" style="fill:rgb(83,212,212)"/><path d="M53.48908249714615,-80.23118838114932L58.13919676158824,-69.95165831179204L55.30530324581506,-76.54238841032276z" style="fill:rgb(11,74,120)"/><path d="M-37.20577028843902,-63.51485187196614L-41.95282080955461,-35.803309870445766L-38.50499576757847,-29.37699645782997z" style="fill:rgb(247,158,158)"/><path d="M-93.48709504774322,-33.04722972764078L-41.554694185057805,-45.343600322331156L-41.477835285006385,-47.18536471090628zM-10.46483077885036,-36.86916017096554L-37.20577028843902,-63.51485187196614L-38.50499576757847,-29.37699645782997zM-141.2475444963276,-18.288541522441847L-41.95282080955461,-35.803309870445766L-41.554694185057805,-45.343600322331156zM14.488944602537208,-73.02480378915794L119.4506175255266,-114.30731535887318L14.307691052499738,-85.13542477134929zM17.355835749996498,-78.55323622390404L-10.46483077885036,-36.86916017096554L17.97044141820192,-44.46689383411289z" style="fill:rgb(83,212,212)"/><path d="M-41.95282080955461,-35.803309870445766L-54.10703811193085,-25.20822499206485L-38.50499576757847,-29.37699645782997zM-54.10703811193085,-25.20822499206485L-41.95282080955461,-35.803309870445766L-57.634619474419765,-31.58445494304877z" style="fill:rgb(127,37,217)"/><path d="M68.9280614368544,-86.13494152800259L14.488944602537208,-73.02480378915794L14.515874801707662,-71.22544020475576zM66.58162965000905,-81.04611197484844L14.515874801707662,-71.22544020475576L14.58130448840814,-66.85369671554723zM119.4506175255266,-114.30731535887318L14.488944602537208,-73.02480378915794L75.19555149453537,-89.6860495701106zM14.488944602537208,-73.02480378915794L68.9280614368544,-86.13494152800259L75.19555149453537,-89.6860495701106zM14.515874801707662,-71.22544020475576L66.58162965000905,-81.04611197484844L68.9280614368544,-86.13494152800259zM-142.56680620665463,-8.735256149905249L-129.8001861638022,54.21212494978556L-57.634619474419765,-31.58445494304877zM69.5606957021197,-77.36994553826801L14.58130448840814,-66.85369671554723L14.647326684932208,-62.44236386746317zM14.674849425974546,-60.60340486566566L69.5606957021197,-77.36994553826801L14.647326684932208,-62.44236386746317zM14.58130448840814,-66.85369671554723L69.5606957021197,-77.36994553826801L66.58162965000905,-81.04611197484844zM119.4506175255266,-114.30731535887318L75.19555149453537,-89.6860495701106L121.00353941037335,-102.25829335386817zM81.7667461669553,-89.65287445428835L121.00353941037335,-102.25829335386817L75.19555149453537,-89.6860495701106zM14.817439170854767,-51.07614479349784L76.17498161717087,-77.29356676178118L14.674849425974546,-60.60340486566566z" style="fill:rgb(83,212,212)"/><path d="M31.075248494003155,-55.44996089456422L17.97044141820192,-44.46689383411289L34.14205909311629,-48.78785044981155z" style="fill:rgb(127,37,217)"/><path d="M69.5606957021197,-77.36994553826801L14.674849425974546,-60.60340486566566L76.17498161717087,-77.29356676178118z" style="fill:rgb(83,212,212)"/><path d="M17.97044141820192,-44.46689383411289L31.075248494003155,-55.44996089456422L14.817439170854767,-51.07614479349784z" style="fill:rgb(127,37,217)"/><path d="M69.5606957021197,-77.36994553826801L63.716622595998835,-87.89674267733388L66.58162965000905,-81.04611197484844z" style="fill:rgb(16,64,133)"/><path d="M84.82291716710172,-86.02470434007915L121.2343553570916,-100.46740779265649L81.7667461669553,-89.65287445428835z" style="fill:rgb(83,212,212)"/><path d="M143.92444976691095,75.58351300817567L133.50988108083743,-110.97112053748832L111.91044264558003,-172.8110341100034z" style="fill:rgb(247,158,158)"/><path d="M121.00353941037335,-102.25829335386817L81.7667461669553,-89.65287445428835L121.2343553570916,-100.46740779265649z" style="fill:rgb(83,212,212)"/><path d="M-61.55057694778112,37.0077433457069L-54.10703811193085,-25.20822499206485L-57.634619474419765,-31.58445494304877z" style="fill:rgb(247,158,158)"/><path d="M66.08856374878586,-92.98960291644298L73.34383599617334,-84.18133577665691L72.39507729900691,-96.56002426160342zM66.69885776046591,-84.2341351647245L66.08856374878586,-92.98960291644298L63.716622595998835,-87.89674267733388zM72.39507729900691,-96.56002426160342L79.72843127585767,-87.80028592564304L78.99662706230428,-96.55050158025873z" style="fill:rgb(83,212,212)"/><path d="M63.716622595998835,-87.89674267733388L69.5606957021197,-77.36994553826801L66.69885776046591,-84.2341351647245z" style="fill:rgb(16,64,133)"/><path d="M121.2343553570916,-100.46740779265649L84.82291716710172,-86.02470434007915L121.79524076358076,-96.11553527146603zM-129.8001861638022,54.21212494978556L-142.56680620665463,-8.735256149905249L-152.03349444178102,59.81670271566206z" style="fill:rgb(83,212,212)"/><path d="M84.82291716710172,-86.02470434007915L79.72843127585767,-87.80028592564304L82.51957888387336,-80.89267275112674z" style="fill:rgb(238,121,190)"/><path d="M66.08856374878586,-92.98960291644298L66.69885776046591,-84.2341351647245L73.34383599617334,-84.18133577665691z" style="fill:rgb(83,212,212)"/><path d="M73.34383599617334,-84.18133577665691L69.5606957021197,-77.36994553826801L76.17498161717087,-77.29356676178118z" style="fill:rgb(81,32,199)"/><path d="M79.72843127585767,-87.80028592564304L84.82291716710172,-86.02470434007915L82.05694179524481,-92.93642142384569z" style="fill:rgb(238,121,190)"/><path d="M78.99662706230428,-96.55050158025873L79.72843127585767,-87.80028592564304L82.05694179524481,-92.93642142384569zM122.36134011542744,-91.72320809542833L84.82291716710172,-86.02470434007915L82.51957888387336,-80.89267275112674zM72.39507729900691,-96.56002426160342L73.34383599617334,-84.18133577665691L79.72843127585767,-87.80028592564304z" style="fill:rgb(83,212,212)"/><path d="M69.5606957021197,-77.36994553826801L73.34383599617334,-84.18133577665691L66.69885776046591,-84.2341351647245z" style="fill:rgb(81,32,199)"/><path d="M79.72843127585767,-87.80028592564304L76.17498161717087,-77.29356676178118L82.51957888387336,-80.89267275112674z" style="fill:rgb(173,56,222)"/><path d="M84.82291716710172,-86.02470434007915L122.36134011542744,-91.72320809542833L121.79524076358076,-96.11553527146603zM122.5973704972929,-89.89186639102246L82.51957888387336,-80.89267275112674L76.17498161717087,-77.29356676178118z" style="fill:rgb(83,212,212)"/><path d="M76.17498161717087,-77.29356676178118L79.72843127585767,-87.80028592564304L73.34383599617334,-84.18133577665691z" style="fill:rgb(173,56,222)"/><path d="M-54.10703811193085,-25.20822499206485L36.50158418073534,19.791048245866747L-10.46483077885036,-36.86916017096554zM76.17498161717087,-77.29356676178118L14.817439170854767,-51.07614479349784L123.8205728740985,-80.40111828704542zM82.51957888387336,-80.89267275112674L122.5973704972929,-89.89186639102246L122.36134011542744,-91.72320809542833zM-10.46483077885036,-36.86916017096554L36.50158418073534,19.791048245866747L17.97044141820192,-44.46689383411289zM76.17498161717087,-77.29356676178118L123.8205728740985,-80.40111828704542L122.5973704972929,-89.89186639102246z" style="fill:rgb(83,212,212)"/><path d="M-103.70950017397236,92.89895352681194L-57.759997314184645,43.37937735285116L-125.64858854528266,60.36804223023263z" style="fill:rgb(127,37,217)"/><path d="M17.97044141820192,-44.46689383411289L36.50158418073534,19.791048245866747L34.14205909311629,-48.78785044981155zM-57.634619474419765,-31.58445494304877L-129.8001861638022,54.21212494978556L-61.55057694778112,37.0077433457069z" style="fill:rgb(83,212,212)"/><path d="M-54.10703811193085,-25.20822499206485L-61.55057694778112,37.0077433457069L-57.759997314184645,43.37937735285116z" style="fill:rgb(247,158,158)"/><path d="M-57.759997314184645,43.37937735285116L-103.70950017397236,92.89895352681194L125.1140075220589,37.843985598276994z" style="fill:rgb(127,37,217)"/><path d="M36.50158418073534,19.791048245866747L-54.10703811193085,-25.20822499206485L-57.759997314184645,43.37937735285116z" style="fill:rgb(83,212,212)"/><path d="M-125.64858854528266,60.36804223023263L-61.55057694778112,37.0077433457069L-129.8001861638022,54.21212494978556zM-61.55057694778112,37.0077433457069L-125.64858854528266,60.36804223023263L-57.759997314184645,43.37937735285116z" style="fill:rgb(127,37,217)"/><path d="M31.075248494003155,-55.44996089456422L107.34042525622739,-5.566348539665151L123.8205728740985,-80.40111828704542z" style="fill:rgb(83,212,212)"/><path d="M-140.09113235089143,141.05306340274564L-103.70950017397236,92.89895352681194L-129.8001861638022,54.21212494978556z" style="fill:rgb(247,158,158)"/><path d="M-57.759997314184645,43.37937735285116L125.1140075220589,37.843985598276994L36.50158418073534,19.791048245866747z" style="fill:rgb(127,37,217)"/><path d="M-164.013349625886,146.56746268080536L-129.8001861638022,54.21212494978556L-152.03349444178102,59.81670271566206z" style="fill:rgb(83,212,212)"/><path d="M-103.70950017397236,92.89895352681194L-140.09113235089143,141.05306340274564L-111.58524935447942,179.01663992677965z" style="fill:rgb(247,158,158)"/><path d="M-103.70950017397236,92.89895352681194L135.21113891490833,124.91982181136686L125.1140075220589,37.843985598276994zM107.34042525622739,-5.566348539665151L31.075248494003155,-55.44996089456422L33.23686422879736,13.113697715486358zM135.21113891490833,124.91982181136686L-103.70950017397236,92.89895352681194L-111.58524935447942,179.01663992677965z" style="fill:rgb(83,212,212)"/><path d="M133.50988108083743,-110.97112053748832L143.92444976691095,75.58351300817567L169.2373680711837,137.9375277340779z" style="fill:rgb(247,158,158)"/><path d="M36.50158418073534,19.791048245866747L125.1140075220589,37.843985598276994L110.17422984991302,1.3549609519970853z" style="fill:rgb(127,37,217)"/><path d="M123.8205728740985,-80.40111828704542L107.34042525622739,-5.566348539665151L132.6434826346492,-11.944750197992304z" style="fill:rgb(83,212,212)"/><path d="M-121.94376552683309,200.34901804288046L135.21113891490833,124.91982181136686L-134.67208917208973,184.07718904586417zM36.50158418073534,19.791048245866747L107.34042525622739,-5.566348539665151L33.23686422879736,13.113697715486358zM-140.09113235089143,141.05306340274564L-134.67208917208973,184.07718904586417L-111.58524935447942,179.01663992677965zM107.34042525622739,-5.566348539665151L36.50158418073534,19.791048245866747L110.17422984991302,1.3549609519970853z" style="fill:rgb(127,37,217)"/><path d="M-129.8001861638022,54.21212494978556L-164.013349625886,146.56746268080536L-140.09113235089143,141.05306340274564z" style="fill:rgb(83,212,212)"/><path d="M-134.67208917208973,184.07718904586417L-140.09113235089143,141.05306340274564L-164.013349625886,146.56746268080536zM135.21113891490833,124.91982181136686L-121.94376552683309,200.34901804288046L169.2373680711837,137.9375277340779z" style="fill:rgb(127,37,217)"/><path d="M107.34042525622739,-5.566348539665151L143.92444976691095,75.58351300817567L132.6434826346492,-11.944750197992304z" style="fill:rgb(83,212,212)"/><path d="M135.21113891490833,124.91982181136686L169.2373680711837,137.9375277340779L161.6042159618239,119.13456684536713zM143.92444976691095,75.58351300817567L135.21113891490833,124.91982181136686L161.6042159618239,119.13456684536713z" style="fill:rgb(127,37,217)"/><path d="M143.92444976691095,75.58351300817567L107.34042525622739,-5.566348539665151L116.40949253124346,81.92609281325399z" style="fill:rgb(83,212,212)"/><path d="M135.21113891490833,124.91982181136686L143.92444976691095,75.58351300817567L116.40949253124346,81.92609281325399z" style="fill:rgb(127,37,217)"/></svg>
